G04 #@! TF.GenerationSoftware,KiCad,Pcbnew,5.1.10*
G04 #@! TF.CreationDate,2021-07-20T09:34:09+02:00*
G04 #@! TF.ProjectId,MEV_board,4d45565f-626f-4617-9264-2e6b69636164,rev?*
G04 #@! TF.SameCoordinates,Original*
G04 #@! TF.FileFunction,Soldermask,Bot*
G04 #@! TF.FilePolarity,Negative*
%FSLAX46Y46*%
G04 Gerber Fmt 4.6, Leading zero omitted, Abs format (unit mm)*
G04 Created by KiCad (PCBNEW 5.1.10) date 2021-07-20 09:34:09*
%MOMM*%
%LPD*%
G01*
G04 APERTURE LIST*
%ADD10C,6.400000*%
%ADD11C,3.600000*%
%ADD12O,1.700000X1.700000*%
%ADD13R,1.700000X1.700000*%
%ADD14C,2.600000*%
%ADD15R,2.600000X2.600000*%
%ADD16C,1.440000*%
%ADD17R,1.500000X2.500000*%
%ADD18O,1.500000X2.500000*%
G04 APERTURE END LIST*
D10*
X98000000Y-161500000D03*
D11*
X98000000Y-161500000D03*
D10*
X155000000Y-161500000D03*
D11*
X155000000Y-161500000D03*
D10*
X98000000Y-46000000D03*
D11*
X98000000Y-46000000D03*
D10*
X155000000Y-46000000D03*
D11*
X155000000Y-46000000D03*
D12*
X153340000Y-153960000D03*
X150800000Y-153960000D03*
X153340000Y-151420000D03*
X150800000Y-151420000D03*
X153340000Y-148880000D03*
X150800000Y-148880000D03*
X153340000Y-146340000D03*
X150800000Y-146340000D03*
X153340000Y-143800000D03*
X150800000Y-143800000D03*
X153340000Y-141260000D03*
X150800000Y-141260000D03*
X153340000Y-138720000D03*
X150800000Y-138720000D03*
X153340000Y-136180000D03*
X150800000Y-136180000D03*
X153340000Y-133640000D03*
X150800000Y-133640000D03*
X153340000Y-131100000D03*
X150800000Y-131100000D03*
X153340000Y-128560000D03*
X150800000Y-128560000D03*
X153340000Y-126020000D03*
X150800000Y-126020000D03*
X153340000Y-123480000D03*
X150800000Y-123480000D03*
X153340000Y-120940000D03*
X150800000Y-120940000D03*
X153340000Y-118400000D03*
X150800000Y-118400000D03*
X153340000Y-115860000D03*
X150800000Y-115860000D03*
X153340000Y-113320000D03*
X150800000Y-113320000D03*
X153340000Y-110780000D03*
X150800000Y-110780000D03*
X153340000Y-108240000D03*
X150800000Y-108240000D03*
X153340000Y-105700000D03*
X150800000Y-105700000D03*
X153340000Y-103160000D03*
X150800000Y-103160000D03*
X153340000Y-100620000D03*
X150800000Y-100620000D03*
X153340000Y-98080000D03*
X150800000Y-98080000D03*
X153340000Y-95540000D03*
X150800000Y-95540000D03*
X153340000Y-93000000D03*
X150800000Y-93000000D03*
X153340000Y-90460000D03*
X150800000Y-90460000D03*
X153340000Y-87920000D03*
X150800000Y-87920000D03*
X153340000Y-85380000D03*
X150800000Y-85380000D03*
X153340000Y-82840000D03*
X150800000Y-82840000D03*
X153340000Y-80300000D03*
X150800000Y-80300000D03*
X153340000Y-77760000D03*
X150800000Y-77760000D03*
X153340000Y-75220000D03*
D13*
X150800000Y-75220000D03*
D12*
X102530000Y-153960000D03*
X99990000Y-153960000D03*
X102530000Y-151420000D03*
X99990000Y-151420000D03*
X102530000Y-148880000D03*
X99990000Y-148880000D03*
X102530000Y-146340000D03*
X99990000Y-146340000D03*
X102530000Y-143800000D03*
X99990000Y-143800000D03*
X102530000Y-141260000D03*
X99990000Y-141260000D03*
X102530000Y-138720000D03*
X99990000Y-138720000D03*
X102530000Y-136180000D03*
X99990000Y-136180000D03*
X102530000Y-133640000D03*
X99990000Y-133640000D03*
X102530000Y-131100000D03*
X99990000Y-131100000D03*
X102530000Y-128560000D03*
X99990000Y-128560000D03*
X102530000Y-126020000D03*
X99990000Y-126020000D03*
X102530000Y-123480000D03*
X99990000Y-123480000D03*
X102530000Y-120940000D03*
X99990000Y-120940000D03*
X102530000Y-118400000D03*
X99990000Y-118400000D03*
X102530000Y-115860000D03*
X99990000Y-115860000D03*
X102530000Y-113320000D03*
X99990000Y-113320000D03*
X102530000Y-110780000D03*
X99990000Y-110780000D03*
X102530000Y-108240000D03*
X99990000Y-108240000D03*
X102530000Y-105700000D03*
X99990000Y-105700000D03*
X102530000Y-103160000D03*
X99990000Y-103160000D03*
X102530000Y-100620000D03*
X99990000Y-100620000D03*
X102530000Y-98080000D03*
X99990000Y-98080000D03*
X102530000Y-95540000D03*
X99990000Y-95540000D03*
X102530000Y-93000000D03*
X99990000Y-93000000D03*
X102530000Y-90460000D03*
X99990000Y-90460000D03*
X102530000Y-87920000D03*
X99990000Y-87920000D03*
X102530000Y-85380000D03*
X99990000Y-85380000D03*
X102530000Y-82840000D03*
X99990000Y-82840000D03*
X102530000Y-80300000D03*
X99990000Y-80300000D03*
X102530000Y-77760000D03*
X99990000Y-77760000D03*
X102530000Y-75220000D03*
D13*
X99990000Y-75220000D03*
D12*
X147066000Y-153987500D03*
X144526000Y-153987500D03*
X141986000Y-153987500D03*
D13*
X139446000Y-153987500D03*
D12*
X113842798Y-153974800D03*
X111302798Y-153974800D03*
X108762798Y-153974800D03*
D13*
X106222798Y-153974800D03*
D14*
X134188200Y-154838400D03*
X129108200Y-154838400D03*
X124028200Y-154838400D03*
D15*
X118948200Y-154838400D03*
X111823500Y-47200000D03*
D14*
X106743500Y-47200000D03*
D15*
X146500000Y-47200000D03*
D14*
X141420000Y-47200000D03*
X136340000Y-47200000D03*
X131260000Y-47200000D03*
G36*
G01*
X135431500Y-56957100D02*
X135431500Y-56657100D01*
G75*
G02*
X135581500Y-56507100I150000J0D01*
G01*
X137231500Y-56507100D01*
G75*
G02*
X137381500Y-56657100I0J-150000D01*
G01*
X137381500Y-56957100D01*
G75*
G02*
X137231500Y-57107100I-150000J0D01*
G01*
X135581500Y-57107100D01*
G75*
G02*
X135431500Y-56957100I0J150000D01*
G01*
G37*
G36*
G01*
X135431500Y-55687100D02*
X135431500Y-55387100D01*
G75*
G02*
X135581500Y-55237100I150000J0D01*
G01*
X137231500Y-55237100D01*
G75*
G02*
X137381500Y-55387100I0J-150000D01*
G01*
X137381500Y-55687100D01*
G75*
G02*
X137231500Y-55837100I-150000J0D01*
G01*
X135581500Y-55837100D01*
G75*
G02*
X135431500Y-55687100I0J150000D01*
G01*
G37*
G36*
G01*
X135431500Y-54417100D02*
X135431500Y-54117100D01*
G75*
G02*
X135581500Y-53967100I150000J0D01*
G01*
X137231500Y-53967100D01*
G75*
G02*
X137381500Y-54117100I0J-150000D01*
G01*
X137381500Y-54417100D01*
G75*
G02*
X137231500Y-54567100I-150000J0D01*
G01*
X135581500Y-54567100D01*
G75*
G02*
X135431500Y-54417100I0J150000D01*
G01*
G37*
G36*
G01*
X135431500Y-53147100D02*
X135431500Y-52847100D01*
G75*
G02*
X135581500Y-52697100I150000J0D01*
G01*
X137231500Y-52697100D01*
G75*
G02*
X137381500Y-52847100I0J-150000D01*
G01*
X137381500Y-53147100D01*
G75*
G02*
X137231500Y-53297100I-150000J0D01*
G01*
X135581500Y-53297100D01*
G75*
G02*
X135431500Y-53147100I0J150000D01*
G01*
G37*
G36*
G01*
X140381500Y-53147100D02*
X140381500Y-52847100D01*
G75*
G02*
X140531500Y-52697100I150000J0D01*
G01*
X142181500Y-52697100D01*
G75*
G02*
X142331500Y-52847100I0J-150000D01*
G01*
X142331500Y-53147100D01*
G75*
G02*
X142181500Y-53297100I-150000J0D01*
G01*
X140531500Y-53297100D01*
G75*
G02*
X140381500Y-53147100I0J150000D01*
G01*
G37*
G36*
G01*
X140381500Y-54417100D02*
X140381500Y-54117100D01*
G75*
G02*
X140531500Y-53967100I150000J0D01*
G01*
X142181500Y-53967100D01*
G75*
G02*
X142331500Y-54117100I0J-150000D01*
G01*
X142331500Y-54417100D01*
G75*
G02*
X142181500Y-54567100I-150000J0D01*
G01*
X140531500Y-54567100D01*
G75*
G02*
X140381500Y-54417100I0J150000D01*
G01*
G37*
G36*
G01*
X140381500Y-55687100D02*
X140381500Y-55387100D01*
G75*
G02*
X140531500Y-55237100I150000J0D01*
G01*
X142181500Y-55237100D01*
G75*
G02*
X142331500Y-55387100I0J-150000D01*
G01*
X142331500Y-55687100D01*
G75*
G02*
X142181500Y-55837100I-150000J0D01*
G01*
X140531500Y-55837100D01*
G75*
G02*
X140381500Y-55687100I0J150000D01*
G01*
G37*
G36*
G01*
X140381500Y-56957100D02*
X140381500Y-56657100D01*
G75*
G02*
X140531500Y-56507100I150000J0D01*
G01*
X142181500Y-56507100D01*
G75*
G02*
X142331500Y-56657100I0J-150000D01*
G01*
X142331500Y-56957100D01*
G75*
G02*
X142181500Y-57107100I-150000J0D01*
G01*
X140531500Y-57107100D01*
G75*
G02*
X140381500Y-56957100I0J150000D01*
G01*
G37*
G36*
G01*
X145461500Y-63611900D02*
X145461500Y-63311900D01*
G75*
G02*
X145611500Y-63161900I150000J0D01*
G01*
X147261500Y-63161900D01*
G75*
G02*
X147411500Y-63311900I0J-150000D01*
G01*
X147411500Y-63611900D01*
G75*
G02*
X147261500Y-63761900I-150000J0D01*
G01*
X145611500Y-63761900D01*
G75*
G02*
X145461500Y-63611900I0J150000D01*
G01*
G37*
G36*
G01*
X145461500Y-62341900D02*
X145461500Y-62041900D01*
G75*
G02*
X145611500Y-61891900I150000J0D01*
G01*
X147261500Y-61891900D01*
G75*
G02*
X147411500Y-62041900I0J-150000D01*
G01*
X147411500Y-62341900D01*
G75*
G02*
X147261500Y-62491900I-150000J0D01*
G01*
X145611500Y-62491900D01*
G75*
G02*
X145461500Y-62341900I0J150000D01*
G01*
G37*
G36*
G01*
X145461500Y-61071900D02*
X145461500Y-60771900D01*
G75*
G02*
X145611500Y-60621900I150000J0D01*
G01*
X147261500Y-60621900D01*
G75*
G02*
X147411500Y-60771900I0J-150000D01*
G01*
X147411500Y-61071900D01*
G75*
G02*
X147261500Y-61221900I-150000J0D01*
G01*
X145611500Y-61221900D01*
G75*
G02*
X145461500Y-61071900I0J150000D01*
G01*
G37*
G36*
G01*
X145461500Y-59801900D02*
X145461500Y-59501900D01*
G75*
G02*
X145611500Y-59351900I150000J0D01*
G01*
X147261500Y-59351900D01*
G75*
G02*
X147411500Y-59501900I0J-150000D01*
G01*
X147411500Y-59801900D01*
G75*
G02*
X147261500Y-59951900I-150000J0D01*
G01*
X145611500Y-59951900D01*
G75*
G02*
X145461500Y-59801900I0J150000D01*
G01*
G37*
G36*
G01*
X140511500Y-59801900D02*
X140511500Y-59501900D01*
G75*
G02*
X140661500Y-59351900I150000J0D01*
G01*
X142311500Y-59351900D01*
G75*
G02*
X142461500Y-59501900I0J-150000D01*
G01*
X142461500Y-59801900D01*
G75*
G02*
X142311500Y-59951900I-150000J0D01*
G01*
X140661500Y-59951900D01*
G75*
G02*
X140511500Y-59801900I0J150000D01*
G01*
G37*
G36*
G01*
X140511500Y-61071900D02*
X140511500Y-60771900D01*
G75*
G02*
X140661500Y-60621900I150000J0D01*
G01*
X142311500Y-60621900D01*
G75*
G02*
X142461500Y-60771900I0J-150000D01*
G01*
X142461500Y-61071900D01*
G75*
G02*
X142311500Y-61221900I-150000J0D01*
G01*
X140661500Y-61221900D01*
G75*
G02*
X140511500Y-61071900I0J150000D01*
G01*
G37*
G36*
G01*
X140511500Y-62341900D02*
X140511500Y-62041900D01*
G75*
G02*
X140661500Y-61891900I150000J0D01*
G01*
X142311500Y-61891900D01*
G75*
G02*
X142461500Y-62041900I0J-150000D01*
G01*
X142461500Y-62341900D01*
G75*
G02*
X142311500Y-62491900I-150000J0D01*
G01*
X140661500Y-62491900D01*
G75*
G02*
X140511500Y-62341900I0J150000D01*
G01*
G37*
G36*
G01*
X140511500Y-63611900D02*
X140511500Y-63311900D01*
G75*
G02*
X140661500Y-63161900I150000J0D01*
G01*
X142311500Y-63161900D01*
G75*
G02*
X142461500Y-63311900I0J-150000D01*
G01*
X142461500Y-63611900D01*
G75*
G02*
X142311500Y-63761900I-150000J0D01*
G01*
X140661500Y-63761900D01*
G75*
G02*
X140511500Y-63611900I0J150000D01*
G01*
G37*
D16*
X114560000Y-135620000D03*
X112020000Y-135620000D03*
X109480000Y-135620000D03*
X109480000Y-130030000D03*
X112020000Y-130030000D03*
X114560000Y-130030000D03*
X115316000Y-121285000D03*
X115316000Y-118745000D03*
X115316000Y-116205000D03*
X109791500Y-116205000D03*
X109791500Y-118745000D03*
X109791500Y-121285000D03*
X129336800Y-121716800D03*
X129336800Y-119176800D03*
X129336800Y-116636800D03*
X134823200Y-116636800D03*
X134823200Y-119176800D03*
X134823200Y-121716800D03*
X138360000Y-143150000D03*
X138360000Y-140610000D03*
X138360000Y-138070000D03*
X124870000Y-138070000D03*
X124870000Y-140610000D03*
X124870000Y-143150000D03*
D17*
X124000000Y-47800000D03*
D18*
X121460000Y-47800000D03*
X118920000Y-47800000D03*
M02*
