G04 #@! TF.GenerationSoftware,KiCad,Pcbnew,5.1.10*
G04 #@! TF.CreationDate,2021-07-20T09:34:09+02:00*
G04 #@! TF.ProjectId,MEV_board,4d45565f-626f-4617-9264-2e6b69636164,rev?*
G04 #@! TF.SameCoordinates,Original*
G04 #@! TF.FileFunction,Paste,Top*
G04 #@! TF.FilePolarity,Positive*
%FSLAX46Y46*%
G04 Gerber Fmt 4.6, Leading zero omitted, Abs format (unit mm)*
G04 Created by KiCad (PCBNEW 5.1.10) date 2021-07-20 09:34:09*
%MOMM*%
%LPD*%
G01*
G04 APERTURE LIST*
%ADD10R,4.500000X3.300000*%
%ADD11R,0.900000X0.800000*%
%ADD12R,0.800000X0.900000*%
%ADD13R,1.450000X0.450000*%
G04 APERTURE END LIST*
G36*
G01*
X133373200Y-138972500D02*
X133373200Y-139447500D01*
G75*
G02*
X133135700Y-139685000I-237500J0D01*
G01*
X132535700Y-139685000D01*
G75*
G02*
X132298200Y-139447500I0J237500D01*
G01*
X132298200Y-138972500D01*
G75*
G02*
X132535700Y-138735000I237500J0D01*
G01*
X133135700Y-138735000D01*
G75*
G02*
X133373200Y-138972500I0J-237500D01*
G01*
G37*
G36*
G01*
X135098200Y-138972500D02*
X135098200Y-139447500D01*
G75*
G02*
X134860700Y-139685000I-237500J0D01*
G01*
X134260700Y-139685000D01*
G75*
G02*
X134023200Y-139447500I0J237500D01*
G01*
X134023200Y-138972500D01*
G75*
G02*
X134260700Y-138735000I237500J0D01*
G01*
X134860700Y-138735000D01*
G75*
G02*
X135098200Y-138972500I0J-237500D01*
G01*
G37*
G36*
G01*
X122868700Y-113732200D02*
X122393700Y-113732200D01*
G75*
G02*
X122156200Y-113494700I0J237500D01*
G01*
X122156200Y-112894700D01*
G75*
G02*
X122393700Y-112657200I237500J0D01*
G01*
X122868700Y-112657200D01*
G75*
G02*
X123106200Y-112894700I0J-237500D01*
G01*
X123106200Y-113494700D01*
G75*
G02*
X122868700Y-113732200I-237500J0D01*
G01*
G37*
G36*
G01*
X122868700Y-115457200D02*
X122393700Y-115457200D01*
G75*
G02*
X122156200Y-115219700I0J237500D01*
G01*
X122156200Y-114619700D01*
G75*
G02*
X122393700Y-114382200I237500J0D01*
G01*
X122868700Y-114382200D01*
G75*
G02*
X123106200Y-114619700I0J-237500D01*
G01*
X123106200Y-115219700D01*
G75*
G02*
X122868700Y-115457200I-237500J0D01*
G01*
G37*
G36*
G01*
X119335600Y-114307199D02*
X119335600Y-115207201D01*
G75*
G02*
X119085601Y-115457200I-249999J0D01*
G01*
X118385599Y-115457200D01*
G75*
G02*
X118135600Y-115207201I0J249999D01*
G01*
X118135600Y-114307199D01*
G75*
G02*
X118385599Y-114057200I249999J0D01*
G01*
X119085601Y-114057200D01*
G75*
G02*
X119335600Y-114307199I0J-249999D01*
G01*
G37*
G36*
G01*
X121335600Y-114307199D02*
X121335600Y-115207201D01*
G75*
G02*
X121085601Y-115457200I-249999J0D01*
G01*
X120385599Y-115457200D01*
G75*
G02*
X120135600Y-115207201I0J249999D01*
G01*
X120135600Y-114307199D01*
G75*
G02*
X120385599Y-114057200I249999J0D01*
G01*
X121085601Y-114057200D01*
G75*
G02*
X121335600Y-114307199I0J-249999D01*
G01*
G37*
G36*
G01*
X113910100Y-49627500D02*
X114385100Y-49627500D01*
G75*
G02*
X114622600Y-49865000I0J-237500D01*
G01*
X114622600Y-50465000D01*
G75*
G02*
X114385100Y-50702500I-237500J0D01*
G01*
X113910100Y-50702500D01*
G75*
G02*
X113672600Y-50465000I0J237500D01*
G01*
X113672600Y-49865000D01*
G75*
G02*
X113910100Y-49627500I237500J0D01*
G01*
G37*
G36*
G01*
X113910100Y-51352500D02*
X114385100Y-51352500D01*
G75*
G02*
X114622600Y-51590000I0J-237500D01*
G01*
X114622600Y-52190000D01*
G75*
G02*
X114385100Y-52427500I-237500J0D01*
G01*
X113910100Y-52427500D01*
G75*
G02*
X113672600Y-52190000I0J237500D01*
G01*
X113672600Y-51590000D01*
G75*
G02*
X113910100Y-51352500I237500J0D01*
G01*
G37*
G36*
G01*
X119434400Y-110783000D02*
X119434400Y-109833000D01*
G75*
G02*
X119684400Y-109583000I250000J0D01*
G01*
X120359400Y-109583000D01*
G75*
G02*
X120609400Y-109833000I0J-250000D01*
G01*
X120609400Y-110783000D01*
G75*
G02*
X120359400Y-111033000I-250000J0D01*
G01*
X119684400Y-111033000D01*
G75*
G02*
X119434400Y-110783000I0J250000D01*
G01*
G37*
G36*
G01*
X117359400Y-110783000D02*
X117359400Y-109833000D01*
G75*
G02*
X117609400Y-109583000I250000J0D01*
G01*
X118284400Y-109583000D01*
G75*
G02*
X118534400Y-109833000I0J-250000D01*
G01*
X118534400Y-110783000D01*
G75*
G02*
X118284400Y-111033000I-250000J0D01*
G01*
X117609400Y-111033000D01*
G75*
G02*
X117359400Y-110783000I0J250000D01*
G01*
G37*
G36*
G01*
X127729400Y-106863000D02*
X126779400Y-106863000D01*
G75*
G02*
X126529400Y-106613000I0J250000D01*
G01*
X126529400Y-105938000D01*
G75*
G02*
X126779400Y-105688000I250000J0D01*
G01*
X127729400Y-105688000D01*
G75*
G02*
X127979400Y-105938000I0J-250000D01*
G01*
X127979400Y-106613000D01*
G75*
G02*
X127729400Y-106863000I-250000J0D01*
G01*
G37*
G36*
G01*
X127729400Y-104788000D02*
X126779400Y-104788000D01*
G75*
G02*
X126529400Y-104538000I0J250000D01*
G01*
X126529400Y-103863000D01*
G75*
G02*
X126779400Y-103613000I250000J0D01*
G01*
X127729400Y-103613000D01*
G75*
G02*
X127979400Y-103863000I0J-250000D01*
G01*
X127979400Y-104538000D01*
G75*
G02*
X127729400Y-104788000I-250000J0D01*
G01*
G37*
G36*
G01*
X117359400Y-108703000D02*
X117359400Y-107753000D01*
G75*
G02*
X117609400Y-107503000I250000J0D01*
G01*
X118284400Y-107503000D01*
G75*
G02*
X118534400Y-107753000I0J-250000D01*
G01*
X118534400Y-108703000D01*
G75*
G02*
X118284400Y-108953000I-250000J0D01*
G01*
X117609400Y-108953000D01*
G75*
G02*
X117359400Y-108703000I0J250000D01*
G01*
G37*
G36*
G01*
X119434400Y-108703000D02*
X119434400Y-107753000D01*
G75*
G02*
X119684400Y-107503000I250000J0D01*
G01*
X120359400Y-107503000D01*
G75*
G02*
X120609400Y-107753000I0J-250000D01*
G01*
X120609400Y-108703000D01*
G75*
G02*
X120359400Y-108953000I-250000J0D01*
G01*
X119684400Y-108953000D01*
G75*
G02*
X119434400Y-108703000I0J250000D01*
G01*
G37*
G36*
G01*
X125689400Y-104788000D02*
X124739400Y-104788000D01*
G75*
G02*
X124489400Y-104538000I0J250000D01*
G01*
X124489400Y-103863000D01*
G75*
G02*
X124739400Y-103613000I250000J0D01*
G01*
X125689400Y-103613000D01*
G75*
G02*
X125939400Y-103863000I0J-250000D01*
G01*
X125939400Y-104538000D01*
G75*
G02*
X125689400Y-104788000I-250000J0D01*
G01*
G37*
G36*
G01*
X125689400Y-106863000D02*
X124739400Y-106863000D01*
G75*
G02*
X124489400Y-106613000I0J250000D01*
G01*
X124489400Y-105938000D01*
G75*
G02*
X124739400Y-105688000I250000J0D01*
G01*
X125689400Y-105688000D01*
G75*
G02*
X125939400Y-105938000I0J-250000D01*
G01*
X125939400Y-106613000D01*
G75*
G02*
X125689400Y-106863000I-250000J0D01*
G01*
G37*
G36*
G01*
X124171700Y-112657200D02*
X124646700Y-112657200D01*
G75*
G02*
X124884200Y-112894700I0J-237500D01*
G01*
X124884200Y-113494700D01*
G75*
G02*
X124646700Y-113732200I-237500J0D01*
G01*
X124171700Y-113732200D01*
G75*
G02*
X123934200Y-113494700I0J237500D01*
G01*
X123934200Y-112894700D01*
G75*
G02*
X124171700Y-112657200I237500J0D01*
G01*
G37*
G36*
G01*
X124171700Y-114382200D02*
X124646700Y-114382200D01*
G75*
G02*
X124884200Y-114619700I0J-237500D01*
G01*
X124884200Y-115219700D01*
G75*
G02*
X124646700Y-115457200I-237500J0D01*
G01*
X124171700Y-115457200D01*
G75*
G02*
X123934200Y-115219700I0J237500D01*
G01*
X123934200Y-114619700D01*
G75*
G02*
X124171700Y-114382200I237500J0D01*
G01*
G37*
G36*
G01*
X114461400Y-100645500D02*
X114936400Y-100645500D01*
G75*
G02*
X115173900Y-100883000I0J-237500D01*
G01*
X115173900Y-101483000D01*
G75*
G02*
X114936400Y-101720500I-237500J0D01*
G01*
X114461400Y-101720500D01*
G75*
G02*
X114223900Y-101483000I0J237500D01*
G01*
X114223900Y-100883000D01*
G75*
G02*
X114461400Y-100645500I237500J0D01*
G01*
G37*
G36*
G01*
X114461400Y-102370500D02*
X114936400Y-102370500D01*
G75*
G02*
X115173900Y-102608000I0J-237500D01*
G01*
X115173900Y-103208000D01*
G75*
G02*
X114936400Y-103445500I-237500J0D01*
G01*
X114461400Y-103445500D01*
G75*
G02*
X114223900Y-103208000I0J237500D01*
G01*
X114223900Y-102608000D01*
G75*
G02*
X114461400Y-102370500I237500J0D01*
G01*
G37*
G36*
G01*
X116001400Y-102370500D02*
X116476400Y-102370500D01*
G75*
G02*
X116713900Y-102608000I0J-237500D01*
G01*
X116713900Y-103208000D01*
G75*
G02*
X116476400Y-103445500I-237500J0D01*
G01*
X116001400Y-103445500D01*
G75*
G02*
X115763900Y-103208000I0J237500D01*
G01*
X115763900Y-102608000D01*
G75*
G02*
X116001400Y-102370500I237500J0D01*
G01*
G37*
G36*
G01*
X116001400Y-100645500D02*
X116476400Y-100645500D01*
G75*
G02*
X116713900Y-100883000I0J-237500D01*
G01*
X116713900Y-101483000D01*
G75*
G02*
X116476400Y-101720500I-237500J0D01*
G01*
X116001400Y-101720500D01*
G75*
G02*
X115763900Y-101483000I0J237500D01*
G01*
X115763900Y-100883000D01*
G75*
G02*
X116001400Y-100645500I237500J0D01*
G01*
G37*
G36*
G01*
X114195000Y-145287500D02*
X113245000Y-145287500D01*
G75*
G02*
X112995000Y-145037500I0J250000D01*
G01*
X112995000Y-144362500D01*
G75*
G02*
X113245000Y-144112500I250000J0D01*
G01*
X114195000Y-144112500D01*
G75*
G02*
X114445000Y-144362500I0J-250000D01*
G01*
X114445000Y-145037500D01*
G75*
G02*
X114195000Y-145287500I-250000J0D01*
G01*
G37*
G36*
G01*
X114195000Y-143212500D02*
X113245000Y-143212500D01*
G75*
G02*
X112995000Y-142962500I0J250000D01*
G01*
X112995000Y-142287500D01*
G75*
G02*
X113245000Y-142037500I250000J0D01*
G01*
X114195000Y-142037500D01*
G75*
G02*
X114445000Y-142287500I0J-250000D01*
G01*
X114445000Y-142962500D01*
G75*
G02*
X114195000Y-143212500I-250000J0D01*
G01*
G37*
G36*
G01*
X110505000Y-143212500D02*
X109555000Y-143212500D01*
G75*
G02*
X109305000Y-142962500I0J250000D01*
G01*
X109305000Y-142287500D01*
G75*
G02*
X109555000Y-142037500I250000J0D01*
G01*
X110505000Y-142037500D01*
G75*
G02*
X110755000Y-142287500I0J-250000D01*
G01*
X110755000Y-142962500D01*
G75*
G02*
X110505000Y-143212500I-250000J0D01*
G01*
G37*
G36*
G01*
X110505000Y-145287500D02*
X109555000Y-145287500D01*
G75*
G02*
X109305000Y-145037500I0J250000D01*
G01*
X109305000Y-144362500D01*
G75*
G02*
X109555000Y-144112500I250000J0D01*
G01*
X110505000Y-144112500D01*
G75*
G02*
X110755000Y-144362500I0J-250000D01*
G01*
X110755000Y-145037500D01*
G75*
G02*
X110505000Y-145287500I-250000J0D01*
G01*
G37*
G36*
G01*
X133748600Y-98432600D02*
X133748600Y-99382600D01*
G75*
G02*
X133498600Y-99632600I-250000J0D01*
G01*
X132823600Y-99632600D01*
G75*
G02*
X132573600Y-99382600I0J250000D01*
G01*
X132573600Y-98432600D01*
G75*
G02*
X132823600Y-98182600I250000J0D01*
G01*
X133498600Y-98182600D01*
G75*
G02*
X133748600Y-98432600I0J-250000D01*
G01*
G37*
G36*
G01*
X131673600Y-98432600D02*
X131673600Y-99382600D01*
G75*
G02*
X131423600Y-99632600I-250000J0D01*
G01*
X130748600Y-99632600D01*
G75*
G02*
X130498600Y-99382600I0J250000D01*
G01*
X130498600Y-98432600D01*
G75*
G02*
X130748600Y-98182600I250000J0D01*
G01*
X131423600Y-98182600D01*
G75*
G02*
X131673600Y-98432600I0J-250000D01*
G01*
G37*
G36*
G01*
X131673600Y-100490000D02*
X131673600Y-101440000D01*
G75*
G02*
X131423600Y-101690000I-250000J0D01*
G01*
X130748600Y-101690000D01*
G75*
G02*
X130498600Y-101440000I0J250000D01*
G01*
X130498600Y-100490000D01*
G75*
G02*
X130748600Y-100240000I250000J0D01*
G01*
X131423600Y-100240000D01*
G75*
G02*
X131673600Y-100490000I0J-250000D01*
G01*
G37*
G36*
G01*
X133748600Y-100490000D02*
X133748600Y-101440000D01*
G75*
G02*
X133498600Y-101690000I-250000J0D01*
G01*
X132823600Y-101690000D01*
G75*
G02*
X132573600Y-101440000I0J250000D01*
G01*
X132573600Y-100490000D01*
G75*
G02*
X132823600Y-100240000I250000J0D01*
G01*
X133498600Y-100240000D01*
G75*
G02*
X133748600Y-100490000I0J-250000D01*
G01*
G37*
G36*
G01*
X121845500Y-51602601D02*
X121845500Y-50652601D01*
G75*
G02*
X122095500Y-50402601I250000J0D01*
G01*
X122770500Y-50402601D01*
G75*
G02*
X123020500Y-50652601I0J-250000D01*
G01*
X123020500Y-51602601D01*
G75*
G02*
X122770500Y-51852601I-250000J0D01*
G01*
X122095500Y-51852601D01*
G75*
G02*
X121845500Y-51602601I0J250000D01*
G01*
G37*
G36*
G01*
X123920500Y-51602601D02*
X123920500Y-50652601D01*
G75*
G02*
X124170500Y-50402601I250000J0D01*
G01*
X124845500Y-50402601D01*
G75*
G02*
X125095500Y-50652601I0J-250000D01*
G01*
X125095500Y-51602601D01*
G75*
G02*
X124845500Y-51852601I-250000J0D01*
G01*
X124170500Y-51852601D01*
G75*
G02*
X123920500Y-51602601I0J250000D01*
G01*
G37*
G36*
G01*
X123920500Y-55897800D02*
X123920500Y-54947800D01*
G75*
G02*
X124170500Y-54697800I250000J0D01*
G01*
X124845500Y-54697800D01*
G75*
G02*
X125095500Y-54947800I0J-250000D01*
G01*
X125095500Y-55897800D01*
G75*
G02*
X124845500Y-56147800I-250000J0D01*
G01*
X124170500Y-56147800D01*
G75*
G02*
X123920500Y-55897800I0J250000D01*
G01*
G37*
G36*
G01*
X121845500Y-55897800D02*
X121845500Y-54947800D01*
G75*
G02*
X122095500Y-54697800I250000J0D01*
G01*
X122770500Y-54697800D01*
G75*
G02*
X123020500Y-54947800I0J-250000D01*
G01*
X123020500Y-55897800D01*
G75*
G02*
X122770500Y-56147800I-250000J0D01*
G01*
X122095500Y-56147800D01*
G75*
G02*
X121845500Y-55897800I0J250000D01*
G01*
G37*
G36*
G01*
X121845500Y-53764200D02*
X121845500Y-52814200D01*
G75*
G02*
X122095500Y-52564200I250000J0D01*
G01*
X122770500Y-52564200D01*
G75*
G02*
X123020500Y-52814200I0J-250000D01*
G01*
X123020500Y-53764200D01*
G75*
G02*
X122770500Y-54014200I-250000J0D01*
G01*
X122095500Y-54014200D01*
G75*
G02*
X121845500Y-53764200I0J250000D01*
G01*
G37*
G36*
G01*
X123920500Y-53764200D02*
X123920500Y-52814200D01*
G75*
G02*
X124170500Y-52564200I250000J0D01*
G01*
X124845500Y-52564200D01*
G75*
G02*
X125095500Y-52814200I0J-250000D01*
G01*
X125095500Y-53764200D01*
G75*
G02*
X124845500Y-54014200I-250000J0D01*
G01*
X124170500Y-54014200D01*
G75*
G02*
X123920500Y-53764200I0J250000D01*
G01*
G37*
G36*
G01*
X131568600Y-110049300D02*
X131568600Y-110524300D01*
G75*
G02*
X131331100Y-110761800I-237500J0D01*
G01*
X130731100Y-110761800D01*
G75*
G02*
X130493600Y-110524300I0J237500D01*
G01*
X130493600Y-110049300D01*
G75*
G02*
X130731100Y-109811800I237500J0D01*
G01*
X131331100Y-109811800D01*
G75*
G02*
X131568600Y-110049300I0J-237500D01*
G01*
G37*
G36*
G01*
X133293600Y-110049300D02*
X133293600Y-110524300D01*
G75*
G02*
X133056100Y-110761800I-237500J0D01*
G01*
X132456100Y-110761800D01*
G75*
G02*
X132218600Y-110524300I0J237500D01*
G01*
X132218600Y-110049300D01*
G75*
G02*
X132456100Y-109811800I237500J0D01*
G01*
X133056100Y-109811800D01*
G75*
G02*
X133293600Y-110049300I0J-237500D01*
G01*
G37*
G36*
G01*
X111070900Y-110965000D02*
X111070900Y-110015000D01*
G75*
G02*
X111320900Y-109765000I250000J0D01*
G01*
X111995900Y-109765000D01*
G75*
G02*
X112245900Y-110015000I0J-250000D01*
G01*
X112245900Y-110965000D01*
G75*
G02*
X111995900Y-111215000I-250000J0D01*
G01*
X111320900Y-111215000D01*
G75*
G02*
X111070900Y-110965000I0J250000D01*
G01*
G37*
G36*
G01*
X108995900Y-110965000D02*
X108995900Y-110015000D01*
G75*
G02*
X109245900Y-109765000I250000J0D01*
G01*
X109920900Y-109765000D01*
G75*
G02*
X110170900Y-110015000I0J-250000D01*
G01*
X110170900Y-110965000D01*
G75*
G02*
X109920900Y-111215000I-250000J0D01*
G01*
X109245900Y-111215000D01*
G75*
G02*
X108995900Y-110965000I0J250000D01*
G01*
G37*
G36*
G01*
X121053000Y-54947800D02*
X121053000Y-55897800D01*
G75*
G02*
X120803000Y-56147800I-250000J0D01*
G01*
X120128000Y-56147800D01*
G75*
G02*
X119878000Y-55897800I0J250000D01*
G01*
X119878000Y-54947800D01*
G75*
G02*
X120128000Y-54697800I250000J0D01*
G01*
X120803000Y-54697800D01*
G75*
G02*
X121053000Y-54947800I0J-250000D01*
G01*
G37*
G36*
G01*
X118978000Y-54947800D02*
X118978000Y-55897800D01*
G75*
G02*
X118728000Y-56147800I-250000J0D01*
G01*
X118053000Y-56147800D01*
G75*
G02*
X117803000Y-55897800I0J250000D01*
G01*
X117803000Y-54947800D01*
G75*
G02*
X118053000Y-54697800I250000J0D01*
G01*
X118728000Y-54697800D01*
G75*
G02*
X118978000Y-54947800I0J-250000D01*
G01*
G37*
G36*
G01*
X121053000Y-52814200D02*
X121053000Y-53764200D01*
G75*
G02*
X120803000Y-54014200I-250000J0D01*
G01*
X120128000Y-54014200D01*
G75*
G02*
X119878000Y-53764200I0J250000D01*
G01*
X119878000Y-52814200D01*
G75*
G02*
X120128000Y-52564200I250000J0D01*
G01*
X120803000Y-52564200D01*
G75*
G02*
X121053000Y-52814200I0J-250000D01*
G01*
G37*
G36*
G01*
X118978000Y-52814200D02*
X118978000Y-53764200D01*
G75*
G02*
X118728000Y-54014200I-250000J0D01*
G01*
X118053000Y-54014200D01*
G75*
G02*
X117803000Y-53764200I0J250000D01*
G01*
X117803000Y-52814200D01*
G75*
G02*
X118053000Y-52564200I250000J0D01*
G01*
X118728000Y-52564200D01*
G75*
G02*
X118978000Y-52814200I0J-250000D01*
G01*
G37*
G36*
G01*
X109445600Y-101420500D02*
X109445600Y-100945500D01*
G75*
G02*
X109683100Y-100708000I237500J0D01*
G01*
X110283100Y-100708000D01*
G75*
G02*
X110520600Y-100945500I0J-237500D01*
G01*
X110520600Y-101420500D01*
G75*
G02*
X110283100Y-101658000I-237500J0D01*
G01*
X109683100Y-101658000D01*
G75*
G02*
X109445600Y-101420500I0J237500D01*
G01*
G37*
G36*
G01*
X111170600Y-101420500D02*
X111170600Y-100945500D01*
G75*
G02*
X111408100Y-100708000I237500J0D01*
G01*
X112008100Y-100708000D01*
G75*
G02*
X112245600Y-100945500I0J-237500D01*
G01*
X112245600Y-101420500D01*
G75*
G02*
X112008100Y-101658000I-237500J0D01*
G01*
X111408100Y-101658000D01*
G75*
G02*
X111170600Y-101420500I0J237500D01*
G01*
G37*
G36*
G01*
X118978000Y-50652601D02*
X118978000Y-51602601D01*
G75*
G02*
X118728000Y-51852601I-250000J0D01*
G01*
X118053000Y-51852601D01*
G75*
G02*
X117803000Y-51602601I0J250000D01*
G01*
X117803000Y-50652601D01*
G75*
G02*
X118053000Y-50402601I250000J0D01*
G01*
X118728000Y-50402601D01*
G75*
G02*
X118978000Y-50652601I0J-250000D01*
G01*
G37*
G36*
G01*
X121053000Y-50652601D02*
X121053000Y-51602601D01*
G75*
G02*
X120803000Y-51852601I-250000J0D01*
G01*
X120128000Y-51852601D01*
G75*
G02*
X119878000Y-51602601I0J250000D01*
G01*
X119878000Y-50652601D01*
G75*
G02*
X120128000Y-50402601I250000J0D01*
G01*
X120803000Y-50402601D01*
G75*
G02*
X121053000Y-50652601I0J-250000D01*
G01*
G37*
G36*
G01*
X134023200Y-137657500D02*
X134023200Y-137182500D01*
G75*
G02*
X134260700Y-136945000I237500J0D01*
G01*
X134860700Y-136945000D01*
G75*
G02*
X135098200Y-137182500I0J-237500D01*
G01*
X135098200Y-137657500D01*
G75*
G02*
X134860700Y-137895000I-237500J0D01*
G01*
X134260700Y-137895000D01*
G75*
G02*
X134023200Y-137657500I0J237500D01*
G01*
G37*
G36*
G01*
X132298200Y-137657500D02*
X132298200Y-137182500D01*
G75*
G02*
X132535700Y-136945000I237500J0D01*
G01*
X133135700Y-136945000D01*
G75*
G02*
X133373200Y-137182500I0J-237500D01*
G01*
X133373200Y-137657500D01*
G75*
G02*
X133135700Y-137895000I-237500J0D01*
G01*
X132535700Y-137895000D01*
G75*
G02*
X132298200Y-137657500I0J237500D01*
G01*
G37*
G36*
G01*
X134331700Y-68351800D02*
X134806700Y-68351800D01*
G75*
G02*
X135044200Y-68589300I0J-237500D01*
G01*
X135044200Y-69189300D01*
G75*
G02*
X134806700Y-69426800I-237500J0D01*
G01*
X134331700Y-69426800D01*
G75*
G02*
X134094200Y-69189300I0J237500D01*
G01*
X134094200Y-68589300D01*
G75*
G02*
X134331700Y-68351800I237500J0D01*
G01*
G37*
G36*
G01*
X134331700Y-66626800D02*
X134806700Y-66626800D01*
G75*
G02*
X135044200Y-66864300I0J-237500D01*
G01*
X135044200Y-67464300D01*
G75*
G02*
X134806700Y-67701800I-237500J0D01*
G01*
X134331700Y-67701800D01*
G75*
G02*
X134094200Y-67464300I0J237500D01*
G01*
X134094200Y-66864300D01*
G75*
G02*
X134331700Y-66626800I237500J0D01*
G01*
G37*
D10*
X140740000Y-53644800D03*
X131940000Y-53644800D03*
X131940000Y-60604400D03*
X140740000Y-60604400D03*
D11*
X117814400Y-105368000D03*
X119814400Y-104418000D03*
X119814400Y-106318000D03*
D12*
X121424400Y-106418000D03*
X123324400Y-106418000D03*
X122374400Y-104418000D03*
G36*
G01*
X119368201Y-144280000D02*
X118468199Y-144280000D01*
G75*
G02*
X118218200Y-144030001I0J249999D01*
G01*
X118218200Y-143329999D01*
G75*
G02*
X118468199Y-143080000I249999J0D01*
G01*
X119368201Y-143080000D01*
G75*
G02*
X119618200Y-143329999I0J-249999D01*
G01*
X119618200Y-144030001D01*
G75*
G02*
X119368201Y-144280000I-249999J0D01*
G01*
G37*
G36*
G01*
X119368201Y-146280000D02*
X118468199Y-146280000D01*
G75*
G02*
X118218200Y-146030001I0J249999D01*
G01*
X118218200Y-145329999D01*
G75*
G02*
X118468199Y-145080000I249999J0D01*
G01*
X119368201Y-145080000D01*
G75*
G02*
X119618200Y-145329999I0J-249999D01*
G01*
X119618200Y-146030001D01*
G75*
G02*
X119368201Y-146280000I-249999J0D01*
G01*
G37*
G36*
G01*
X121330001Y-144280000D02*
X120429999Y-144280000D01*
G75*
G02*
X120180000Y-144030001I0J249999D01*
G01*
X120180000Y-143329999D01*
G75*
G02*
X120429999Y-143080000I249999J0D01*
G01*
X121330001Y-143080000D01*
G75*
G02*
X121580000Y-143329999I0J-249999D01*
G01*
X121580000Y-144030001D01*
G75*
G02*
X121330001Y-144280000I-249999J0D01*
G01*
G37*
G36*
G01*
X121330001Y-146280000D02*
X120429999Y-146280000D01*
G75*
G02*
X120180000Y-146030001I0J249999D01*
G01*
X120180000Y-145329999D01*
G75*
G02*
X120429999Y-145080000I249999J0D01*
G01*
X121330001Y-145080000D01*
G75*
G02*
X121580000Y-145329999I0J-249999D01*
G01*
X121580000Y-146030001D01*
G75*
G02*
X121330001Y-146280000I-249999J0D01*
G01*
G37*
G36*
G01*
X116320000Y-136070001D02*
X116320000Y-135169999D01*
G75*
G02*
X116569999Y-134920000I249999J0D01*
G01*
X117270001Y-134920000D01*
G75*
G02*
X117520000Y-135169999I0J-249999D01*
G01*
X117520000Y-136070001D01*
G75*
G02*
X117270001Y-136320000I-249999J0D01*
G01*
X116569999Y-136320000D01*
G75*
G02*
X116320000Y-136070001I0J249999D01*
G01*
G37*
G36*
G01*
X118320000Y-136070001D02*
X118320000Y-135169999D01*
G75*
G02*
X118569999Y-134920000I249999J0D01*
G01*
X119270001Y-134920000D01*
G75*
G02*
X119520000Y-135169999I0J-249999D01*
G01*
X119520000Y-136070001D01*
G75*
G02*
X119270001Y-136320000I-249999J0D01*
G01*
X118569999Y-136320000D01*
G75*
G02*
X118320000Y-136070001I0J249999D01*
G01*
G37*
G36*
G01*
X118280000Y-130470001D02*
X118280000Y-129569999D01*
G75*
G02*
X118529999Y-129320000I249999J0D01*
G01*
X119230001Y-129320000D01*
G75*
G02*
X119480000Y-129569999I0J-249999D01*
G01*
X119480000Y-130470001D01*
G75*
G02*
X119230001Y-130720000I-249999J0D01*
G01*
X118529999Y-130720000D01*
G75*
G02*
X118280000Y-130470001I0J249999D01*
G01*
G37*
G36*
G01*
X120280000Y-130470001D02*
X120280000Y-129569999D01*
G75*
G02*
X120529999Y-129320000I249999J0D01*
G01*
X121230001Y-129320000D01*
G75*
G02*
X121480000Y-129569999I0J-249999D01*
G01*
X121480000Y-130470001D01*
G75*
G02*
X121230001Y-130720000I-249999J0D01*
G01*
X120529999Y-130720000D01*
G75*
G02*
X120280000Y-130470001I0J249999D01*
G01*
G37*
G36*
G01*
X113003751Y-116805000D02*
X112103749Y-116805000D01*
G75*
G02*
X111853750Y-116555001I0J249999D01*
G01*
X111853750Y-115854999D01*
G75*
G02*
X112103749Y-115605000I249999J0D01*
G01*
X113003751Y-115605000D01*
G75*
G02*
X113253750Y-115854999I0J-249999D01*
G01*
X113253750Y-116555001D01*
G75*
G02*
X113003751Y-116805000I-249999J0D01*
G01*
G37*
G36*
G01*
X113003751Y-118805000D02*
X112103749Y-118805000D01*
G75*
G02*
X111853750Y-118555001I0J249999D01*
G01*
X111853750Y-117854999D01*
G75*
G02*
X112103749Y-117605000I249999J0D01*
G01*
X113003751Y-117605000D01*
G75*
G02*
X113253750Y-117854999I0J-249999D01*
G01*
X113253750Y-118555001D01*
G75*
G02*
X113003751Y-118805000I-249999J0D01*
G01*
G37*
G36*
G01*
X127450800Y-115207201D02*
X127450800Y-114307199D01*
G75*
G02*
X127700799Y-114057200I249999J0D01*
G01*
X128400801Y-114057200D01*
G75*
G02*
X128650800Y-114307199I0J-249999D01*
G01*
X128650800Y-115207201D01*
G75*
G02*
X128400801Y-115457200I-249999J0D01*
G01*
X127700799Y-115457200D01*
G75*
G02*
X127450800Y-115207201I0J249999D01*
G01*
G37*
G36*
G01*
X125450800Y-115207201D02*
X125450800Y-114307199D01*
G75*
G02*
X125700799Y-114057200I249999J0D01*
G01*
X126400801Y-114057200D01*
G75*
G02*
X126650800Y-114307199I0J-249999D01*
G01*
X126650800Y-115207201D01*
G75*
G02*
X126400801Y-115457200I-249999J0D01*
G01*
X125700799Y-115457200D01*
G75*
G02*
X125450800Y-115207201I0J249999D01*
G01*
G37*
G36*
G01*
X132530001Y-117760800D02*
X131629999Y-117760800D01*
G75*
G02*
X131380000Y-117510801I0J249999D01*
G01*
X131380000Y-116810799D01*
G75*
G02*
X131629999Y-116560800I249999J0D01*
G01*
X132530001Y-116560800D01*
G75*
G02*
X132780000Y-116810799I0J-249999D01*
G01*
X132780000Y-117510801D01*
G75*
G02*
X132530001Y-117760800I-249999J0D01*
G01*
G37*
G36*
G01*
X132530001Y-119760800D02*
X131629999Y-119760800D01*
G75*
G02*
X131380000Y-119510801I0J249999D01*
G01*
X131380000Y-118810799D01*
G75*
G02*
X131629999Y-118560800I249999J0D01*
G01*
X132530001Y-118560800D01*
G75*
G02*
X132780000Y-118810799I0J-249999D01*
G01*
X132780000Y-119510801D01*
G75*
G02*
X132530001Y-119760800I-249999J0D01*
G01*
G37*
G36*
G01*
X116961749Y-116104500D02*
X117861751Y-116104500D01*
G75*
G02*
X118111750Y-116354499I0J-249999D01*
G01*
X118111750Y-117054501D01*
G75*
G02*
X117861751Y-117304500I-249999J0D01*
G01*
X116961749Y-117304500D01*
G75*
G02*
X116711750Y-117054501I0J249999D01*
G01*
X116711750Y-116354499D01*
G75*
G02*
X116961749Y-116104500I249999J0D01*
G01*
G37*
G36*
G01*
X116961749Y-118104500D02*
X117861751Y-118104500D01*
G75*
G02*
X118111750Y-118354499I0J-249999D01*
G01*
X118111750Y-119054501D01*
G75*
G02*
X117861751Y-119304500I-249999J0D01*
G01*
X116961749Y-119304500D01*
G75*
G02*
X116711750Y-119054501I0J249999D01*
G01*
X116711750Y-118354499D01*
G75*
G02*
X116961749Y-118104500I249999J0D01*
G01*
G37*
G36*
G01*
X126575149Y-116589500D02*
X127475151Y-116589500D01*
G75*
G02*
X127725150Y-116839499I0J-249999D01*
G01*
X127725150Y-117539501D01*
G75*
G02*
X127475151Y-117789500I-249999J0D01*
G01*
X126575149Y-117789500D01*
G75*
G02*
X126325150Y-117539501I0J249999D01*
G01*
X126325150Y-116839499D01*
G75*
G02*
X126575149Y-116589500I249999J0D01*
G01*
G37*
G36*
G01*
X126575149Y-118589500D02*
X127475151Y-118589500D01*
G75*
G02*
X127725150Y-118839499I0J-249999D01*
G01*
X127725150Y-119539501D01*
G75*
G02*
X127475151Y-119789500I-249999J0D01*
G01*
X126575149Y-119789500D01*
G75*
G02*
X126325150Y-119539501I0J249999D01*
G01*
X126325150Y-118839499D01*
G75*
G02*
X126575149Y-118589500I249999J0D01*
G01*
G37*
G36*
G01*
X117464400Y-112375500D02*
X117464400Y-111900500D01*
G75*
G02*
X117701900Y-111663000I237500J0D01*
G01*
X118201900Y-111663000D01*
G75*
G02*
X118439400Y-111900500I0J-237500D01*
G01*
X118439400Y-112375500D01*
G75*
G02*
X118201900Y-112613000I-237500J0D01*
G01*
X117701900Y-112613000D01*
G75*
G02*
X117464400Y-112375500I0J237500D01*
G01*
G37*
G36*
G01*
X119289400Y-112375500D02*
X119289400Y-111900500D01*
G75*
G02*
X119526900Y-111663000I237500J0D01*
G01*
X120026900Y-111663000D01*
G75*
G02*
X120264400Y-111900500I0J-237500D01*
G01*
X120264400Y-112375500D01*
G75*
G02*
X120026900Y-112613000I-237500J0D01*
G01*
X119526900Y-112613000D01*
G75*
G02*
X119289400Y-112375500I0J237500D01*
G01*
G37*
G36*
G01*
X125809400Y-109290500D02*
X125809400Y-109765500D01*
G75*
G02*
X125571900Y-110003000I-237500J0D01*
G01*
X125071900Y-110003000D01*
G75*
G02*
X124834400Y-109765500I0J237500D01*
G01*
X124834400Y-109290500D01*
G75*
G02*
X125071900Y-109053000I237500J0D01*
G01*
X125571900Y-109053000D01*
G75*
G02*
X125809400Y-109290500I0J-237500D01*
G01*
G37*
G36*
G01*
X127634400Y-109290500D02*
X127634400Y-109765500D01*
G75*
G02*
X127396900Y-110003000I-237500J0D01*
G01*
X126896900Y-110003000D01*
G75*
G02*
X126659400Y-109765500I0J237500D01*
G01*
X126659400Y-109290500D01*
G75*
G02*
X126896900Y-109053000I237500J0D01*
G01*
X127396900Y-109053000D01*
G75*
G02*
X127634400Y-109290500I0J-237500D01*
G01*
G37*
G36*
G01*
X116026900Y-109693000D02*
X116501900Y-109693000D01*
G75*
G02*
X116739400Y-109930500I0J-237500D01*
G01*
X116739400Y-110430500D01*
G75*
G02*
X116501900Y-110668000I-237500J0D01*
G01*
X116026900Y-110668000D01*
G75*
G02*
X115789400Y-110430500I0J237500D01*
G01*
X115789400Y-109930500D01*
G75*
G02*
X116026900Y-109693000I237500J0D01*
G01*
G37*
G36*
G01*
X116026900Y-107868000D02*
X116501900Y-107868000D01*
G75*
G02*
X116739400Y-108105500I0J-237500D01*
G01*
X116739400Y-108605500D01*
G75*
G02*
X116501900Y-108843000I-237500J0D01*
G01*
X116026900Y-108843000D01*
G75*
G02*
X115789400Y-108605500I0J237500D01*
G01*
X115789400Y-108105500D01*
G75*
G02*
X116026900Y-107868000I237500J0D01*
G01*
G37*
G36*
G01*
X124834400Y-108225500D02*
X124834400Y-107750500D01*
G75*
G02*
X125071900Y-107513000I237500J0D01*
G01*
X125571900Y-107513000D01*
G75*
G02*
X125809400Y-107750500I0J-237500D01*
G01*
X125809400Y-108225500D01*
G75*
G02*
X125571900Y-108463000I-237500J0D01*
G01*
X125071900Y-108463000D01*
G75*
G02*
X124834400Y-108225500I0J237500D01*
G01*
G37*
G36*
G01*
X126659400Y-108225500D02*
X126659400Y-107750500D01*
G75*
G02*
X126896900Y-107513000I237500J0D01*
G01*
X127396900Y-107513000D01*
G75*
G02*
X127634400Y-107750500I0J-237500D01*
G01*
X127634400Y-108225500D01*
G75*
G02*
X127396900Y-108463000I-237500J0D01*
G01*
X126896900Y-108463000D01*
G75*
G02*
X126659400Y-108225500I0J237500D01*
G01*
G37*
G36*
G01*
X122765000Y-98720900D02*
X122765000Y-99195900D01*
G75*
G02*
X122527500Y-99433400I-237500J0D01*
G01*
X122027500Y-99433400D01*
G75*
G02*
X121790000Y-99195900I0J237500D01*
G01*
X121790000Y-98720900D01*
G75*
G02*
X122027500Y-98483400I237500J0D01*
G01*
X122527500Y-98483400D01*
G75*
G02*
X122765000Y-98720900I0J-237500D01*
G01*
G37*
G36*
G01*
X124590000Y-98720900D02*
X124590000Y-99195900D01*
G75*
G02*
X124352500Y-99433400I-237500J0D01*
G01*
X123852500Y-99433400D01*
G75*
G02*
X123615000Y-99195900I0J237500D01*
G01*
X123615000Y-98720900D01*
G75*
G02*
X123852500Y-98483400I237500J0D01*
G01*
X124352500Y-98483400D01*
G75*
G02*
X124590000Y-98720900I0J-237500D01*
G01*
G37*
G36*
G01*
X120998401Y-99440800D02*
X120098399Y-99440800D01*
G75*
G02*
X119848400Y-99190801I0J249999D01*
G01*
X119848400Y-98490799D01*
G75*
G02*
X120098399Y-98240800I249999J0D01*
G01*
X120998401Y-98240800D01*
G75*
G02*
X121248400Y-98490799I0J-249999D01*
G01*
X121248400Y-99190801D01*
G75*
G02*
X120998401Y-99440800I-249999J0D01*
G01*
G37*
G36*
G01*
X120998401Y-97440800D02*
X120098399Y-97440800D01*
G75*
G02*
X119848400Y-97190801I0J249999D01*
G01*
X119848400Y-96490799D01*
G75*
G02*
X120098399Y-96240800I249999J0D01*
G01*
X120998401Y-96240800D01*
G75*
G02*
X121248400Y-96490799I0J-249999D01*
G01*
X121248400Y-97190801D01*
G75*
G02*
X120998401Y-97440800I-249999J0D01*
G01*
G37*
G36*
G01*
X112097500Y-145292500D02*
X111622500Y-145292500D01*
G75*
G02*
X111385000Y-145055000I0J237500D01*
G01*
X111385000Y-144555000D01*
G75*
G02*
X111622500Y-144317500I237500J0D01*
G01*
X112097500Y-144317500D01*
G75*
G02*
X112335000Y-144555000I0J-237500D01*
G01*
X112335000Y-145055000D01*
G75*
G02*
X112097500Y-145292500I-237500J0D01*
G01*
G37*
G36*
G01*
X112097500Y-143467500D02*
X111622500Y-143467500D01*
G75*
G02*
X111385000Y-143230000I0J237500D01*
G01*
X111385000Y-142730000D01*
G75*
G02*
X111622500Y-142492500I237500J0D01*
G01*
X112097500Y-142492500D01*
G75*
G02*
X112335000Y-142730000I0J-237500D01*
G01*
X112335000Y-143230000D01*
G75*
G02*
X112097500Y-143467500I-237500J0D01*
G01*
G37*
G36*
G01*
X107962500Y-144317500D02*
X108437500Y-144317500D01*
G75*
G02*
X108675000Y-144555000I0J-237500D01*
G01*
X108675000Y-145055000D01*
G75*
G02*
X108437500Y-145292500I-237500J0D01*
G01*
X107962500Y-145292500D01*
G75*
G02*
X107725000Y-145055000I0J237500D01*
G01*
X107725000Y-144555000D01*
G75*
G02*
X107962500Y-144317500I237500J0D01*
G01*
G37*
G36*
G01*
X107962500Y-142492500D02*
X108437500Y-142492500D01*
G75*
G02*
X108675000Y-142730000I0J-237500D01*
G01*
X108675000Y-143230000D01*
G75*
G02*
X108437500Y-143467500I-237500J0D01*
G01*
X107962500Y-143467500D01*
G75*
G02*
X107725000Y-143230000I0J237500D01*
G01*
X107725000Y-142730000D01*
G75*
G02*
X107962500Y-142492500I237500J0D01*
G01*
G37*
G36*
G01*
X111065300Y-155546600D02*
X111540300Y-155546600D01*
G75*
G02*
X111777800Y-155784100I0J-237500D01*
G01*
X111777800Y-156284100D01*
G75*
G02*
X111540300Y-156521600I-237500J0D01*
G01*
X111065300Y-156521600D01*
G75*
G02*
X110827800Y-156284100I0J237500D01*
G01*
X110827800Y-155784100D01*
G75*
G02*
X111065300Y-155546600I237500J0D01*
G01*
G37*
G36*
G01*
X111065300Y-157371600D02*
X111540300Y-157371600D01*
G75*
G02*
X111777800Y-157609100I0J-237500D01*
G01*
X111777800Y-158109100D01*
G75*
G02*
X111540300Y-158346600I-237500J0D01*
G01*
X111065300Y-158346600D01*
G75*
G02*
X110827800Y-158109100I0J237500D01*
G01*
X110827800Y-157609100D01*
G75*
G02*
X111065300Y-157371600I237500J0D01*
G01*
G37*
G36*
G01*
X108525300Y-157371600D02*
X109000300Y-157371600D01*
G75*
G02*
X109237800Y-157609100I0J-237500D01*
G01*
X109237800Y-158109100D01*
G75*
G02*
X109000300Y-158346600I-237500J0D01*
G01*
X108525300Y-158346600D01*
G75*
G02*
X108287800Y-158109100I0J237500D01*
G01*
X108287800Y-157609100D01*
G75*
G02*
X108525300Y-157371600I237500J0D01*
G01*
G37*
G36*
G01*
X108525300Y-155546600D02*
X109000300Y-155546600D01*
G75*
G02*
X109237800Y-155784100I0J-237500D01*
G01*
X109237800Y-156284100D01*
G75*
G02*
X109000300Y-156521600I-237500J0D01*
G01*
X108525300Y-156521600D01*
G75*
G02*
X108287800Y-156284100I0J237500D01*
G01*
X108287800Y-155784100D01*
G75*
G02*
X108525300Y-155546600I237500J0D01*
G01*
G37*
G36*
G01*
X144288500Y-155546600D02*
X144763500Y-155546600D01*
G75*
G02*
X145001000Y-155784100I0J-237500D01*
G01*
X145001000Y-156284100D01*
G75*
G02*
X144763500Y-156521600I-237500J0D01*
G01*
X144288500Y-156521600D01*
G75*
G02*
X144051000Y-156284100I0J237500D01*
G01*
X144051000Y-155784100D01*
G75*
G02*
X144288500Y-155546600I237500J0D01*
G01*
G37*
G36*
G01*
X144288500Y-157371600D02*
X144763500Y-157371600D01*
G75*
G02*
X145001000Y-157609100I0J-237500D01*
G01*
X145001000Y-158109100D01*
G75*
G02*
X144763500Y-158346600I-237500J0D01*
G01*
X144288500Y-158346600D01*
G75*
G02*
X144051000Y-158109100I0J237500D01*
G01*
X144051000Y-157609100D01*
G75*
G02*
X144288500Y-157371600I237500J0D01*
G01*
G37*
G36*
G01*
X141748500Y-157371600D02*
X142223500Y-157371600D01*
G75*
G02*
X142461000Y-157609100I0J-237500D01*
G01*
X142461000Y-158109100D01*
G75*
G02*
X142223500Y-158346600I-237500J0D01*
G01*
X141748500Y-158346600D01*
G75*
G02*
X141511000Y-158109100I0J237500D01*
G01*
X141511000Y-157609100D01*
G75*
G02*
X141748500Y-157371600I237500J0D01*
G01*
G37*
G36*
G01*
X141748500Y-155546600D02*
X142223500Y-155546600D01*
G75*
G02*
X142461000Y-155784100I0J-237500D01*
G01*
X142461000Y-156284100D01*
G75*
G02*
X142223500Y-156521600I-237500J0D01*
G01*
X141748500Y-156521600D01*
G75*
G02*
X141511000Y-156284100I0J237500D01*
G01*
X141511000Y-155784100D01*
G75*
G02*
X141748500Y-155546600I237500J0D01*
G01*
G37*
G36*
G01*
X135810000Y-148250001D02*
X135810000Y-147349999D01*
G75*
G02*
X136059999Y-147100000I249999J0D01*
G01*
X136760001Y-147100000D01*
G75*
G02*
X137010000Y-147349999I0J-249999D01*
G01*
X137010000Y-148250001D01*
G75*
G02*
X136760001Y-148500000I-249999J0D01*
G01*
X136059999Y-148500000D01*
G75*
G02*
X135810000Y-148250001I0J249999D01*
G01*
G37*
G36*
G01*
X133810000Y-148250001D02*
X133810000Y-147349999D01*
G75*
G02*
X134059999Y-147100000I249999J0D01*
G01*
X134760001Y-147100000D01*
G75*
G02*
X135010000Y-147349999I0J-249999D01*
G01*
X135010000Y-148250001D01*
G75*
G02*
X134760001Y-148500000I-249999J0D01*
G01*
X134059999Y-148500000D01*
G75*
G02*
X133810000Y-148250001I0J249999D01*
G01*
G37*
G36*
G01*
X116200001Y-145300000D02*
X115299999Y-145300000D01*
G75*
G02*
X115050000Y-145050001I0J249999D01*
G01*
X115050000Y-144349999D01*
G75*
G02*
X115299999Y-144100000I249999J0D01*
G01*
X116200001Y-144100000D01*
G75*
G02*
X116450000Y-144349999I0J-249999D01*
G01*
X116450000Y-145050001D01*
G75*
G02*
X116200001Y-145300000I-249999J0D01*
G01*
G37*
G36*
G01*
X116200001Y-143300000D02*
X115299999Y-143300000D01*
G75*
G02*
X115050000Y-143050001I0J249999D01*
G01*
X115050000Y-142349999D01*
G75*
G02*
X115299999Y-142100000I249999J0D01*
G01*
X116200001Y-142100000D01*
G75*
G02*
X116450000Y-142349999I0J-249999D01*
G01*
X116450000Y-143050001D01*
G75*
G02*
X116200001Y-143300000I-249999J0D01*
G01*
G37*
G36*
G01*
X140840001Y-143750000D02*
X139939999Y-143750000D01*
G75*
G02*
X139690000Y-143500001I0J249999D01*
G01*
X139690000Y-142799999D01*
G75*
G02*
X139939999Y-142550000I249999J0D01*
G01*
X140840001Y-142550000D01*
G75*
G02*
X141090000Y-142799999I0J-249999D01*
G01*
X141090000Y-143500001D01*
G75*
G02*
X140840001Y-143750000I-249999J0D01*
G01*
G37*
G36*
G01*
X140840001Y-141750000D02*
X139939999Y-141750000D01*
G75*
G02*
X139690000Y-141500001I0J249999D01*
G01*
X139690000Y-140799999D01*
G75*
G02*
X139939999Y-140550000I249999J0D01*
G01*
X140840001Y-140550000D01*
G75*
G02*
X141090000Y-140799999I0J-249999D01*
G01*
X141090000Y-141500001D01*
G75*
G02*
X140840001Y-141750000I-249999J0D01*
G01*
G37*
G36*
G01*
X126449999Y-142240000D02*
X127350001Y-142240000D01*
G75*
G02*
X127600000Y-142489999I0J-249999D01*
G01*
X127600000Y-143190001D01*
G75*
G02*
X127350001Y-143440000I-249999J0D01*
G01*
X126449999Y-143440000D01*
G75*
G02*
X126200000Y-143190001I0J249999D01*
G01*
X126200000Y-142489999D01*
G75*
G02*
X126449999Y-142240000I249999J0D01*
G01*
G37*
G36*
G01*
X126449999Y-144240000D02*
X127350001Y-144240000D01*
G75*
G02*
X127600000Y-144489999I0J-249999D01*
G01*
X127600000Y-145190001D01*
G75*
G02*
X127350001Y-145440000I-249999J0D01*
G01*
X126449999Y-145440000D01*
G75*
G02*
X126200000Y-145190001I0J249999D01*
G01*
X126200000Y-144489999D01*
G75*
G02*
X126449999Y-144240000I249999J0D01*
G01*
G37*
G36*
G01*
X136850001Y-142680000D02*
X135949999Y-142680000D01*
G75*
G02*
X135700000Y-142430001I0J249999D01*
G01*
X135700000Y-141729999D01*
G75*
G02*
X135949999Y-141480000I249999J0D01*
G01*
X136850001Y-141480000D01*
G75*
G02*
X137100000Y-141729999I0J-249999D01*
G01*
X137100000Y-142430001D01*
G75*
G02*
X136850001Y-142680000I-249999J0D01*
G01*
G37*
G36*
G01*
X136850001Y-140680000D02*
X135949999Y-140680000D01*
G75*
G02*
X135700000Y-140430001I0J249999D01*
G01*
X135700000Y-139729999D01*
G75*
G02*
X135949999Y-139480000I249999J0D01*
G01*
X136850001Y-139480000D01*
G75*
G02*
X137100000Y-139729999I0J-249999D01*
G01*
X137100000Y-140430001D01*
G75*
G02*
X136850001Y-140680000I-249999J0D01*
G01*
G37*
G36*
G01*
X127350001Y-139645000D02*
X126449999Y-139645000D01*
G75*
G02*
X126200000Y-139395001I0J249999D01*
G01*
X126200000Y-138694999D01*
G75*
G02*
X126449999Y-138445000I249999J0D01*
G01*
X127350001Y-138445000D01*
G75*
G02*
X127600000Y-138694999I0J-249999D01*
G01*
X127600000Y-139395001D01*
G75*
G02*
X127350001Y-139645000I-249999J0D01*
G01*
G37*
G36*
G01*
X127350001Y-141645000D02*
X126449999Y-141645000D01*
G75*
G02*
X126200000Y-141395001I0J249999D01*
G01*
X126200000Y-140694999D01*
G75*
G02*
X126449999Y-140445000I249999J0D01*
G01*
X127350001Y-140445000D01*
G75*
G02*
X127600000Y-140694999I0J-249999D01*
G01*
X127600000Y-141395001D01*
G75*
G02*
X127350001Y-141645000I-249999J0D01*
G01*
G37*
G36*
G01*
X142147100Y-68952100D02*
X142147100Y-69427100D01*
G75*
G02*
X141909600Y-69664600I-237500J0D01*
G01*
X141409600Y-69664600D01*
G75*
G02*
X141172100Y-69427100I0J237500D01*
G01*
X141172100Y-68952100D01*
G75*
G02*
X141409600Y-68714600I237500J0D01*
G01*
X141909600Y-68714600D01*
G75*
G02*
X142147100Y-68952100I0J-237500D01*
G01*
G37*
G36*
G01*
X143972100Y-68952100D02*
X143972100Y-69427100D01*
G75*
G02*
X143734600Y-69664600I-237500J0D01*
G01*
X143234600Y-69664600D01*
G75*
G02*
X142997100Y-69427100I0J237500D01*
G01*
X142997100Y-68952100D01*
G75*
G02*
X143234600Y-68714600I237500J0D01*
G01*
X143734600Y-68714600D01*
G75*
G02*
X143972100Y-68952100I0J-237500D01*
G01*
G37*
G36*
G01*
X143972100Y-67377300D02*
X143972100Y-67852300D01*
G75*
G02*
X143734600Y-68089800I-237500J0D01*
G01*
X143234600Y-68089800D01*
G75*
G02*
X142997100Y-67852300I0J237500D01*
G01*
X142997100Y-67377300D01*
G75*
G02*
X143234600Y-67139800I237500J0D01*
G01*
X143734600Y-67139800D01*
G75*
G02*
X143972100Y-67377300I0J-237500D01*
G01*
G37*
G36*
G01*
X142147100Y-67377300D02*
X142147100Y-67852300D01*
G75*
G02*
X141909600Y-68089800I-237500J0D01*
G01*
X141409600Y-68089800D01*
G75*
G02*
X141172100Y-67852300I0J237500D01*
G01*
X141172100Y-67377300D01*
G75*
G02*
X141409600Y-67139800I237500J0D01*
G01*
X141909600Y-67139800D01*
G75*
G02*
X142147100Y-67377300I0J-237500D01*
G01*
G37*
G36*
G01*
X106024000Y-50315000D02*
X106024000Y-50015000D01*
G75*
G02*
X106174000Y-49865000I150000J0D01*
G01*
X107824000Y-49865000D01*
G75*
G02*
X107974000Y-50015000I0J-150000D01*
G01*
X107974000Y-50315000D01*
G75*
G02*
X107824000Y-50465000I-150000J0D01*
G01*
X106174000Y-50465000D01*
G75*
G02*
X106024000Y-50315000I0J150000D01*
G01*
G37*
G36*
G01*
X106024000Y-51585000D02*
X106024000Y-51285000D01*
G75*
G02*
X106174000Y-51135000I150000J0D01*
G01*
X107824000Y-51135000D01*
G75*
G02*
X107974000Y-51285000I0J-150000D01*
G01*
X107974000Y-51585000D01*
G75*
G02*
X107824000Y-51735000I-150000J0D01*
G01*
X106174000Y-51735000D01*
G75*
G02*
X106024000Y-51585000I0J150000D01*
G01*
G37*
G36*
G01*
X106024000Y-52855000D02*
X106024000Y-52555000D01*
G75*
G02*
X106174000Y-52405000I150000J0D01*
G01*
X107824000Y-52405000D01*
G75*
G02*
X107974000Y-52555000I0J-150000D01*
G01*
X107974000Y-52855000D01*
G75*
G02*
X107824000Y-53005000I-150000J0D01*
G01*
X106174000Y-53005000D01*
G75*
G02*
X106024000Y-52855000I0J150000D01*
G01*
G37*
G36*
G01*
X106024000Y-54125000D02*
X106024000Y-53825000D01*
G75*
G02*
X106174000Y-53675000I150000J0D01*
G01*
X107824000Y-53675000D01*
G75*
G02*
X107974000Y-53825000I0J-150000D01*
G01*
X107974000Y-54125000D01*
G75*
G02*
X107824000Y-54275000I-150000J0D01*
G01*
X106174000Y-54275000D01*
G75*
G02*
X106024000Y-54125000I0J150000D01*
G01*
G37*
G36*
G01*
X110974000Y-54125000D02*
X110974000Y-53825000D01*
G75*
G02*
X111124000Y-53675000I150000J0D01*
G01*
X112774000Y-53675000D01*
G75*
G02*
X112924000Y-53825000I0J-150000D01*
G01*
X112924000Y-54125000D01*
G75*
G02*
X112774000Y-54275000I-150000J0D01*
G01*
X111124000Y-54275000D01*
G75*
G02*
X110974000Y-54125000I0J150000D01*
G01*
G37*
G36*
G01*
X110974000Y-52855000D02*
X110974000Y-52555000D01*
G75*
G02*
X111124000Y-52405000I150000J0D01*
G01*
X112774000Y-52405000D01*
G75*
G02*
X112924000Y-52555000I0J-150000D01*
G01*
X112924000Y-52855000D01*
G75*
G02*
X112774000Y-53005000I-150000J0D01*
G01*
X111124000Y-53005000D01*
G75*
G02*
X110974000Y-52855000I0J150000D01*
G01*
G37*
G36*
G01*
X110974000Y-51585000D02*
X110974000Y-51285000D01*
G75*
G02*
X111124000Y-51135000I150000J0D01*
G01*
X112774000Y-51135000D01*
G75*
G02*
X112924000Y-51285000I0J-150000D01*
G01*
X112924000Y-51585000D01*
G75*
G02*
X112774000Y-51735000I-150000J0D01*
G01*
X111124000Y-51735000D01*
G75*
G02*
X110974000Y-51585000I0J150000D01*
G01*
G37*
G36*
G01*
X110974000Y-50315000D02*
X110974000Y-50015000D01*
G75*
G02*
X111124000Y-49865000I150000J0D01*
G01*
X112774000Y-49865000D01*
G75*
G02*
X112924000Y-50015000I0J-150000D01*
G01*
X112924000Y-50315000D01*
G75*
G02*
X112774000Y-50465000I-150000J0D01*
G01*
X111124000Y-50465000D01*
G75*
G02*
X110974000Y-50315000I0J150000D01*
G01*
G37*
G36*
G01*
X123737500Y-116799500D02*
X123737500Y-116499500D01*
G75*
G02*
X123887500Y-116349500I150000J0D01*
G01*
X125537500Y-116349500D01*
G75*
G02*
X125687500Y-116499500I0J-150000D01*
G01*
X125687500Y-116799500D01*
G75*
G02*
X125537500Y-116949500I-150000J0D01*
G01*
X123887500Y-116949500D01*
G75*
G02*
X123737500Y-116799500I0J150000D01*
G01*
G37*
G36*
G01*
X123737500Y-118069500D02*
X123737500Y-117769500D01*
G75*
G02*
X123887500Y-117619500I150000J0D01*
G01*
X125537500Y-117619500D01*
G75*
G02*
X125687500Y-117769500I0J-150000D01*
G01*
X125687500Y-118069500D01*
G75*
G02*
X125537500Y-118219500I-150000J0D01*
G01*
X123887500Y-118219500D01*
G75*
G02*
X123737500Y-118069500I0J150000D01*
G01*
G37*
G36*
G01*
X123737500Y-119339500D02*
X123737500Y-119039500D01*
G75*
G02*
X123887500Y-118889500I150000J0D01*
G01*
X125537500Y-118889500D01*
G75*
G02*
X125687500Y-119039500I0J-150000D01*
G01*
X125687500Y-119339500D01*
G75*
G02*
X125537500Y-119489500I-150000J0D01*
G01*
X123887500Y-119489500D01*
G75*
G02*
X123737500Y-119339500I0J150000D01*
G01*
G37*
G36*
G01*
X123737500Y-120609500D02*
X123737500Y-120309500D01*
G75*
G02*
X123887500Y-120159500I150000J0D01*
G01*
X125537500Y-120159500D01*
G75*
G02*
X125687500Y-120309500I0J-150000D01*
G01*
X125687500Y-120609500D01*
G75*
G02*
X125537500Y-120759500I-150000J0D01*
G01*
X123887500Y-120759500D01*
G75*
G02*
X123737500Y-120609500I0J150000D01*
G01*
G37*
G36*
G01*
X118787500Y-120609500D02*
X118787500Y-120309500D01*
G75*
G02*
X118937500Y-120159500I150000J0D01*
G01*
X120587500Y-120159500D01*
G75*
G02*
X120737500Y-120309500I0J-150000D01*
G01*
X120737500Y-120609500D01*
G75*
G02*
X120587500Y-120759500I-150000J0D01*
G01*
X118937500Y-120759500D01*
G75*
G02*
X118787500Y-120609500I0J150000D01*
G01*
G37*
G36*
G01*
X118787500Y-119339500D02*
X118787500Y-119039500D01*
G75*
G02*
X118937500Y-118889500I150000J0D01*
G01*
X120587500Y-118889500D01*
G75*
G02*
X120737500Y-119039500I0J-150000D01*
G01*
X120737500Y-119339500D01*
G75*
G02*
X120587500Y-119489500I-150000J0D01*
G01*
X118937500Y-119489500D01*
G75*
G02*
X118787500Y-119339500I0J150000D01*
G01*
G37*
G36*
G01*
X118787500Y-118069500D02*
X118787500Y-117769500D01*
G75*
G02*
X118937500Y-117619500I150000J0D01*
G01*
X120587500Y-117619500D01*
G75*
G02*
X120737500Y-117769500I0J-150000D01*
G01*
X120737500Y-118069500D01*
G75*
G02*
X120587500Y-118219500I-150000J0D01*
G01*
X118937500Y-118219500D01*
G75*
G02*
X118787500Y-118069500I0J150000D01*
G01*
G37*
G36*
G01*
X118787500Y-116799500D02*
X118787500Y-116499500D01*
G75*
G02*
X118937500Y-116349500I150000J0D01*
G01*
X120587500Y-116349500D01*
G75*
G02*
X120737500Y-116499500I0J-150000D01*
G01*
X120737500Y-116799500D01*
G75*
G02*
X120587500Y-116949500I-150000J0D01*
G01*
X118937500Y-116949500D01*
G75*
G02*
X118787500Y-116799500I0J150000D01*
G01*
G37*
D13*
X118394400Y-100533000D03*
X118394400Y-101183000D03*
X118394400Y-101833000D03*
X118394400Y-102483000D03*
X122794400Y-102483000D03*
X122794400Y-101833000D03*
X122794400Y-101183000D03*
X122794400Y-100533000D03*
G36*
G01*
X131188600Y-109191401D02*
X130888600Y-109191401D01*
G75*
G02*
X130738600Y-109041401I0J150000D01*
G01*
X130738600Y-107391401D01*
G75*
G02*
X130888600Y-107241401I150000J0D01*
G01*
X131188600Y-107241401D01*
G75*
G02*
X131338600Y-107391401I0J-150000D01*
G01*
X131338600Y-109041401D01*
G75*
G02*
X131188600Y-109191401I-150000J0D01*
G01*
G37*
G36*
G01*
X132458600Y-109191401D02*
X132158600Y-109191401D01*
G75*
G02*
X132008600Y-109041401I0J150000D01*
G01*
X132008600Y-107391401D01*
G75*
G02*
X132158600Y-107241401I150000J0D01*
G01*
X132458600Y-107241401D01*
G75*
G02*
X132608600Y-107391401I0J-150000D01*
G01*
X132608600Y-109041401D01*
G75*
G02*
X132458600Y-109191401I-150000J0D01*
G01*
G37*
G36*
G01*
X133728600Y-109191401D02*
X133428600Y-109191401D01*
G75*
G02*
X133278600Y-109041401I0J150000D01*
G01*
X133278600Y-107391401D01*
G75*
G02*
X133428600Y-107241401I150000J0D01*
G01*
X133728600Y-107241401D01*
G75*
G02*
X133878600Y-107391401I0J-150000D01*
G01*
X133878600Y-109041401D01*
G75*
G02*
X133728600Y-109191401I-150000J0D01*
G01*
G37*
G36*
G01*
X134998600Y-109191401D02*
X134698600Y-109191401D01*
G75*
G02*
X134548600Y-109041401I0J150000D01*
G01*
X134548600Y-107391401D01*
G75*
G02*
X134698600Y-107241401I150000J0D01*
G01*
X134998600Y-107241401D01*
G75*
G02*
X135148600Y-107391401I0J-150000D01*
G01*
X135148600Y-109041401D01*
G75*
G02*
X134998600Y-109191401I-150000J0D01*
G01*
G37*
G36*
G01*
X134998600Y-104241401D02*
X134698600Y-104241401D01*
G75*
G02*
X134548600Y-104091401I0J150000D01*
G01*
X134548600Y-102441401D01*
G75*
G02*
X134698600Y-102291401I150000J0D01*
G01*
X134998600Y-102291401D01*
G75*
G02*
X135148600Y-102441401I0J-150000D01*
G01*
X135148600Y-104091401D01*
G75*
G02*
X134998600Y-104241401I-150000J0D01*
G01*
G37*
G36*
G01*
X133728600Y-104241401D02*
X133428600Y-104241401D01*
G75*
G02*
X133278600Y-104091401I0J150000D01*
G01*
X133278600Y-102441401D01*
G75*
G02*
X133428600Y-102291401I150000J0D01*
G01*
X133728600Y-102291401D01*
G75*
G02*
X133878600Y-102441401I0J-150000D01*
G01*
X133878600Y-104091401D01*
G75*
G02*
X133728600Y-104241401I-150000J0D01*
G01*
G37*
G36*
G01*
X132458600Y-104241401D02*
X132158600Y-104241401D01*
G75*
G02*
X132008600Y-104091401I0J150000D01*
G01*
X132008600Y-102441401D01*
G75*
G02*
X132158600Y-102291401I150000J0D01*
G01*
X132458600Y-102291401D01*
G75*
G02*
X132608600Y-102441401I0J-150000D01*
G01*
X132608600Y-104091401D01*
G75*
G02*
X132458600Y-104241401I-150000J0D01*
G01*
G37*
G36*
G01*
X131188600Y-104241401D02*
X130888600Y-104241401D01*
G75*
G02*
X130738600Y-104091401I0J150000D01*
G01*
X130738600Y-102441401D01*
G75*
G02*
X130888600Y-102291401I150000J0D01*
G01*
X131188600Y-102291401D01*
G75*
G02*
X131338600Y-102441401I0J-150000D01*
G01*
X131338600Y-104091401D01*
G75*
G02*
X131188600Y-104241401I-150000J0D01*
G01*
G37*
G36*
G01*
X111550600Y-107241401D02*
X111850600Y-107241401D01*
G75*
G02*
X112000600Y-107391401I0J-150000D01*
G01*
X112000600Y-109041401D01*
G75*
G02*
X111850600Y-109191401I-150000J0D01*
G01*
X111550600Y-109191401D01*
G75*
G02*
X111400600Y-109041401I0J150000D01*
G01*
X111400600Y-107391401D01*
G75*
G02*
X111550600Y-107241401I150000J0D01*
G01*
G37*
G36*
G01*
X110280600Y-107241401D02*
X110580600Y-107241401D01*
G75*
G02*
X110730600Y-107391401I0J-150000D01*
G01*
X110730600Y-109041401D01*
G75*
G02*
X110580600Y-109191401I-150000J0D01*
G01*
X110280600Y-109191401D01*
G75*
G02*
X110130600Y-109041401I0J150000D01*
G01*
X110130600Y-107391401D01*
G75*
G02*
X110280600Y-107241401I150000J0D01*
G01*
G37*
G36*
G01*
X109010600Y-107241401D02*
X109310600Y-107241401D01*
G75*
G02*
X109460600Y-107391401I0J-150000D01*
G01*
X109460600Y-109041401D01*
G75*
G02*
X109310600Y-109191401I-150000J0D01*
G01*
X109010600Y-109191401D01*
G75*
G02*
X108860600Y-109041401I0J150000D01*
G01*
X108860600Y-107391401D01*
G75*
G02*
X109010600Y-107241401I150000J0D01*
G01*
G37*
G36*
G01*
X107740600Y-107241401D02*
X108040600Y-107241401D01*
G75*
G02*
X108190600Y-107391401I0J-150000D01*
G01*
X108190600Y-109041401D01*
G75*
G02*
X108040600Y-109191401I-150000J0D01*
G01*
X107740600Y-109191401D01*
G75*
G02*
X107590600Y-109041401I0J150000D01*
G01*
X107590600Y-107391401D01*
G75*
G02*
X107740600Y-107241401I150000J0D01*
G01*
G37*
G36*
G01*
X107740600Y-102291401D02*
X108040600Y-102291401D01*
G75*
G02*
X108190600Y-102441401I0J-150000D01*
G01*
X108190600Y-104091401D01*
G75*
G02*
X108040600Y-104241401I-150000J0D01*
G01*
X107740600Y-104241401D01*
G75*
G02*
X107590600Y-104091401I0J150000D01*
G01*
X107590600Y-102441401D01*
G75*
G02*
X107740600Y-102291401I150000J0D01*
G01*
G37*
G36*
G01*
X109010600Y-102291401D02*
X109310600Y-102291401D01*
G75*
G02*
X109460600Y-102441401I0J-150000D01*
G01*
X109460600Y-104091401D01*
G75*
G02*
X109310600Y-104241401I-150000J0D01*
G01*
X109010600Y-104241401D01*
G75*
G02*
X108860600Y-104091401I0J150000D01*
G01*
X108860600Y-102441401D01*
G75*
G02*
X109010600Y-102291401I150000J0D01*
G01*
G37*
G36*
G01*
X110280600Y-102291401D02*
X110580600Y-102291401D01*
G75*
G02*
X110730600Y-102441401I0J-150000D01*
G01*
X110730600Y-104091401D01*
G75*
G02*
X110580600Y-104241401I-150000J0D01*
G01*
X110280600Y-104241401D01*
G75*
G02*
X110130600Y-104091401I0J150000D01*
G01*
X110130600Y-102441401D01*
G75*
G02*
X110280600Y-102291401I150000J0D01*
G01*
G37*
G36*
G01*
X111550600Y-102291401D02*
X111850600Y-102291401D01*
G75*
G02*
X112000600Y-102441401I0J-150000D01*
G01*
X112000600Y-104091401D01*
G75*
G02*
X111850600Y-104241401I-150000J0D01*
G01*
X111550600Y-104241401D01*
G75*
G02*
X111400600Y-104091401I0J150000D01*
G01*
X111400600Y-102441401D01*
G75*
G02*
X111550600Y-102291401I150000J0D01*
G01*
G37*
G36*
G01*
X136344800Y-73526800D02*
X136044800Y-73526800D01*
G75*
G02*
X135894800Y-73376800I0J150000D01*
G01*
X135894800Y-71726800D01*
G75*
G02*
X136044800Y-71576800I150000J0D01*
G01*
X136344800Y-71576800D01*
G75*
G02*
X136494800Y-71726800I0J-150000D01*
G01*
X136494800Y-73376800D01*
G75*
G02*
X136344800Y-73526800I-150000J0D01*
G01*
G37*
G36*
G01*
X137614800Y-73526800D02*
X137314800Y-73526800D01*
G75*
G02*
X137164800Y-73376800I0J150000D01*
G01*
X137164800Y-71726800D01*
G75*
G02*
X137314800Y-71576800I150000J0D01*
G01*
X137614800Y-71576800D01*
G75*
G02*
X137764800Y-71726800I0J-150000D01*
G01*
X137764800Y-73376800D01*
G75*
G02*
X137614800Y-73526800I-150000J0D01*
G01*
G37*
G36*
G01*
X138884800Y-73526800D02*
X138584800Y-73526800D01*
G75*
G02*
X138434800Y-73376800I0J150000D01*
G01*
X138434800Y-71726800D01*
G75*
G02*
X138584800Y-71576800I150000J0D01*
G01*
X138884800Y-71576800D01*
G75*
G02*
X139034800Y-71726800I0J-150000D01*
G01*
X139034800Y-73376800D01*
G75*
G02*
X138884800Y-73526800I-150000J0D01*
G01*
G37*
G36*
G01*
X140154800Y-73526800D02*
X139854800Y-73526800D01*
G75*
G02*
X139704800Y-73376800I0J150000D01*
G01*
X139704800Y-71726800D01*
G75*
G02*
X139854800Y-71576800I150000J0D01*
G01*
X140154800Y-71576800D01*
G75*
G02*
X140304800Y-71726800I0J-150000D01*
G01*
X140304800Y-73376800D01*
G75*
G02*
X140154800Y-73526800I-150000J0D01*
G01*
G37*
G36*
G01*
X140154800Y-68576800D02*
X139854800Y-68576800D01*
G75*
G02*
X139704800Y-68426800I0J150000D01*
G01*
X139704800Y-66776800D01*
G75*
G02*
X139854800Y-66626800I150000J0D01*
G01*
X140154800Y-66626800D01*
G75*
G02*
X140304800Y-66776800I0J-150000D01*
G01*
X140304800Y-68426800D01*
G75*
G02*
X140154800Y-68576800I-150000J0D01*
G01*
G37*
G36*
G01*
X138884800Y-68576800D02*
X138584800Y-68576800D01*
G75*
G02*
X138434800Y-68426800I0J150000D01*
G01*
X138434800Y-66776800D01*
G75*
G02*
X138584800Y-66626800I150000J0D01*
G01*
X138884800Y-66626800D01*
G75*
G02*
X139034800Y-66776800I0J-150000D01*
G01*
X139034800Y-68426800D01*
G75*
G02*
X138884800Y-68576800I-150000J0D01*
G01*
G37*
G36*
G01*
X137614800Y-68576800D02*
X137314800Y-68576800D01*
G75*
G02*
X137164800Y-68426800I0J150000D01*
G01*
X137164800Y-66776800D01*
G75*
G02*
X137314800Y-66626800I150000J0D01*
G01*
X137614800Y-66626800D01*
G75*
G02*
X137764800Y-66776800I0J-150000D01*
G01*
X137764800Y-68426800D01*
G75*
G02*
X137614800Y-68576800I-150000J0D01*
G01*
G37*
G36*
G01*
X136344800Y-68576800D02*
X136044800Y-68576800D01*
G75*
G02*
X135894800Y-68426800I0J150000D01*
G01*
X135894800Y-66776800D01*
G75*
G02*
X136044800Y-66626800I150000J0D01*
G01*
X136344800Y-66626800D01*
G75*
G02*
X136494800Y-66776800I0J-150000D01*
G01*
X136494800Y-68426800D01*
G75*
G02*
X136344800Y-68576800I-150000J0D01*
G01*
G37*
G36*
G01*
X128198200Y-141195000D02*
X128198200Y-140895000D01*
G75*
G02*
X128348200Y-140745000I150000J0D01*
G01*
X129998200Y-140745000D01*
G75*
G02*
X130148200Y-140895000I0J-150000D01*
G01*
X130148200Y-141195000D01*
G75*
G02*
X129998200Y-141345000I-150000J0D01*
G01*
X128348200Y-141345000D01*
G75*
G02*
X128198200Y-141195000I0J150000D01*
G01*
G37*
G36*
G01*
X128198200Y-142465000D02*
X128198200Y-142165000D01*
G75*
G02*
X128348200Y-142015000I150000J0D01*
G01*
X129998200Y-142015000D01*
G75*
G02*
X130148200Y-142165000I0J-150000D01*
G01*
X130148200Y-142465000D01*
G75*
G02*
X129998200Y-142615000I-150000J0D01*
G01*
X128348200Y-142615000D01*
G75*
G02*
X128198200Y-142465000I0J150000D01*
G01*
G37*
G36*
G01*
X128198200Y-143735000D02*
X128198200Y-143435000D01*
G75*
G02*
X128348200Y-143285000I150000J0D01*
G01*
X129998200Y-143285000D01*
G75*
G02*
X130148200Y-143435000I0J-150000D01*
G01*
X130148200Y-143735000D01*
G75*
G02*
X129998200Y-143885000I-150000J0D01*
G01*
X128348200Y-143885000D01*
G75*
G02*
X128198200Y-143735000I0J150000D01*
G01*
G37*
G36*
G01*
X128198200Y-145005000D02*
X128198200Y-144705000D01*
G75*
G02*
X128348200Y-144555000I150000J0D01*
G01*
X129998200Y-144555000D01*
G75*
G02*
X130148200Y-144705000I0J-150000D01*
G01*
X130148200Y-145005000D01*
G75*
G02*
X129998200Y-145155000I-150000J0D01*
G01*
X128348200Y-145155000D01*
G75*
G02*
X128198200Y-145005000I0J150000D01*
G01*
G37*
G36*
G01*
X133148200Y-145005000D02*
X133148200Y-144705000D01*
G75*
G02*
X133298200Y-144555000I150000J0D01*
G01*
X134948200Y-144555000D01*
G75*
G02*
X135098200Y-144705000I0J-150000D01*
G01*
X135098200Y-145005000D01*
G75*
G02*
X134948200Y-145155000I-150000J0D01*
G01*
X133298200Y-145155000D01*
G75*
G02*
X133148200Y-145005000I0J150000D01*
G01*
G37*
G36*
G01*
X133148200Y-143735000D02*
X133148200Y-143435000D01*
G75*
G02*
X133298200Y-143285000I150000J0D01*
G01*
X134948200Y-143285000D01*
G75*
G02*
X135098200Y-143435000I0J-150000D01*
G01*
X135098200Y-143735000D01*
G75*
G02*
X134948200Y-143885000I-150000J0D01*
G01*
X133298200Y-143885000D01*
G75*
G02*
X133148200Y-143735000I0J150000D01*
G01*
G37*
G36*
G01*
X133148200Y-142465000D02*
X133148200Y-142165000D01*
G75*
G02*
X133298200Y-142015000I150000J0D01*
G01*
X134948200Y-142015000D01*
G75*
G02*
X135098200Y-142165000I0J-150000D01*
G01*
X135098200Y-142465000D01*
G75*
G02*
X134948200Y-142615000I-150000J0D01*
G01*
X133298200Y-142615000D01*
G75*
G02*
X133148200Y-142465000I0J150000D01*
G01*
G37*
G36*
G01*
X133148200Y-141195000D02*
X133148200Y-140895000D01*
G75*
G02*
X133298200Y-140745000I150000J0D01*
G01*
X134948200Y-140745000D01*
G75*
G02*
X135098200Y-140895000I0J-150000D01*
G01*
X135098200Y-141195000D01*
G75*
G02*
X134948200Y-141345000I-150000J0D01*
G01*
X133298200Y-141345000D01*
G75*
G02*
X133148200Y-141195000I0J150000D01*
G01*
G37*
G36*
G01*
X106582800Y-160093800D02*
X106582800Y-159793800D01*
G75*
G02*
X106732800Y-159643800I150000J0D01*
G01*
X108382800Y-159643800D01*
G75*
G02*
X108532800Y-159793800I0J-150000D01*
G01*
X108532800Y-160093800D01*
G75*
G02*
X108382800Y-160243800I-150000J0D01*
G01*
X106732800Y-160243800D01*
G75*
G02*
X106582800Y-160093800I0J150000D01*
G01*
G37*
G36*
G01*
X106582800Y-161363800D02*
X106582800Y-161063800D01*
G75*
G02*
X106732800Y-160913800I150000J0D01*
G01*
X108382800Y-160913800D01*
G75*
G02*
X108532800Y-161063800I0J-150000D01*
G01*
X108532800Y-161363800D01*
G75*
G02*
X108382800Y-161513800I-150000J0D01*
G01*
X106732800Y-161513800D01*
G75*
G02*
X106582800Y-161363800I0J150000D01*
G01*
G37*
G36*
G01*
X106582800Y-162633800D02*
X106582800Y-162333800D01*
G75*
G02*
X106732800Y-162183800I150000J0D01*
G01*
X108382800Y-162183800D01*
G75*
G02*
X108532800Y-162333800I0J-150000D01*
G01*
X108532800Y-162633800D01*
G75*
G02*
X108382800Y-162783800I-150000J0D01*
G01*
X106732800Y-162783800D01*
G75*
G02*
X106582800Y-162633800I0J150000D01*
G01*
G37*
G36*
G01*
X106582800Y-163903800D02*
X106582800Y-163603800D01*
G75*
G02*
X106732800Y-163453800I150000J0D01*
G01*
X108382800Y-163453800D01*
G75*
G02*
X108532800Y-163603800I0J-150000D01*
G01*
X108532800Y-163903800D01*
G75*
G02*
X108382800Y-164053800I-150000J0D01*
G01*
X106732800Y-164053800D01*
G75*
G02*
X106582800Y-163903800I0J150000D01*
G01*
G37*
G36*
G01*
X111532800Y-163903800D02*
X111532800Y-163603800D01*
G75*
G02*
X111682800Y-163453800I150000J0D01*
G01*
X113332800Y-163453800D01*
G75*
G02*
X113482800Y-163603800I0J-150000D01*
G01*
X113482800Y-163903800D01*
G75*
G02*
X113332800Y-164053800I-150000J0D01*
G01*
X111682800Y-164053800D01*
G75*
G02*
X111532800Y-163903800I0J150000D01*
G01*
G37*
G36*
G01*
X111532800Y-162633800D02*
X111532800Y-162333800D01*
G75*
G02*
X111682800Y-162183800I150000J0D01*
G01*
X113332800Y-162183800D01*
G75*
G02*
X113482800Y-162333800I0J-150000D01*
G01*
X113482800Y-162633800D01*
G75*
G02*
X113332800Y-162783800I-150000J0D01*
G01*
X111682800Y-162783800D01*
G75*
G02*
X111532800Y-162633800I0J150000D01*
G01*
G37*
G36*
G01*
X111532800Y-161363800D02*
X111532800Y-161063800D01*
G75*
G02*
X111682800Y-160913800I150000J0D01*
G01*
X113332800Y-160913800D01*
G75*
G02*
X113482800Y-161063800I0J-150000D01*
G01*
X113482800Y-161363800D01*
G75*
G02*
X113332800Y-161513800I-150000J0D01*
G01*
X111682800Y-161513800D01*
G75*
G02*
X111532800Y-161363800I0J150000D01*
G01*
G37*
G36*
G01*
X111532800Y-160093800D02*
X111532800Y-159793800D01*
G75*
G02*
X111682800Y-159643800I150000J0D01*
G01*
X113332800Y-159643800D01*
G75*
G02*
X113482800Y-159793800I0J-150000D01*
G01*
X113482800Y-160093800D01*
G75*
G02*
X113332800Y-160243800I-150000J0D01*
G01*
X111682800Y-160243800D01*
G75*
G02*
X111532800Y-160093800I0J150000D01*
G01*
G37*
M02*
