G04 #@! TF.GenerationSoftware,KiCad,Pcbnew,5.1.10*
G04 #@! TF.CreationDate,2021-07-20T09:34:09+02:00*
G04 #@! TF.ProjectId,MEV_board,4d45565f-626f-4617-9264-2e6b69636164,rev?*
G04 #@! TF.SameCoordinates,Original*
G04 #@! TF.FileFunction,Legend,Bot*
G04 #@! TF.FilePolarity,Positive*
%FSLAX46Y46*%
G04 Gerber Fmt 4.6, Leading zero omitted, Abs format (unit mm)*
G04 Created by KiCad (PCBNEW 5.1.10) date 2021-07-20 09:34:09*
%MOMM*%
%LPD*%
G01*
G04 APERTURE LIST*
%ADD10C,0.150000*%
%ADD11C,0.120000*%
%ADD12C,6.400000*%
%ADD13C,3.600000*%
%ADD14O,1.700000X1.700000*%
%ADD15R,1.700000X1.700000*%
%ADD16C,2.600000*%
%ADD17R,2.600000X2.600000*%
%ADD18C,1.440000*%
%ADD19R,1.500000X2.500000*%
%ADD20O,1.500000X2.500000*%
G04 APERTURE END LIST*
D10*
X135426295Y-148947166D02*
X134950104Y-148947166D01*
X135521533Y-149232880D02*
X135188200Y-148232880D01*
X134854866Y-149232880D01*
X134331057Y-148232880D02*
X134140580Y-148232880D01*
X134045342Y-148280500D01*
X133950104Y-148375738D01*
X133902485Y-148566214D01*
X133902485Y-148899547D01*
X133950104Y-149090023D01*
X134045342Y-149185261D01*
X134140580Y-149232880D01*
X134331057Y-149232880D01*
X134426295Y-149185261D01*
X134521533Y-149090023D01*
X134569152Y-148899547D01*
X134569152Y-148566214D01*
X134521533Y-148375738D01*
X134426295Y-148280500D01*
X134331057Y-148232880D01*
X132950104Y-149232880D02*
X133521533Y-149232880D01*
X133235819Y-149232880D02*
X133235819Y-148232880D01*
X133331057Y-148375738D01*
X133426295Y-148470976D01*
X133521533Y-148518595D01*
X130346295Y-148947166D02*
X129870104Y-148947166D01*
X130441533Y-149232880D02*
X130108200Y-148232880D01*
X129774866Y-149232880D01*
X129251057Y-148232880D02*
X129060580Y-148232880D01*
X128965342Y-148280500D01*
X128870104Y-148375738D01*
X128822485Y-148566214D01*
X128822485Y-148899547D01*
X128870104Y-149090023D01*
X128965342Y-149185261D01*
X129060580Y-149232880D01*
X129251057Y-149232880D01*
X129346295Y-149185261D01*
X129441533Y-149090023D01*
X129489152Y-148899547D01*
X129489152Y-148566214D01*
X129441533Y-148375738D01*
X129346295Y-148280500D01*
X129251057Y-148232880D01*
X128441533Y-148328119D02*
X128393914Y-148280500D01*
X128298676Y-148232880D01*
X128060580Y-148232880D01*
X127965342Y-148280500D01*
X127917723Y-148328119D01*
X127870104Y-148423357D01*
X127870104Y-148518595D01*
X127917723Y-148661452D01*
X128489152Y-149232880D01*
X127870104Y-149232880D01*
X124980580Y-148947166D02*
X124504390Y-148947166D01*
X125075819Y-149232880D02*
X124742485Y-148232880D01*
X124409152Y-149232880D01*
X124075819Y-149232880D02*
X124075819Y-148232880D01*
X123647247Y-148328119D02*
X123599628Y-148280500D01*
X123504390Y-148232880D01*
X123266295Y-148232880D01*
X123171057Y-148280500D01*
X123123438Y-148328119D01*
X123075819Y-148423357D01*
X123075819Y-148518595D01*
X123123438Y-148661452D01*
X123694866Y-149232880D01*
X123075819Y-149232880D01*
X119900580Y-148947166D02*
X119424390Y-148947166D01*
X119995819Y-149232880D02*
X119662485Y-148232880D01*
X119329152Y-149232880D01*
X118995819Y-149232880D02*
X118995819Y-148232880D01*
X117995819Y-149232880D02*
X118567247Y-149232880D01*
X118281533Y-149232880D02*
X118281533Y-148232880D01*
X118376771Y-148375738D01*
X118472009Y-148470976D01*
X118567247Y-148518595D01*
X144914061Y-156051380D02*
X144961680Y-156194237D01*
X144961680Y-156432333D01*
X144914061Y-156527571D01*
X144866442Y-156575190D01*
X144771204Y-156622809D01*
X144675966Y-156622809D01*
X144580728Y-156575190D01*
X144533109Y-156527571D01*
X144485490Y-156432333D01*
X144437871Y-156241857D01*
X144390252Y-156146618D01*
X144342633Y-156098999D01*
X144247395Y-156051380D01*
X144152157Y-156051380D01*
X144056919Y-156098999D01*
X144009300Y-156146618D01*
X143961680Y-156241857D01*
X143961680Y-156479952D01*
X144009300Y-156622809D01*
X144866442Y-157622809D02*
X144914061Y-157575190D01*
X144961680Y-157432333D01*
X144961680Y-157337095D01*
X144914061Y-157194237D01*
X144818823Y-157098999D01*
X144723585Y-157051380D01*
X144533109Y-157003761D01*
X144390252Y-157003761D01*
X144199776Y-157051380D01*
X144104538Y-157098999D01*
X144009300Y-157194237D01*
X143961680Y-157337095D01*
X143961680Y-157432333D01*
X144009300Y-157575190D01*
X144056919Y-157622809D01*
X144961680Y-158527571D02*
X144961680Y-158051380D01*
X143961680Y-158051380D01*
X142374061Y-156003761D02*
X142421680Y-156146618D01*
X142421680Y-156384713D01*
X142374061Y-156479951D01*
X142326442Y-156527570D01*
X142231204Y-156575189D01*
X142135966Y-156575189D01*
X142040728Y-156527570D01*
X141993109Y-156479951D01*
X141945490Y-156384713D01*
X141897871Y-156194237D01*
X141850252Y-156098999D01*
X141802633Y-156051380D01*
X141707395Y-156003761D01*
X141612157Y-156003761D01*
X141516919Y-156051380D01*
X141469300Y-156098999D01*
X141421680Y-156194237D01*
X141421680Y-156432332D01*
X141469300Y-156575189D01*
X142421680Y-157003761D02*
X141421680Y-157003761D01*
X141421680Y-157241856D01*
X141469300Y-157384713D01*
X141564538Y-157479951D01*
X141659776Y-157527570D01*
X141850252Y-157575189D01*
X141993109Y-157575189D01*
X142183585Y-157527570D01*
X142278823Y-157479951D01*
X142374061Y-157384713D01*
X142421680Y-157241856D01*
X142421680Y-157003761D01*
X142135966Y-157956142D02*
X142135966Y-158432332D01*
X142421680Y-157860904D02*
X141421680Y-158194237D01*
X142421680Y-158527570D01*
X146549300Y-156337095D02*
X146501680Y-156241857D01*
X146501680Y-156099000D01*
X146549300Y-155956142D01*
X146644538Y-155860904D01*
X146739776Y-155813285D01*
X146930252Y-155765666D01*
X147073109Y-155765666D01*
X147263585Y-155813285D01*
X147358823Y-155860904D01*
X147454061Y-155956142D01*
X147501680Y-156099000D01*
X147501680Y-156194238D01*
X147454061Y-156337095D01*
X147406442Y-156384714D01*
X147073109Y-156384714D01*
X147073109Y-156194238D01*
X147501680Y-156813285D02*
X146501680Y-156813285D01*
X147501680Y-157384714D01*
X146501680Y-157384714D01*
X147501680Y-157860904D02*
X146501680Y-157860904D01*
X146501680Y-158099000D01*
X146549300Y-158241857D01*
X146644538Y-158337095D01*
X146739776Y-158384714D01*
X146930252Y-158432333D01*
X147073109Y-158432333D01*
X147263585Y-158384714D01*
X147358823Y-158337095D01*
X147454061Y-158241857D01*
X147501680Y-158099000D01*
X147501680Y-157860904D01*
X139500728Y-155813285D02*
X139500728Y-156575190D01*
X139881680Y-156194238D02*
X139119776Y-156194238D01*
X138881680Y-157527571D02*
X138881680Y-157051380D01*
X139357871Y-157003761D01*
X139310252Y-157051380D01*
X139262633Y-157146619D01*
X139262633Y-157384714D01*
X139310252Y-157479952D01*
X139357871Y-157527571D01*
X139453109Y-157575190D01*
X139691204Y-157575190D01*
X139786442Y-157527571D01*
X139834061Y-157479952D01*
X139881680Y-157384714D01*
X139881680Y-157146619D01*
X139834061Y-157051380D01*
X139786442Y-157003761D01*
X138881680Y-157860904D02*
X139881680Y-158194238D01*
X138881680Y-158527571D01*
X113275300Y-156337095D02*
X113227680Y-156241857D01*
X113227680Y-156099000D01*
X113275300Y-155956142D01*
X113370538Y-155860904D01*
X113465776Y-155813285D01*
X113656252Y-155765666D01*
X113799109Y-155765666D01*
X113989585Y-155813285D01*
X114084823Y-155860904D01*
X114180061Y-155956142D01*
X114227680Y-156099000D01*
X114227680Y-156194238D01*
X114180061Y-156337095D01*
X114132442Y-156384714D01*
X113799109Y-156384714D01*
X113799109Y-156194238D01*
X114227680Y-156813285D02*
X113227680Y-156813285D01*
X114227680Y-157384714D01*
X113227680Y-157384714D01*
X114227680Y-157860904D02*
X113227680Y-157860904D01*
X113227680Y-158099000D01*
X113275300Y-158241857D01*
X113370538Y-158337095D01*
X113465776Y-158384714D01*
X113656252Y-158432333D01*
X113799109Y-158432333D01*
X113989585Y-158384714D01*
X114084823Y-158337095D01*
X114180061Y-158241857D01*
X114227680Y-158099000D01*
X114227680Y-157860904D01*
X111640061Y-156051380D02*
X111687680Y-156194237D01*
X111687680Y-156432333D01*
X111640061Y-156527571D01*
X111592442Y-156575190D01*
X111497204Y-156622809D01*
X111401966Y-156622809D01*
X111306728Y-156575190D01*
X111259109Y-156527571D01*
X111211490Y-156432333D01*
X111163871Y-156241857D01*
X111116252Y-156146618D01*
X111068633Y-156098999D01*
X110973395Y-156051380D01*
X110878157Y-156051380D01*
X110782919Y-156098999D01*
X110735300Y-156146618D01*
X110687680Y-156241857D01*
X110687680Y-156479952D01*
X110735300Y-156622809D01*
X111592442Y-157622809D02*
X111640061Y-157575190D01*
X111687680Y-157432333D01*
X111687680Y-157337095D01*
X111640061Y-157194237D01*
X111544823Y-157098999D01*
X111449585Y-157051380D01*
X111259109Y-157003761D01*
X111116252Y-157003761D01*
X110925776Y-157051380D01*
X110830538Y-157098999D01*
X110735300Y-157194237D01*
X110687680Y-157337095D01*
X110687680Y-157432333D01*
X110735300Y-157575190D01*
X110782919Y-157622809D01*
X111687680Y-158527571D02*
X111687680Y-158051380D01*
X110687680Y-158051380D01*
X109100061Y-156003761D02*
X109147680Y-156146618D01*
X109147680Y-156384713D01*
X109100061Y-156479951D01*
X109052442Y-156527570D01*
X108957204Y-156575189D01*
X108861966Y-156575189D01*
X108766728Y-156527570D01*
X108719109Y-156479951D01*
X108671490Y-156384713D01*
X108623871Y-156194237D01*
X108576252Y-156098999D01*
X108528633Y-156051380D01*
X108433395Y-156003761D01*
X108338157Y-156003761D01*
X108242919Y-156051380D01*
X108195300Y-156098999D01*
X108147680Y-156194237D01*
X108147680Y-156432332D01*
X108195300Y-156575189D01*
X109147680Y-157003761D02*
X108147680Y-157003761D01*
X108147680Y-157241856D01*
X108195300Y-157384713D01*
X108290538Y-157479951D01*
X108385776Y-157527570D01*
X108576252Y-157575189D01*
X108719109Y-157575189D01*
X108909585Y-157527570D01*
X109004823Y-157479951D01*
X109100061Y-157384713D01*
X109147680Y-157241856D01*
X109147680Y-157003761D01*
X108861966Y-157956142D02*
X108861966Y-158432332D01*
X109147680Y-157860904D02*
X108147680Y-158194237D01*
X109147680Y-158527570D01*
X106226728Y-155813285D02*
X106226728Y-156575190D01*
X106607680Y-156194238D02*
X105845776Y-156194238D01*
X105607680Y-157527571D02*
X105607680Y-157051380D01*
X106083871Y-157003761D01*
X106036252Y-157051380D01*
X105988633Y-157146619D01*
X105988633Y-157384714D01*
X106036252Y-157479952D01*
X106083871Y-157527571D01*
X106179109Y-157575190D01*
X106417204Y-157575190D01*
X106512442Y-157527571D01*
X106560061Y-157479952D01*
X106607680Y-157384714D01*
X106607680Y-157146619D01*
X106560061Y-157051380D01*
X106512442Y-157003761D01*
X105607680Y-157860904D02*
X106607680Y-158194238D01*
X105607680Y-158527571D01*
X129492595Y-52887571D02*
X130254500Y-52887571D01*
X129873547Y-52506619D02*
X129873547Y-53268523D01*
X130683071Y-53411380D02*
X130730690Y-53459000D01*
X130825928Y-53506619D01*
X131064023Y-53506619D01*
X131159261Y-53459000D01*
X131206880Y-53411380D01*
X131254500Y-53316142D01*
X131254500Y-53220904D01*
X131206880Y-53078047D01*
X130635452Y-52506619D01*
X131254500Y-52506619D01*
X132111642Y-53173285D02*
X132111642Y-52506619D01*
X131873547Y-53554238D02*
X131635452Y-52839952D01*
X132254500Y-52839952D01*
X132492595Y-53506619D02*
X132825928Y-52506619D01*
X133159261Y-53506619D01*
X107683261Y-54983119D02*
X107349928Y-55459309D01*
X107111833Y-54983119D02*
X107111833Y-55983119D01*
X107492785Y-55983119D01*
X107588023Y-55935500D01*
X107635642Y-55887880D01*
X107683261Y-55792642D01*
X107683261Y-55649785D01*
X107635642Y-55554547D01*
X107588023Y-55506928D01*
X107492785Y-55459309D01*
X107111833Y-55459309D01*
X108064214Y-55030738D02*
X108207071Y-54983119D01*
X108445166Y-54983119D01*
X108540404Y-55030738D01*
X108588023Y-55078357D01*
X108635642Y-55173595D01*
X108635642Y-55268833D01*
X108588023Y-55364071D01*
X108540404Y-55411690D01*
X108445166Y-55459309D01*
X108254690Y-55506928D01*
X108159452Y-55554547D01*
X108111833Y-55602166D01*
X108064214Y-55697404D01*
X108064214Y-55792642D01*
X108111833Y-55887880D01*
X108159452Y-55935500D01*
X108254690Y-55983119D01*
X108492785Y-55983119D01*
X108635642Y-55935500D01*
X109492785Y-55649785D02*
X109492785Y-54983119D01*
X109254690Y-56030738D02*
X109016595Y-55316452D01*
X109635642Y-55316452D01*
X110159452Y-55554547D02*
X110064214Y-55602166D01*
X110016595Y-55649785D01*
X109968976Y-55745023D01*
X109968976Y-55792642D01*
X110016595Y-55887880D01*
X110064214Y-55935500D01*
X110159452Y-55983119D01*
X110349928Y-55983119D01*
X110445166Y-55935500D01*
X110492785Y-55887880D01*
X110540404Y-55792642D01*
X110540404Y-55745023D01*
X110492785Y-55649785D01*
X110445166Y-55602166D01*
X110349928Y-55554547D01*
X110159452Y-55554547D01*
X110064214Y-55506928D01*
X110016595Y-55459309D01*
X109968976Y-55364071D01*
X109968976Y-55173595D01*
X110016595Y-55078357D01*
X110064214Y-55030738D01*
X110159452Y-54983119D01*
X110349928Y-54983119D01*
X110445166Y-55030738D01*
X110492785Y-55078357D01*
X110540404Y-55173595D01*
X110540404Y-55364071D01*
X110492785Y-55459309D01*
X110445166Y-55506928D01*
X110349928Y-55554547D01*
X111445166Y-55983119D02*
X110968976Y-55983119D01*
X110921357Y-55506928D01*
X110968976Y-55554547D01*
X111064214Y-55602166D01*
X111302309Y-55602166D01*
X111397547Y-55554547D01*
X111445166Y-55506928D01*
X111492785Y-55411690D01*
X111492785Y-55173595D01*
X111445166Y-55078357D01*
X111397547Y-55030738D01*
X111302309Y-54983119D01*
X111064214Y-54983119D01*
X110968976Y-55030738D01*
X110921357Y-55078357D01*
X111894928Y-53538428D02*
X112037785Y-53490809D01*
X112085404Y-53443190D01*
X112133023Y-53347952D01*
X112133023Y-53205095D01*
X112085404Y-53109857D01*
X112037785Y-53062238D01*
X111942547Y-53014619D01*
X111561595Y-53014619D01*
X111561595Y-54014619D01*
X111894928Y-54014619D01*
X111990166Y-53967000D01*
X112037785Y-53919380D01*
X112085404Y-53824142D01*
X112085404Y-53728904D01*
X112037785Y-53633666D01*
X111990166Y-53586047D01*
X111894928Y-53538428D01*
X111561595Y-53538428D01*
X106505405Y-53236833D02*
X106981596Y-53236833D01*
X106410167Y-52951119D02*
X106743501Y-53951119D01*
X107076834Y-52951119D01*
D11*
X148396000Y-152657500D02*
X148396000Y-155317500D01*
X140716000Y-152657500D02*
X148396000Y-152657500D01*
X140716000Y-155317500D02*
X148396000Y-155317500D01*
X140716000Y-152657500D02*
X140716000Y-155317500D01*
X139446000Y-152657500D02*
X138116000Y-152657500D01*
X138116000Y-152657500D02*
X138116000Y-153987500D01*
X115172798Y-152644800D02*
X115172798Y-155304800D01*
X107492798Y-152644800D02*
X115172798Y-152644800D01*
X107492798Y-155304800D02*
X115172798Y-155304800D01*
X107492798Y-152644800D02*
X107492798Y-155304800D01*
X106222798Y-152644800D02*
X104892798Y-152644800D01*
X104892798Y-152644800D02*
X104892798Y-153974800D01*
X125708200Y-154838400D02*
G75*
G03*
X125708200Y-154838400I-1680000J0D01*
G01*
X130788200Y-154838400D02*
G75*
G03*
X130788200Y-154838400I-1680000J0D01*
G01*
X135868200Y-154838400D02*
G75*
G03*
X135868200Y-154838400I-1680000J0D01*
G01*
X116348200Y-150738400D02*
X136788200Y-150738400D01*
X116348200Y-152238400D02*
X136788200Y-152238400D01*
X116348200Y-157139400D02*
X136788200Y-157139400D01*
X116348200Y-160099400D02*
X136788200Y-160099400D01*
X116348200Y-150178400D02*
X136788200Y-150178400D01*
X116348200Y-160099400D02*
X116348200Y-150178400D01*
X136788200Y-160099400D02*
X136788200Y-150178400D01*
X125303200Y-155907400D02*
X125256200Y-155861400D01*
X122994200Y-153599400D02*
X122959200Y-153564400D01*
X125098200Y-156113400D02*
X125063200Y-156077400D01*
X122801200Y-153815400D02*
X122754200Y-153769400D01*
X130383200Y-155907400D02*
X130336200Y-155861400D01*
X128074200Y-153599400D02*
X128039200Y-153564400D01*
X130178200Y-156113400D02*
X130143200Y-156077400D01*
X127881200Y-153815400D02*
X127834200Y-153769400D01*
X135463200Y-155907400D02*
X135416200Y-155861400D01*
X133154200Y-153599400D02*
X133119200Y-153564400D01*
X135258200Y-156113400D02*
X135223200Y-156077400D01*
X132961200Y-153815400D02*
X132914200Y-153769400D01*
X116108200Y-150678400D02*
X116108200Y-149938400D01*
X116108200Y-149938400D02*
X116608200Y-149938400D01*
X118977005Y-153158147D02*
G75*
G03*
X118264200Y-153303400I-28805J-1680253D01*
G01*
X117412774Y-154155358D02*
G75*
G03*
X117413200Y-155522400I1535426J-683042D01*
G01*
X118265158Y-156373826D02*
G75*
G03*
X119632200Y-156373400I683042J1535426D01*
G01*
X120483626Y-155521442D02*
G75*
G03*
X120483200Y-154154400I-1535426J683042D01*
G01*
X119631518Y-153303644D02*
G75*
G03*
X118948200Y-153158400I-683318J-1534756D01*
G01*
X114663500Y-52100000D02*
X114163500Y-52100000D01*
X114663500Y-51360000D02*
X114663500Y-52100000D01*
X107970500Y-48223000D02*
X108017500Y-48269000D01*
X105673500Y-45925000D02*
X105708500Y-45961000D01*
X107777500Y-48439000D02*
X107812500Y-48474000D01*
X105468500Y-46131000D02*
X105515500Y-46177000D01*
X104143500Y-41939000D02*
X104143500Y-51860000D01*
X114423500Y-41939000D02*
X114423500Y-51860000D01*
X114423500Y-51860000D02*
X104143500Y-51860000D01*
X114423500Y-41939000D02*
X104143500Y-41939000D01*
X114423500Y-44899000D02*
X104143500Y-44899000D01*
X114423500Y-49800000D02*
X104143500Y-49800000D01*
X114423500Y-51300000D02*
X104143500Y-51300000D01*
X108423500Y-47200000D02*
G75*
G03*
X108423500Y-47200000I-1680000J0D01*
G01*
X111140182Y-48734756D02*
G75*
G03*
X111823500Y-48880000I683318J1534756D01*
G01*
X110288074Y-46516958D02*
G75*
G03*
X110288500Y-47884000I1535426J-683042D01*
G01*
X112506542Y-45664574D02*
G75*
G03*
X111139500Y-45665000I-683042J-1535426D01*
G01*
X113358926Y-47883042D02*
G75*
G03*
X113358500Y-46516000I-1535426J683042D01*
G01*
X111794695Y-48880253D02*
G75*
G03*
X112507500Y-48735000I28805J1680253D01*
G01*
X149340000Y-52100000D02*
X148840000Y-52100000D01*
X149340000Y-51360000D02*
X149340000Y-52100000D01*
X132487000Y-48223000D02*
X132534000Y-48269000D01*
X130190000Y-45925000D02*
X130225000Y-45961000D01*
X132294000Y-48439000D02*
X132329000Y-48474000D01*
X129985000Y-46131000D02*
X130032000Y-46177000D01*
X137567000Y-48223000D02*
X137614000Y-48269000D01*
X135270000Y-45925000D02*
X135305000Y-45961000D01*
X137374000Y-48439000D02*
X137409000Y-48474000D01*
X135065000Y-46131000D02*
X135112000Y-46177000D01*
X142647000Y-48223000D02*
X142694000Y-48269000D01*
X140350000Y-45925000D02*
X140385000Y-45961000D01*
X142454000Y-48439000D02*
X142489000Y-48474000D01*
X140145000Y-46131000D02*
X140192000Y-46177000D01*
X128660000Y-41939000D02*
X128660000Y-51860000D01*
X149100000Y-41939000D02*
X149100000Y-51860000D01*
X149100000Y-51860000D02*
X128660000Y-51860000D01*
X149100000Y-41939000D02*
X128660000Y-41939000D01*
X149100000Y-44899000D02*
X128660000Y-44899000D01*
X149100000Y-49800000D02*
X128660000Y-49800000D01*
X149100000Y-51300000D02*
X128660000Y-51300000D01*
X132940000Y-47200000D02*
G75*
G03*
X132940000Y-47200000I-1680000J0D01*
G01*
X138020000Y-47200000D02*
G75*
G03*
X138020000Y-47200000I-1680000J0D01*
G01*
X143100000Y-47200000D02*
G75*
G03*
X143100000Y-47200000I-1680000J0D01*
G01*
X145816682Y-48734756D02*
G75*
G03*
X146500000Y-48880000I683318J1534756D01*
G01*
X144964574Y-46516958D02*
G75*
G03*
X144965000Y-47884000I1535426J-683042D01*
G01*
X147183042Y-45664574D02*
G75*
G03*
X145816000Y-45665000I-683042J-1535426D01*
G01*
X148035426Y-47883042D02*
G75*
G03*
X148035000Y-46516000I-1535426J683042D01*
G01*
X146471195Y-48880253D02*
G75*
G03*
X147184000Y-48735000I28805J1680253D01*
G01*
X138881500Y-57462100D02*
X135431500Y-57462100D01*
X138881500Y-57462100D02*
X140831500Y-57462100D01*
X138881500Y-52342100D02*
X136931500Y-52342100D01*
X138881500Y-52342100D02*
X140831500Y-52342100D01*
X143961500Y-58996900D02*
X145911500Y-58996900D01*
X143961500Y-58996900D02*
X142011500Y-58996900D01*
X143961500Y-64116900D02*
X145911500Y-64116900D01*
X143961500Y-64116900D02*
X140511500Y-64116900D01*
X116905000Y-138150000D02*
X116905000Y-133080000D01*
X107135000Y-138150000D02*
X107135000Y-133080000D01*
X107135000Y-133080000D02*
X116905000Y-133080000D01*
X107135000Y-138150000D02*
X116905000Y-138150000D01*
X107135000Y-132560000D02*
X116905000Y-132560000D01*
X107135000Y-127490000D02*
X116905000Y-127490000D01*
X107135000Y-132560000D02*
X107135000Y-127490000D01*
X116905000Y-132560000D02*
X116905000Y-127490000D01*
X117846000Y-123630000D02*
X117846000Y-113860000D01*
X112776000Y-123630000D02*
X112776000Y-113860000D01*
X117846000Y-123630000D02*
X112776000Y-123630000D01*
X117846000Y-113860000D02*
X112776000Y-113860000D01*
X112321500Y-113860000D02*
X107251500Y-113860000D01*
X112321500Y-123630000D02*
X107251500Y-123630000D01*
X107251500Y-123630000D02*
X107251500Y-113860000D01*
X112321500Y-123630000D02*
X112321500Y-113860000D01*
X131866800Y-124061800D02*
X131866800Y-114291800D01*
X126796800Y-124061800D02*
X126796800Y-114291800D01*
X131866800Y-124061800D02*
X126796800Y-124061800D01*
X131866800Y-114291800D02*
X126796800Y-114291800D01*
X137353200Y-114291800D02*
X132283200Y-114291800D01*
X137353200Y-124061800D02*
X132283200Y-124061800D01*
X132283200Y-124061800D02*
X132283200Y-114291800D01*
X137353200Y-124061800D02*
X137353200Y-114291800D01*
X135830000Y-145495000D02*
X140900000Y-145495000D01*
X135830000Y-135725000D02*
X140900000Y-135725000D01*
X140900000Y-135725000D02*
X140900000Y-145495000D01*
X135830000Y-135725000D02*
X135830000Y-145495000D01*
X122340000Y-135725000D02*
X122340000Y-145495000D01*
X127410000Y-135725000D02*
X127410000Y-145495000D01*
X122340000Y-135725000D02*
X127410000Y-135725000D01*
X122340000Y-145495000D02*
X127410000Y-145495000D01*
X127420000Y-49920000D02*
X127420000Y-42070000D01*
X127420000Y-42070000D02*
X115480000Y-42070000D01*
X115480000Y-42070000D02*
X115480000Y-49920000D01*
X115480000Y-49920000D02*
X127420000Y-49920000D01*
X127750000Y-47800000D02*
X127750000Y-50250000D01*
X127750000Y-50250000D02*
X125420000Y-50250000D01*
D10*
X147558166Y-53697119D02*
X147558166Y-52982833D01*
X147510547Y-52839976D01*
X147415309Y-52744738D01*
X147272452Y-52697119D01*
X147177214Y-52697119D01*
X148510547Y-53697119D02*
X148034357Y-53697119D01*
X147986738Y-53220928D01*
X148034357Y-53268547D01*
X148129595Y-53316166D01*
X148367690Y-53316166D01*
X148462928Y-53268547D01*
X148510547Y-53220928D01*
X148558166Y-53125690D01*
X148558166Y-52887595D01*
X148510547Y-52792357D01*
X148462928Y-52744738D01*
X148367690Y-52697119D01*
X148129595Y-52697119D01*
X148034357Y-52744738D01*
X147986738Y-52792357D01*
X138976738Y-58849719D02*
X139071976Y-58802100D01*
X139167214Y-58706861D01*
X139310071Y-58564004D01*
X139405309Y-58516385D01*
X139500547Y-58516385D01*
X139452928Y-58754480D02*
X139548166Y-58706861D01*
X139643404Y-58611623D01*
X139691023Y-58421147D01*
X139691023Y-58087814D01*
X139643404Y-57897338D01*
X139548166Y-57802100D01*
X139452928Y-57754480D01*
X139262452Y-57754480D01*
X139167214Y-57802100D01*
X139071976Y-57897338D01*
X139024357Y-58087814D01*
X139024357Y-58421147D01*
X139071976Y-58611623D01*
X139167214Y-58706861D01*
X139262452Y-58754480D01*
X139452928Y-58754480D01*
X138071976Y-58754480D02*
X138643404Y-58754480D01*
X138357690Y-58754480D02*
X138357690Y-57754480D01*
X138452928Y-57897338D01*
X138548166Y-57992576D01*
X138643404Y-58040195D01*
X144056738Y-65504519D02*
X144151976Y-65456900D01*
X144247214Y-65361661D01*
X144390071Y-65218804D01*
X144485309Y-65171185D01*
X144580547Y-65171185D01*
X144532928Y-65409280D02*
X144628166Y-65361661D01*
X144723404Y-65266423D01*
X144771023Y-65075947D01*
X144771023Y-64742614D01*
X144723404Y-64552138D01*
X144628166Y-64456900D01*
X144532928Y-64409280D01*
X144342452Y-64409280D01*
X144247214Y-64456900D01*
X144151976Y-64552138D01*
X144104357Y-64742614D01*
X144104357Y-65075947D01*
X144151976Y-65266423D01*
X144247214Y-65361661D01*
X144342452Y-65409280D01*
X144532928Y-65409280D01*
X143723404Y-64504519D02*
X143675785Y-64456900D01*
X143580547Y-64409280D01*
X143342452Y-64409280D01*
X143247214Y-64456900D01*
X143199595Y-64504519D01*
X143151976Y-64599757D01*
X143151976Y-64694995D01*
X143199595Y-64837852D01*
X143771023Y-65409280D01*
X143151976Y-65409280D01*
X119467238Y-136088380D02*
X119800571Y-135612190D01*
X120038666Y-136088380D02*
X120038666Y-135088380D01*
X119657714Y-135088380D01*
X119562476Y-135136000D01*
X119514857Y-135183619D01*
X119467238Y-135278857D01*
X119467238Y-135421714D01*
X119514857Y-135516952D01*
X119562476Y-135564571D01*
X119657714Y-135612190D01*
X120038666Y-135612190D01*
X119181523Y-135088380D02*
X118848190Y-136088380D01*
X118514857Y-135088380D01*
X117657714Y-136088380D02*
X118229142Y-136088380D01*
X117943428Y-136088380D02*
X117943428Y-135088380D01*
X118038666Y-135231238D01*
X118133904Y-135326476D01*
X118229142Y-135374095D01*
X119467238Y-130627380D02*
X119800571Y-130151190D01*
X120038666Y-130627380D02*
X120038666Y-129627380D01*
X119657714Y-129627380D01*
X119562476Y-129675000D01*
X119514857Y-129722619D01*
X119467238Y-129817857D01*
X119467238Y-129960714D01*
X119514857Y-130055952D01*
X119562476Y-130103571D01*
X119657714Y-130151190D01*
X120038666Y-130151190D01*
X119181523Y-129627380D02*
X118848190Y-130627380D01*
X118514857Y-129627380D01*
X118229142Y-129722619D02*
X118181523Y-129675000D01*
X118086285Y-129627380D01*
X117848190Y-129627380D01*
X117752952Y-129675000D01*
X117705333Y-129722619D01*
X117657714Y-129817857D01*
X117657714Y-129913095D01*
X117705333Y-130055952D01*
X118276761Y-130627380D01*
X117657714Y-130627380D01*
X115768380Y-111418761D02*
X115292190Y-111085428D01*
X115768380Y-110847333D02*
X114768380Y-110847333D01*
X114768380Y-111228285D01*
X114816000Y-111323523D01*
X114863619Y-111371142D01*
X114958857Y-111418761D01*
X115101714Y-111418761D01*
X115196952Y-111371142D01*
X115244571Y-111323523D01*
X115292190Y-111228285D01*
X115292190Y-110847333D01*
X114768380Y-111704476D02*
X115768380Y-112037809D01*
X114768380Y-112371142D01*
X114768380Y-112609238D02*
X114768380Y-113228285D01*
X115149333Y-112894952D01*
X115149333Y-113037809D01*
X115196952Y-113133047D01*
X115244571Y-113180666D01*
X115339809Y-113228285D01*
X115577904Y-113228285D01*
X115673142Y-113180666D01*
X115720761Y-113133047D01*
X115768380Y-113037809D01*
X115768380Y-112752095D01*
X115720761Y-112656857D01*
X115673142Y-112609238D01*
X110243880Y-111418761D02*
X109767690Y-111085428D01*
X110243880Y-110847333D02*
X109243880Y-110847333D01*
X109243880Y-111228285D01*
X109291500Y-111323523D01*
X109339119Y-111371142D01*
X109434357Y-111418761D01*
X109577214Y-111418761D01*
X109672452Y-111371142D01*
X109720071Y-111323523D01*
X109767690Y-111228285D01*
X109767690Y-110847333D01*
X109243880Y-111704476D02*
X110243880Y-112037809D01*
X109243880Y-112371142D01*
X109577214Y-113133047D02*
X110243880Y-113133047D01*
X109196261Y-112894952D02*
X109910547Y-112656857D01*
X109910547Y-113275904D01*
X129992380Y-111418761D02*
X129516190Y-111085428D01*
X129992380Y-110847333D02*
X128992380Y-110847333D01*
X128992380Y-111228285D01*
X129040000Y-111323523D01*
X129087619Y-111371142D01*
X129182857Y-111418761D01*
X129325714Y-111418761D01*
X129420952Y-111371142D01*
X129468571Y-111323523D01*
X129516190Y-111228285D01*
X129516190Y-110847333D01*
X128992380Y-111704476D02*
X129992380Y-112037809D01*
X128992380Y-112371142D01*
X128992380Y-113180666D02*
X128992380Y-112704476D01*
X129468571Y-112656857D01*
X129420952Y-112704476D01*
X129373333Y-112799714D01*
X129373333Y-113037809D01*
X129420952Y-113133047D01*
X129468571Y-113180666D01*
X129563809Y-113228285D01*
X129801904Y-113228285D01*
X129897142Y-113180666D01*
X129944761Y-113133047D01*
X129992380Y-113037809D01*
X129992380Y-112799714D01*
X129944761Y-112704476D01*
X129897142Y-112656857D01*
X135199380Y-111418761D02*
X134723190Y-111085428D01*
X135199380Y-110847333D02*
X134199380Y-110847333D01*
X134199380Y-111228285D01*
X134247000Y-111323523D01*
X134294619Y-111371142D01*
X134389857Y-111418761D01*
X134532714Y-111418761D01*
X134627952Y-111371142D01*
X134675571Y-111323523D01*
X134723190Y-111228285D01*
X134723190Y-110847333D01*
X134199380Y-111704476D02*
X135199380Y-112037809D01*
X134199380Y-112371142D01*
X134199380Y-113133047D02*
X134199380Y-112942571D01*
X134247000Y-112847333D01*
X134294619Y-112799714D01*
X134437476Y-112704476D01*
X134627952Y-112656857D01*
X135008904Y-112656857D01*
X135104142Y-112704476D01*
X135151761Y-112752095D01*
X135199380Y-112847333D01*
X135199380Y-113037809D01*
X135151761Y-113133047D01*
X135104142Y-113180666D01*
X135008904Y-113228285D01*
X134770809Y-113228285D01*
X134675571Y-113180666D01*
X134627952Y-113133047D01*
X134580333Y-113037809D01*
X134580333Y-112847333D01*
X134627952Y-112752095D01*
X134675571Y-112704476D01*
X134770809Y-112656857D01*
X135152380Y-140014761D02*
X134676190Y-139681428D01*
X135152380Y-139443333D02*
X134152380Y-139443333D01*
X134152380Y-139824285D01*
X134200000Y-139919523D01*
X134247619Y-139967142D01*
X134342857Y-140014761D01*
X134485714Y-140014761D01*
X134580952Y-139967142D01*
X134628571Y-139919523D01*
X134676190Y-139824285D01*
X134676190Y-139443333D01*
X134152380Y-140300476D02*
X135152380Y-140633809D01*
X134152380Y-140967142D01*
X134152380Y-141205238D02*
X134152380Y-141871904D01*
X135152380Y-141443333D01*
X121662380Y-140014761D02*
X121186190Y-139681428D01*
X121662380Y-139443333D02*
X120662380Y-139443333D01*
X120662380Y-139824285D01*
X120710000Y-139919523D01*
X120757619Y-139967142D01*
X120852857Y-140014761D01*
X120995714Y-140014761D01*
X121090952Y-139967142D01*
X121138571Y-139919523D01*
X121186190Y-139824285D01*
X121186190Y-139443333D01*
X120662380Y-140300476D02*
X121662380Y-140633809D01*
X120662380Y-140967142D01*
X121090952Y-141443333D02*
X121043333Y-141348095D01*
X120995714Y-141300476D01*
X120900476Y-141252857D01*
X120852857Y-141252857D01*
X120757619Y-141300476D01*
X120710000Y-141348095D01*
X120662380Y-141443333D01*
X120662380Y-141633809D01*
X120710000Y-141729047D01*
X120757619Y-141776666D01*
X120852857Y-141824285D01*
X120900476Y-141824285D01*
X120995714Y-141776666D01*
X121043333Y-141729047D01*
X121090952Y-141633809D01*
X121090952Y-141443333D01*
X121138571Y-141348095D01*
X121186190Y-141300476D01*
X121281428Y-141252857D01*
X121471904Y-141252857D01*
X121567142Y-141300476D01*
X121614761Y-141348095D01*
X121662380Y-141443333D01*
X121662380Y-141633809D01*
X121614761Y-141729047D01*
X121567142Y-141776666D01*
X121471904Y-141824285D01*
X121281428Y-141824285D01*
X121186190Y-141776666D01*
X121138571Y-141729047D01*
X121090952Y-141633809D01*
X120650095Y-51792119D02*
X120650095Y-50982595D01*
X120697714Y-50887357D01*
X120745333Y-50839738D01*
X120840571Y-50792119D01*
X121031047Y-50792119D01*
X121126285Y-50839738D01*
X121173904Y-50887357D01*
X121221523Y-50982595D01*
X121221523Y-51792119D01*
X122173904Y-51792119D02*
X121697714Y-51792119D01*
X121650095Y-51315928D01*
X121697714Y-51363547D01*
X121792952Y-51411166D01*
X122031047Y-51411166D01*
X122126285Y-51363547D01*
X122173904Y-51315928D01*
X122221523Y-51220690D01*
X122221523Y-50982595D01*
X122173904Y-50887357D01*
X122126285Y-50839738D01*
X122031047Y-50792119D01*
X121792952Y-50792119D01*
X121697714Y-50839738D01*
X121650095Y-50887357D01*
%LPC*%
D12*
X98000000Y-161500000D03*
D13*
X98000000Y-161500000D03*
D12*
X155000000Y-161500000D03*
D13*
X155000000Y-161500000D03*
D12*
X98000000Y-46000000D03*
D13*
X98000000Y-46000000D03*
D12*
X155000000Y-46000000D03*
D13*
X155000000Y-46000000D03*
D14*
X153340000Y-153960000D03*
X150800000Y-153960000D03*
X153340000Y-151420000D03*
X150800000Y-151420000D03*
X153340000Y-148880000D03*
X150800000Y-148880000D03*
X153340000Y-146340000D03*
X150800000Y-146340000D03*
X153340000Y-143800000D03*
X150800000Y-143800000D03*
X153340000Y-141260000D03*
X150800000Y-141260000D03*
X153340000Y-138720000D03*
X150800000Y-138720000D03*
X153340000Y-136180000D03*
X150800000Y-136180000D03*
X153340000Y-133640000D03*
X150800000Y-133640000D03*
X153340000Y-131100000D03*
X150800000Y-131100000D03*
X153340000Y-128560000D03*
X150800000Y-128560000D03*
X153340000Y-126020000D03*
X150800000Y-126020000D03*
X153340000Y-123480000D03*
X150800000Y-123480000D03*
X153340000Y-120940000D03*
X150800000Y-120940000D03*
X153340000Y-118400000D03*
X150800000Y-118400000D03*
X153340000Y-115860000D03*
X150800000Y-115860000D03*
X153340000Y-113320000D03*
X150800000Y-113320000D03*
X153340000Y-110780000D03*
X150800000Y-110780000D03*
X153340000Y-108240000D03*
X150800000Y-108240000D03*
X153340000Y-105700000D03*
X150800000Y-105700000D03*
X153340000Y-103160000D03*
X150800000Y-103160000D03*
X153340000Y-100620000D03*
X150800000Y-100620000D03*
X153340000Y-98080000D03*
X150800000Y-98080000D03*
X153340000Y-95540000D03*
X150800000Y-95540000D03*
X153340000Y-93000000D03*
X150800000Y-93000000D03*
X153340000Y-90460000D03*
X150800000Y-90460000D03*
X153340000Y-87920000D03*
X150800000Y-87920000D03*
X153340000Y-85380000D03*
X150800000Y-85380000D03*
X153340000Y-82840000D03*
X150800000Y-82840000D03*
X153340000Y-80300000D03*
X150800000Y-80300000D03*
X153340000Y-77760000D03*
X150800000Y-77760000D03*
X153340000Y-75220000D03*
D15*
X150800000Y-75220000D03*
D14*
X102530000Y-153960000D03*
X99990000Y-153960000D03*
X102530000Y-151420000D03*
X99990000Y-151420000D03*
X102530000Y-148880000D03*
X99990000Y-148880000D03*
X102530000Y-146340000D03*
X99990000Y-146340000D03*
X102530000Y-143800000D03*
X99990000Y-143800000D03*
X102530000Y-141260000D03*
X99990000Y-141260000D03*
X102530000Y-138720000D03*
X99990000Y-138720000D03*
X102530000Y-136180000D03*
X99990000Y-136180000D03*
X102530000Y-133640000D03*
X99990000Y-133640000D03*
X102530000Y-131100000D03*
X99990000Y-131100000D03*
X102530000Y-128560000D03*
X99990000Y-128560000D03*
X102530000Y-126020000D03*
X99990000Y-126020000D03*
X102530000Y-123480000D03*
X99990000Y-123480000D03*
X102530000Y-120940000D03*
X99990000Y-120940000D03*
X102530000Y-118400000D03*
X99990000Y-118400000D03*
X102530000Y-115860000D03*
X99990000Y-115860000D03*
X102530000Y-113320000D03*
X99990000Y-113320000D03*
X102530000Y-110780000D03*
X99990000Y-110780000D03*
X102530000Y-108240000D03*
X99990000Y-108240000D03*
X102530000Y-105700000D03*
X99990000Y-105700000D03*
X102530000Y-103160000D03*
X99990000Y-103160000D03*
X102530000Y-100620000D03*
X99990000Y-100620000D03*
X102530000Y-98080000D03*
X99990000Y-98080000D03*
X102530000Y-95540000D03*
X99990000Y-95540000D03*
X102530000Y-93000000D03*
X99990000Y-93000000D03*
X102530000Y-90460000D03*
X99990000Y-90460000D03*
X102530000Y-87920000D03*
X99990000Y-87920000D03*
X102530000Y-85380000D03*
X99990000Y-85380000D03*
X102530000Y-82840000D03*
X99990000Y-82840000D03*
X102530000Y-80300000D03*
X99990000Y-80300000D03*
X102530000Y-77760000D03*
X99990000Y-77760000D03*
X102530000Y-75220000D03*
D15*
X99990000Y-75220000D03*
D14*
X147066000Y-153987500D03*
X144526000Y-153987500D03*
X141986000Y-153987500D03*
D15*
X139446000Y-153987500D03*
D14*
X113842798Y-153974800D03*
X111302798Y-153974800D03*
X108762798Y-153974800D03*
D15*
X106222798Y-153974800D03*
D16*
X134188200Y-154838400D03*
X129108200Y-154838400D03*
X124028200Y-154838400D03*
D17*
X118948200Y-154838400D03*
X111823500Y-47200000D03*
D16*
X106743500Y-47200000D03*
D17*
X146500000Y-47200000D03*
D16*
X141420000Y-47200000D03*
X136340000Y-47200000D03*
X131260000Y-47200000D03*
G36*
G01*
X135431500Y-56957100D02*
X135431500Y-56657100D01*
G75*
G02*
X135581500Y-56507100I150000J0D01*
G01*
X137231500Y-56507100D01*
G75*
G02*
X137381500Y-56657100I0J-150000D01*
G01*
X137381500Y-56957100D01*
G75*
G02*
X137231500Y-57107100I-150000J0D01*
G01*
X135581500Y-57107100D01*
G75*
G02*
X135431500Y-56957100I0J150000D01*
G01*
G37*
G36*
G01*
X135431500Y-55687100D02*
X135431500Y-55387100D01*
G75*
G02*
X135581500Y-55237100I150000J0D01*
G01*
X137231500Y-55237100D01*
G75*
G02*
X137381500Y-55387100I0J-150000D01*
G01*
X137381500Y-55687100D01*
G75*
G02*
X137231500Y-55837100I-150000J0D01*
G01*
X135581500Y-55837100D01*
G75*
G02*
X135431500Y-55687100I0J150000D01*
G01*
G37*
G36*
G01*
X135431500Y-54417100D02*
X135431500Y-54117100D01*
G75*
G02*
X135581500Y-53967100I150000J0D01*
G01*
X137231500Y-53967100D01*
G75*
G02*
X137381500Y-54117100I0J-150000D01*
G01*
X137381500Y-54417100D01*
G75*
G02*
X137231500Y-54567100I-150000J0D01*
G01*
X135581500Y-54567100D01*
G75*
G02*
X135431500Y-54417100I0J150000D01*
G01*
G37*
G36*
G01*
X135431500Y-53147100D02*
X135431500Y-52847100D01*
G75*
G02*
X135581500Y-52697100I150000J0D01*
G01*
X137231500Y-52697100D01*
G75*
G02*
X137381500Y-52847100I0J-150000D01*
G01*
X137381500Y-53147100D01*
G75*
G02*
X137231500Y-53297100I-150000J0D01*
G01*
X135581500Y-53297100D01*
G75*
G02*
X135431500Y-53147100I0J150000D01*
G01*
G37*
G36*
G01*
X140381500Y-53147100D02*
X140381500Y-52847100D01*
G75*
G02*
X140531500Y-52697100I150000J0D01*
G01*
X142181500Y-52697100D01*
G75*
G02*
X142331500Y-52847100I0J-150000D01*
G01*
X142331500Y-53147100D01*
G75*
G02*
X142181500Y-53297100I-150000J0D01*
G01*
X140531500Y-53297100D01*
G75*
G02*
X140381500Y-53147100I0J150000D01*
G01*
G37*
G36*
G01*
X140381500Y-54417100D02*
X140381500Y-54117100D01*
G75*
G02*
X140531500Y-53967100I150000J0D01*
G01*
X142181500Y-53967100D01*
G75*
G02*
X142331500Y-54117100I0J-150000D01*
G01*
X142331500Y-54417100D01*
G75*
G02*
X142181500Y-54567100I-150000J0D01*
G01*
X140531500Y-54567100D01*
G75*
G02*
X140381500Y-54417100I0J150000D01*
G01*
G37*
G36*
G01*
X140381500Y-55687100D02*
X140381500Y-55387100D01*
G75*
G02*
X140531500Y-55237100I150000J0D01*
G01*
X142181500Y-55237100D01*
G75*
G02*
X142331500Y-55387100I0J-150000D01*
G01*
X142331500Y-55687100D01*
G75*
G02*
X142181500Y-55837100I-150000J0D01*
G01*
X140531500Y-55837100D01*
G75*
G02*
X140381500Y-55687100I0J150000D01*
G01*
G37*
G36*
G01*
X140381500Y-56957100D02*
X140381500Y-56657100D01*
G75*
G02*
X140531500Y-56507100I150000J0D01*
G01*
X142181500Y-56507100D01*
G75*
G02*
X142331500Y-56657100I0J-150000D01*
G01*
X142331500Y-56957100D01*
G75*
G02*
X142181500Y-57107100I-150000J0D01*
G01*
X140531500Y-57107100D01*
G75*
G02*
X140381500Y-56957100I0J150000D01*
G01*
G37*
G36*
G01*
X145461500Y-63611900D02*
X145461500Y-63311900D01*
G75*
G02*
X145611500Y-63161900I150000J0D01*
G01*
X147261500Y-63161900D01*
G75*
G02*
X147411500Y-63311900I0J-150000D01*
G01*
X147411500Y-63611900D01*
G75*
G02*
X147261500Y-63761900I-150000J0D01*
G01*
X145611500Y-63761900D01*
G75*
G02*
X145461500Y-63611900I0J150000D01*
G01*
G37*
G36*
G01*
X145461500Y-62341900D02*
X145461500Y-62041900D01*
G75*
G02*
X145611500Y-61891900I150000J0D01*
G01*
X147261500Y-61891900D01*
G75*
G02*
X147411500Y-62041900I0J-150000D01*
G01*
X147411500Y-62341900D01*
G75*
G02*
X147261500Y-62491900I-150000J0D01*
G01*
X145611500Y-62491900D01*
G75*
G02*
X145461500Y-62341900I0J150000D01*
G01*
G37*
G36*
G01*
X145461500Y-61071900D02*
X145461500Y-60771900D01*
G75*
G02*
X145611500Y-60621900I150000J0D01*
G01*
X147261500Y-60621900D01*
G75*
G02*
X147411500Y-60771900I0J-150000D01*
G01*
X147411500Y-61071900D01*
G75*
G02*
X147261500Y-61221900I-150000J0D01*
G01*
X145611500Y-61221900D01*
G75*
G02*
X145461500Y-61071900I0J150000D01*
G01*
G37*
G36*
G01*
X145461500Y-59801900D02*
X145461500Y-59501900D01*
G75*
G02*
X145611500Y-59351900I150000J0D01*
G01*
X147261500Y-59351900D01*
G75*
G02*
X147411500Y-59501900I0J-150000D01*
G01*
X147411500Y-59801900D01*
G75*
G02*
X147261500Y-59951900I-150000J0D01*
G01*
X145611500Y-59951900D01*
G75*
G02*
X145461500Y-59801900I0J150000D01*
G01*
G37*
G36*
G01*
X140511500Y-59801900D02*
X140511500Y-59501900D01*
G75*
G02*
X140661500Y-59351900I150000J0D01*
G01*
X142311500Y-59351900D01*
G75*
G02*
X142461500Y-59501900I0J-150000D01*
G01*
X142461500Y-59801900D01*
G75*
G02*
X142311500Y-59951900I-150000J0D01*
G01*
X140661500Y-59951900D01*
G75*
G02*
X140511500Y-59801900I0J150000D01*
G01*
G37*
G36*
G01*
X140511500Y-61071900D02*
X140511500Y-60771900D01*
G75*
G02*
X140661500Y-60621900I150000J0D01*
G01*
X142311500Y-60621900D01*
G75*
G02*
X142461500Y-60771900I0J-150000D01*
G01*
X142461500Y-61071900D01*
G75*
G02*
X142311500Y-61221900I-150000J0D01*
G01*
X140661500Y-61221900D01*
G75*
G02*
X140511500Y-61071900I0J150000D01*
G01*
G37*
G36*
G01*
X140511500Y-62341900D02*
X140511500Y-62041900D01*
G75*
G02*
X140661500Y-61891900I150000J0D01*
G01*
X142311500Y-61891900D01*
G75*
G02*
X142461500Y-62041900I0J-150000D01*
G01*
X142461500Y-62341900D01*
G75*
G02*
X142311500Y-62491900I-150000J0D01*
G01*
X140661500Y-62491900D01*
G75*
G02*
X140511500Y-62341900I0J150000D01*
G01*
G37*
G36*
G01*
X140511500Y-63611900D02*
X140511500Y-63311900D01*
G75*
G02*
X140661500Y-63161900I150000J0D01*
G01*
X142311500Y-63161900D01*
G75*
G02*
X142461500Y-63311900I0J-150000D01*
G01*
X142461500Y-63611900D01*
G75*
G02*
X142311500Y-63761900I-150000J0D01*
G01*
X140661500Y-63761900D01*
G75*
G02*
X140511500Y-63611900I0J150000D01*
G01*
G37*
D18*
X114560000Y-135620000D03*
X112020000Y-135620000D03*
X109480000Y-135620000D03*
X109480000Y-130030000D03*
X112020000Y-130030000D03*
X114560000Y-130030000D03*
X115316000Y-121285000D03*
X115316000Y-118745000D03*
X115316000Y-116205000D03*
X109791500Y-116205000D03*
X109791500Y-118745000D03*
X109791500Y-121285000D03*
X129336800Y-121716800D03*
X129336800Y-119176800D03*
X129336800Y-116636800D03*
X134823200Y-116636800D03*
X134823200Y-119176800D03*
X134823200Y-121716800D03*
X138360000Y-143150000D03*
X138360000Y-140610000D03*
X138360000Y-138070000D03*
X124870000Y-138070000D03*
X124870000Y-140610000D03*
X124870000Y-143150000D03*
D19*
X124000000Y-47800000D03*
D20*
X121460000Y-47800000D03*
X118920000Y-47800000D03*
M02*
