M48
; DRILL file {KiCad 5.1.10} date Tue Jul 20 09:34:27 2021
; FORMAT={-:-/ absolute / metric / decimal}
; #@! TF.CreationDate,2021-07-20T09:34:27+02:00
; #@! TF.GenerationSoftware,Kicad,Pcbnew,5.1.10
; #@! TF.FileFunction,Plated,1,2,PTH
FMAT,2
METRIC
T1C0.400
T2C0.800
T3C1.000
T4C1.300
T5C3.200
%
G90
G05
T1
X97.587Y-122.225
X97.587Y-123.139
X97.587Y-129.591
X97.587Y-130.454
X106.299Y-86.614
X106.83Y-142.99
X107.783Y-88.138
X109.156Y-105.6
X109.268Y-86.614
X109.399Y-161.214
X110.49Y-105.6
X110.666Y-161.214
X110.752Y-88.138
X112.236Y-86.614
X113.03Y-110.49
X113.721Y-88.138
X114.148Y-53.769
X114.3Y-160.528
X115.205Y-86.614
X115.316Y-161.29
X115.887Y-51.816
X115.887Y-53.118
X115.887Y-54.419
X116.689Y-88.138
X118.173Y-86.614
X119.658Y-88.138
X121.142Y-86.614
X121.607Y-107.85
X121.607Y-109.275
X122.626Y-88.138
X122.724Y-107.85
X122.724Y-109.275
X122.745Y-146.875
X123.842Y-107.85
X123.842Y-109.275
X124.111Y-86.614
X124.349Y-146.875
X125.595Y-88.138
X125.952Y-146.875
X126.051Y-113.182
X127.079Y-86.614
X127.556Y-146.875
X128.564Y-88.138
X129.159Y-146.875
X129.235Y-110.49
X129.35Y-138.303
X130.048Y-86.614
X130.683Y-137.414
X130.683Y-139.192
X131.26Y-66.923
X131.26Y-67.876
X132.055Y-125.895
X132.334Y-86.614
X132.334Y-105.6
X133.604Y-105.6
X133.718Y-88.138
X133.794Y-71.12
X133.794Y-72.517
X134.671Y-49.378
X134.874Y-70.421
X134.874Y-71.819
X134.874Y-73.215
X135.103Y-86.614
X135.636Y-51.74
X135.89Y-58.153
X135.89Y-59.868
X135.89Y-61.582
X135.89Y-63.297
X136.144Y-49.378
X136.366Y-50.648
X136.453Y-88.138
X136.55Y-59.011
X136.55Y-60.725
X136.55Y-62.44
X137.096Y-51.752
X137.211Y-58.153
X137.211Y-59.868
X137.211Y-61.582
X137.211Y-63.297
X137.617Y-49.378
X137.871Y-86.614
X138.36Y-146.24
X138.36Y-147.479
X138.36Y-148.717
X139.188Y-88.138
X139.903Y-49.378
X140.64Y-86.614
X140.662Y-50.216
X141.42Y-49.378
X141.42Y-51.054
X141.922Y-88.138
X142.287Y-50.216
X143.154Y-49.378
X143.154Y-51.054
X143.154Y-52.68
X143.154Y-53.95
X143.154Y-55.22
X143.408Y-86.614
X143.485Y-65.507
X144.716Y-88.265
X144.856Y-65.507
X145.339Y-49.378
X145.339Y-51.141
X145.339Y-52.905
X145.339Y-54.668
X145.339Y-56.432
X146.177Y-86.614
X146.215Y-50.259
X146.215Y-52.023
X146.215Y-53.786
X146.215Y-55.55
X147.015Y-52.905
X147.015Y-56.432
X147.066Y-54.668
X147.091Y-49.378
X147.091Y-51.141
X147.968Y-50.259
X147.968Y-52.023
X147.968Y-53.786
X147.968Y-55.55
X147.968Y-57.346
X147.968Y-59.109
X147.968Y-60.873
X147.968Y-62.636
X148.844Y-49.378
X148.844Y-51.141
X148.844Y-52.905
X148.844Y-54.668
X148.844Y-56.432
X148.844Y-58.195
X148.844Y-59.959
X148.844Y-61.722
T2
X109.48Y-130.03
X109.48Y-135.62
X109.791Y-116.205
X109.791Y-118.745
X109.791Y-121.285
X112.02Y-130.03
X112.02Y-135.62
X114.56Y-130.03
X114.56Y-135.62
X115.316Y-116.205
X115.316Y-118.745
X115.316Y-121.285
X124.87Y-138.07
X124.87Y-140.61
X124.87Y-143.15
X129.337Y-116.637
X129.337Y-119.177
X129.337Y-121.717
X134.823Y-116.637
X134.823Y-119.177
X134.823Y-121.717
X138.36Y-138.07
X138.36Y-140.61
X138.36Y-143.15
T3
X99.99Y-75.22
X99.99Y-77.76
X99.99Y-80.3
X99.99Y-82.84
X99.99Y-85.38
X99.99Y-87.92
X99.99Y-90.46
X99.99Y-93.0
X99.99Y-95.54
X99.99Y-98.08
X99.99Y-100.62
X99.99Y-103.16
X99.99Y-105.7
X99.99Y-108.24
X99.99Y-110.78
X99.99Y-113.32
X99.99Y-115.86
X99.99Y-118.4
X99.99Y-120.94
X99.99Y-123.48
X99.99Y-126.02
X99.99Y-128.56
X99.99Y-131.1
X99.99Y-133.64
X99.99Y-136.18
X99.99Y-138.72
X99.99Y-141.26
X99.99Y-143.8
X99.99Y-146.34
X99.99Y-148.88
X99.99Y-151.42
X99.99Y-153.96
X102.53Y-75.22
X102.53Y-77.76
X102.53Y-80.3
X102.53Y-82.84
X102.53Y-85.38
X102.53Y-87.92
X102.53Y-90.46
X102.53Y-93.0
X102.53Y-95.54
X102.53Y-98.08
X102.53Y-100.62
X102.53Y-103.16
X102.53Y-105.7
X102.53Y-108.24
X102.53Y-110.78
X102.53Y-113.32
X102.53Y-115.86
X102.53Y-118.4
X102.53Y-120.94
X102.53Y-123.48
X102.53Y-126.02
X102.53Y-128.56
X102.53Y-131.1
X102.53Y-133.64
X102.53Y-136.18
X102.53Y-138.72
X102.53Y-141.26
X102.53Y-143.8
X102.53Y-146.34
X102.53Y-148.88
X102.53Y-151.42
X102.53Y-153.96
X106.223Y-153.975
X108.763Y-153.975
X111.303Y-153.975
X113.843Y-153.975
X118.92Y-47.8
X121.46Y-47.8
X124.0Y-47.8
X139.446Y-153.987
X141.986Y-153.987
X144.526Y-153.987
X147.066Y-153.987
X150.8Y-75.22
X150.8Y-77.76
X150.8Y-80.3
X150.8Y-82.84
X150.8Y-85.38
X150.8Y-87.92
X150.8Y-90.46
X150.8Y-93.0
X150.8Y-95.54
X150.8Y-98.08
X150.8Y-100.62
X150.8Y-103.16
X150.8Y-105.7
X150.8Y-108.24
X150.8Y-110.78
X150.8Y-113.32
X150.8Y-115.86
X150.8Y-118.4
X150.8Y-120.94
X150.8Y-123.48
X150.8Y-126.02
X150.8Y-128.56
X150.8Y-131.1
X150.8Y-133.64
X150.8Y-136.18
X150.8Y-138.72
X150.8Y-141.26
X150.8Y-143.8
X150.8Y-146.34
X150.8Y-148.88
X150.8Y-151.42
X150.8Y-153.96
X153.34Y-75.22
X153.34Y-77.76
X153.34Y-80.3
X153.34Y-82.84
X153.34Y-85.38
X153.34Y-87.92
X153.34Y-90.46
X153.34Y-93.0
X153.34Y-95.54
X153.34Y-98.08
X153.34Y-100.62
X153.34Y-103.16
X153.34Y-105.7
X153.34Y-108.24
X153.34Y-110.78
X153.34Y-113.32
X153.34Y-115.86
X153.34Y-118.4
X153.34Y-120.94
X153.34Y-123.48
X153.34Y-126.02
X153.34Y-128.56
X153.34Y-131.1
X153.34Y-133.64
X153.34Y-136.18
X153.34Y-138.72
X153.34Y-141.26
X153.34Y-143.8
X153.34Y-146.34
X153.34Y-148.88
X153.34Y-151.42
X153.34Y-153.96
T4
X106.743Y-47.2
X111.823Y-47.2
X118.948Y-154.838
X124.028Y-154.838
X129.108Y-154.838
X131.26Y-47.2
X134.188Y-154.838
X136.34Y-47.2
X141.42Y-47.2
X146.5Y-47.2
T5
X98.0Y-46.0
X98.0Y-161.5
X155.0Y-46.0
X155.0Y-161.5
T0
M30
