G04 #@! TF.GenerationSoftware,KiCad,Pcbnew,5.1.10*
G04 #@! TF.CreationDate,2021-07-20T09:34:09+02:00*
G04 #@! TF.ProjectId,MEV_board,4d45565f-626f-4617-9264-2e6b69636164,rev?*
G04 #@! TF.SameCoordinates,Original*
G04 #@! TF.FileFunction,Legend,Top*
G04 #@! TF.FilePolarity,Positive*
%FSLAX46Y46*%
G04 Gerber Fmt 4.6, Leading zero omitted, Abs format (unit mm)*
G04 Created by KiCad (PCBNEW 5.1.10) date 2021-07-20 09:34:09*
%MOMM*%
%LPD*%
G01*
G04 APERTURE LIST*
%ADD10C,0.120000*%
%ADD11C,0.150000*%
%ADD12C,6.400000*%
%ADD13C,3.600000*%
%ADD14O,1.700000X1.700000*%
%ADD15R,1.700000X1.700000*%
%ADD16R,4.500000X3.300000*%
%ADD17R,0.900000X0.800000*%
%ADD18R,0.800000X0.900000*%
%ADD19C,2.600000*%
%ADD20R,2.600000X2.600000*%
%ADD21C,1.440000*%
%ADD22R,1.450000X0.450000*%
%ADD23R,1.500000X2.500000*%
%ADD24O,1.500000X2.500000*%
G04 APERTURE END LIST*
D10*
X133844467Y-138700000D02*
X133551933Y-138700000D01*
X133844467Y-139720000D02*
X133551933Y-139720000D01*
X122121200Y-114203467D02*
X122121200Y-113910933D01*
X123141200Y-114203467D02*
X123141200Y-113910933D01*
X119962664Y-115492200D02*
X119508536Y-115492200D01*
X119962664Y-114022200D02*
X119508536Y-114022200D01*
X149470000Y-155290000D02*
X154670000Y-155290000D01*
X149470000Y-76490000D02*
X149470000Y-155290000D01*
X154670000Y-73890000D02*
X154670000Y-155290000D01*
X149470000Y-76490000D02*
X152070000Y-76490000D01*
X152070000Y-76490000D02*
X152070000Y-73890000D01*
X152070000Y-73890000D02*
X154670000Y-73890000D01*
X149470000Y-75220000D02*
X149470000Y-73890000D01*
X149470000Y-73890000D02*
X150800000Y-73890000D01*
X98660000Y-155290000D02*
X103860000Y-155290000D01*
X98660000Y-76490000D02*
X98660000Y-155290000D01*
X103860000Y-73890000D02*
X103860000Y-155290000D01*
X98660000Y-76490000D02*
X101260000Y-76490000D01*
X101260000Y-76490000D02*
X101260000Y-73890000D01*
X101260000Y-73890000D02*
X103860000Y-73890000D01*
X98660000Y-75220000D02*
X98660000Y-73890000D01*
X98660000Y-73890000D02*
X99990000Y-73890000D01*
X113637600Y-50881233D02*
X113637600Y-51173767D01*
X114657600Y-50881233D02*
X114657600Y-51173767D01*
X118723148Y-109573000D02*
X119245652Y-109573000D01*
X118723148Y-111043000D02*
X119245652Y-111043000D01*
X127989400Y-105499252D02*
X127989400Y-104976748D01*
X126519400Y-105499252D02*
X126519400Y-104976748D01*
X118723148Y-108963000D02*
X119245652Y-108963000D01*
X118723148Y-107493000D02*
X119245652Y-107493000D01*
X124479400Y-105499252D02*
X124479400Y-104976748D01*
X125949400Y-105499252D02*
X125949400Y-104976748D01*
X123899200Y-113910933D02*
X123899200Y-114203467D01*
X124919200Y-113910933D02*
X124919200Y-114203467D01*
X114188900Y-101899233D02*
X114188900Y-102191767D01*
X115208900Y-101899233D02*
X115208900Y-102191767D01*
X116748900Y-101899233D02*
X116748900Y-102191767D01*
X115728900Y-101899233D02*
X115728900Y-102191767D01*
X114455000Y-143923752D02*
X114455000Y-143401248D01*
X112985000Y-143923752D02*
X112985000Y-143401248D01*
X109295000Y-143923752D02*
X109295000Y-143401248D01*
X110765000Y-143923752D02*
X110765000Y-143401248D01*
X132384852Y-98172600D02*
X131862348Y-98172600D01*
X132384852Y-99642600D02*
X131862348Y-99642600D01*
X132384852Y-101700000D02*
X131862348Y-101700000D01*
X132384852Y-100230000D02*
X131862348Y-100230000D01*
X123209248Y-51862601D02*
X123731752Y-51862601D01*
X123209248Y-50392601D02*
X123731752Y-50392601D01*
X123209248Y-54687800D02*
X123731752Y-54687800D01*
X123209248Y-56157800D02*
X123731752Y-56157800D01*
X123209248Y-54024200D02*
X123731752Y-54024200D01*
X123209248Y-52554200D02*
X123731752Y-52554200D01*
X132039867Y-110796800D02*
X131747333Y-110796800D01*
X132039867Y-109776800D02*
X131747333Y-109776800D01*
X110359648Y-109755000D02*
X110882152Y-109755000D01*
X110359648Y-111225000D02*
X110882152Y-111225000D01*
X119689252Y-54687800D02*
X119166748Y-54687800D01*
X119689252Y-56157800D02*
X119166748Y-56157800D01*
X119689252Y-52554200D02*
X119166748Y-52554200D01*
X119689252Y-54024200D02*
X119166748Y-54024200D01*
X110699333Y-101693000D02*
X110991867Y-101693000D01*
X110699333Y-100673000D02*
X110991867Y-100673000D01*
X119689252Y-51862601D02*
X119166748Y-51862601D01*
X119689252Y-50392601D02*
X119166748Y-50392601D01*
X133551933Y-136910000D02*
X133844467Y-136910000D01*
X133551933Y-137930000D02*
X133844467Y-137930000D01*
X135079200Y-67880533D02*
X135079200Y-68173067D01*
X134059200Y-67880533D02*
X134059200Y-68173067D01*
X129540000Y-56894800D02*
X129540000Y-50394800D01*
X129540000Y-56894800D02*
X140740000Y-56894800D01*
X129540000Y-50394800D02*
X140740000Y-50394800D01*
X129540000Y-57354400D02*
X140740000Y-57354400D01*
X129540000Y-63854400D02*
X140740000Y-63854400D01*
X129540000Y-63854400D02*
X129540000Y-57354400D01*
X118054400Y-103788000D02*
X118054400Y-104718000D01*
X118054400Y-106948000D02*
X118054400Y-106018000D01*
X118054400Y-106948000D02*
X120214400Y-106948000D01*
X118054400Y-103788000D02*
X119514400Y-103788000D01*
X123954400Y-104658000D02*
X123954400Y-106118000D01*
X120794400Y-104658000D02*
X120794400Y-106818000D01*
X120794400Y-104658000D02*
X121724400Y-104658000D01*
X123954400Y-104658000D02*
X123024400Y-104658000D01*
X118183200Y-144907064D02*
X118183200Y-144452936D01*
X119653200Y-144907064D02*
X119653200Y-144452936D01*
X120145000Y-144907064D02*
X120145000Y-144452936D01*
X121615000Y-144907064D02*
X121615000Y-144452936D01*
X117692936Y-136355000D02*
X118147064Y-136355000D01*
X117692936Y-134885000D02*
X118147064Y-134885000D01*
X119652936Y-130755000D02*
X120107064Y-130755000D01*
X119652936Y-129285000D02*
X120107064Y-129285000D01*
X111818750Y-117432064D02*
X111818750Y-116977936D01*
X113288750Y-117432064D02*
X113288750Y-116977936D01*
X126823736Y-114022200D02*
X127277864Y-114022200D01*
X126823736Y-115492200D02*
X127277864Y-115492200D01*
X131345000Y-118387864D02*
X131345000Y-117933736D01*
X132815000Y-118387864D02*
X132815000Y-117933736D01*
X116676750Y-117477436D02*
X116676750Y-117931564D01*
X118146750Y-117477436D02*
X118146750Y-117931564D01*
X126290150Y-117962436D02*
X126290150Y-118416564D01*
X127760150Y-117962436D02*
X127760150Y-118416564D01*
X118609676Y-112660500D02*
X119119124Y-112660500D01*
X118609676Y-111615500D02*
X119119124Y-111615500D01*
X126489124Y-110050500D02*
X125979676Y-110050500D01*
X126489124Y-109005500D02*
X125979676Y-109005500D01*
X116786900Y-109013276D02*
X116786900Y-109522724D01*
X115741900Y-109013276D02*
X115741900Y-109522724D01*
X125979676Y-108510500D02*
X126489124Y-108510500D01*
X125979676Y-107465500D02*
X126489124Y-107465500D01*
X123444724Y-99480900D02*
X122935276Y-99480900D01*
X123444724Y-98435900D02*
X122935276Y-98435900D01*
X121283400Y-98067864D02*
X121283400Y-97613736D01*
X119813400Y-98067864D02*
X119813400Y-97613736D01*
X112382500Y-144147224D02*
X112382500Y-143637776D01*
X111337500Y-144147224D02*
X111337500Y-143637776D01*
X108722500Y-143637776D02*
X108722500Y-144147224D01*
X107677500Y-143637776D02*
X107677500Y-144147224D01*
X110780300Y-156691876D02*
X110780300Y-157201324D01*
X111825300Y-156691876D02*
X111825300Y-157201324D01*
X109285300Y-156691876D02*
X109285300Y-157201324D01*
X108240300Y-156691876D02*
X108240300Y-157201324D01*
X144003500Y-156691876D02*
X144003500Y-157201324D01*
X145048500Y-156691876D02*
X145048500Y-157201324D01*
X142508500Y-156691876D02*
X142508500Y-157201324D01*
X141463500Y-156691876D02*
X141463500Y-157201324D01*
X135182936Y-147065000D02*
X135637064Y-147065000D01*
X135182936Y-148535000D02*
X135637064Y-148535000D01*
X116485000Y-143927064D02*
X116485000Y-143472936D01*
X115015000Y-143927064D02*
X115015000Y-143472936D01*
X141125000Y-142377064D02*
X141125000Y-141922936D01*
X139655000Y-142377064D02*
X139655000Y-141922936D01*
X126165000Y-143612936D02*
X126165000Y-144067064D01*
X127635000Y-143612936D02*
X127635000Y-144067064D01*
X137135000Y-141307064D02*
X137135000Y-140852936D01*
X135665000Y-141307064D02*
X135665000Y-140852936D01*
X126165000Y-140272064D02*
X126165000Y-139817936D01*
X127635000Y-140272064D02*
X127635000Y-139817936D01*
X142826824Y-69712100D02*
X142317376Y-69712100D01*
X142826824Y-68667100D02*
X142317376Y-68667100D01*
X142826824Y-67092300D02*
X142317376Y-67092300D01*
X142826824Y-68137300D02*
X142317376Y-68137300D01*
X109474000Y-49510000D02*
X106024000Y-49510000D01*
X109474000Y-49510000D02*
X111424000Y-49510000D01*
X109474000Y-54630000D02*
X107524000Y-54630000D01*
X109474000Y-54630000D02*
X111424000Y-54630000D01*
X122237500Y-121114500D02*
X124187500Y-121114500D01*
X122237500Y-121114500D02*
X120287500Y-121114500D01*
X122237500Y-115994500D02*
X124187500Y-115994500D01*
X122237500Y-115994500D02*
X118787500Y-115994500D01*
X120594400Y-99888000D02*
X117594400Y-99888000D01*
X121594400Y-103128000D02*
X119594400Y-103128000D01*
X130383600Y-105741401D02*
X130383600Y-109191401D01*
X130383600Y-105741401D02*
X130383600Y-103791401D01*
X135503600Y-105741401D02*
X135503600Y-107691401D01*
X135503600Y-105741401D02*
X135503600Y-103791401D01*
X107235600Y-105741401D02*
X107235600Y-107691401D01*
X107235600Y-105741401D02*
X107235600Y-103791401D01*
X112355600Y-105741401D02*
X112355600Y-107691401D01*
X112355600Y-105741401D02*
X112355600Y-102291401D01*
X135539800Y-70076800D02*
X135539800Y-73526800D01*
X135539800Y-70076800D02*
X135539800Y-68126800D01*
X140659800Y-70076800D02*
X140659800Y-72026800D01*
X140659800Y-70076800D02*
X140659800Y-68126800D01*
X131648200Y-140390000D02*
X128198200Y-140390000D01*
X131648200Y-140390000D02*
X133598200Y-140390000D01*
X131648200Y-145510000D02*
X129698200Y-145510000D01*
X131648200Y-145510000D02*
X133598200Y-145510000D01*
X110032800Y-159288800D02*
X106582800Y-159288800D01*
X110032800Y-159288800D02*
X111982800Y-159288800D01*
X110032800Y-164408800D02*
X108082800Y-164408800D01*
X110032800Y-164408800D02*
X111982800Y-164408800D01*
D11*
X133055342Y-136157142D02*
X133007723Y-136204761D01*
X132864866Y-136252380D01*
X132769628Y-136252380D01*
X132626771Y-136204761D01*
X132531533Y-136109523D01*
X132483914Y-136014285D01*
X132436295Y-135823809D01*
X132436295Y-135680952D01*
X132483914Y-135490476D01*
X132531533Y-135395238D01*
X132626771Y-135300000D01*
X132769628Y-135252380D01*
X132864866Y-135252380D01*
X133007723Y-135300000D01*
X133055342Y-135347619D01*
X133436295Y-135347619D02*
X133483914Y-135300000D01*
X133579152Y-135252380D01*
X133817247Y-135252380D01*
X133912485Y-135300000D01*
X133960104Y-135347619D01*
X134007723Y-135442857D01*
X134007723Y-135538095D01*
X133960104Y-135680952D01*
X133388676Y-136252380D01*
X134007723Y-136252380D01*
X134864866Y-135585714D02*
X134864866Y-136252380D01*
X134626771Y-135204761D02*
X134388676Y-135919047D01*
X135007723Y-135919047D01*
X121657142Y-112766666D02*
X121704761Y-112814285D01*
X121752380Y-112957142D01*
X121752380Y-113052380D01*
X121704761Y-113195238D01*
X121609523Y-113290476D01*
X121514285Y-113338095D01*
X121323809Y-113385714D01*
X121180952Y-113385714D01*
X120990476Y-113338095D01*
X120895238Y-113290476D01*
X120800000Y-113195238D01*
X120752380Y-113052380D01*
X120752380Y-112957142D01*
X120800000Y-112814285D01*
X120847619Y-112766666D01*
X120752380Y-112433333D02*
X120752380Y-111766666D01*
X121752380Y-112195238D01*
X116673333Y-115260380D02*
X116340000Y-114784190D01*
X116101904Y-115260380D02*
X116101904Y-114260380D01*
X116482857Y-114260380D01*
X116578095Y-114308000D01*
X116625714Y-114355619D01*
X116673333Y-114450857D01*
X116673333Y-114593714D01*
X116625714Y-114688952D01*
X116578095Y-114736571D01*
X116482857Y-114784190D01*
X116101904Y-114784190D01*
X117578095Y-114260380D02*
X117101904Y-114260380D01*
X117054285Y-114736571D01*
X117101904Y-114688952D01*
X117197142Y-114641333D01*
X117435238Y-114641333D01*
X117530476Y-114688952D01*
X117578095Y-114736571D01*
X117625714Y-114831809D01*
X117625714Y-115069904D01*
X117578095Y-115165142D01*
X117530476Y-115212761D01*
X117435238Y-115260380D01*
X117197142Y-115260380D01*
X117101904Y-115212761D01*
X117054285Y-115165142D01*
X151331904Y-73342380D02*
X151331904Y-72342380D01*
X151712857Y-72342380D01*
X151808095Y-72390000D01*
X151855714Y-72437619D01*
X151903333Y-72532857D01*
X151903333Y-72675714D01*
X151855714Y-72770952D01*
X151808095Y-72818571D01*
X151712857Y-72866190D01*
X151331904Y-72866190D01*
X152284285Y-72437619D02*
X152331904Y-72390000D01*
X152427142Y-72342380D01*
X152665238Y-72342380D01*
X152760476Y-72390000D01*
X152808095Y-72437619D01*
X152855714Y-72532857D01*
X152855714Y-72628095D01*
X152808095Y-72770952D01*
X152236666Y-73342380D01*
X152855714Y-73342380D01*
X100521904Y-73342380D02*
X100521904Y-72342380D01*
X100902857Y-72342380D01*
X100998095Y-72390000D01*
X101045714Y-72437619D01*
X101093333Y-72532857D01*
X101093333Y-72675714D01*
X101045714Y-72770952D01*
X100998095Y-72818571D01*
X100902857Y-72866190D01*
X100521904Y-72866190D01*
X102045714Y-73342380D02*
X101474285Y-73342380D01*
X101760000Y-73342380D02*
X101760000Y-72342380D01*
X101664761Y-72485238D01*
X101569523Y-72580476D01*
X101474285Y-72628095D01*
X114466642Y-48236166D02*
X114514261Y-48283785D01*
X114561880Y-48426642D01*
X114561880Y-48521880D01*
X114514261Y-48664738D01*
X114419023Y-48759976D01*
X114323785Y-48807595D01*
X114133309Y-48855214D01*
X113990452Y-48855214D01*
X113799976Y-48807595D01*
X113704738Y-48759976D01*
X113609500Y-48664738D01*
X113561880Y-48521880D01*
X113561880Y-48426642D01*
X113609500Y-48283785D01*
X113657119Y-48236166D01*
X114561880Y-47283785D02*
X114561880Y-47855214D01*
X114561880Y-47569500D02*
X113561880Y-47569500D01*
X113704738Y-47664738D01*
X113799976Y-47759976D01*
X113847595Y-47855214D01*
X121943833Y-110720142D02*
X121896214Y-110767761D01*
X121753357Y-110815380D01*
X121658119Y-110815380D01*
X121515261Y-110767761D01*
X121420023Y-110672523D01*
X121372404Y-110577285D01*
X121324785Y-110386809D01*
X121324785Y-110243952D01*
X121372404Y-110053476D01*
X121420023Y-109958238D01*
X121515261Y-109863000D01*
X121658119Y-109815380D01*
X121753357Y-109815380D01*
X121896214Y-109863000D01*
X121943833Y-109910619D01*
X122324785Y-109910619D02*
X122372404Y-109863000D01*
X122467642Y-109815380D01*
X122705738Y-109815380D01*
X122800976Y-109863000D01*
X122848595Y-109910619D01*
X122896214Y-110005857D01*
X122896214Y-110101095D01*
X122848595Y-110243952D01*
X122277166Y-110815380D01*
X122896214Y-110815380D01*
X127611142Y-102274666D02*
X127658761Y-102322285D01*
X127706380Y-102465142D01*
X127706380Y-102560380D01*
X127658761Y-102703238D01*
X127563523Y-102798476D01*
X127468285Y-102846095D01*
X127277809Y-102893714D01*
X127134952Y-102893714D01*
X126944476Y-102846095D01*
X126849238Y-102798476D01*
X126754000Y-102703238D01*
X126706380Y-102560380D01*
X126706380Y-102465142D01*
X126754000Y-102322285D01*
X126801619Y-102274666D01*
X126706380Y-101941333D02*
X126706380Y-101322285D01*
X127087333Y-101655619D01*
X127087333Y-101512761D01*
X127134952Y-101417523D01*
X127182571Y-101369904D01*
X127277809Y-101322285D01*
X127515904Y-101322285D01*
X127611142Y-101369904D01*
X127658761Y-101417523D01*
X127706380Y-101512761D01*
X127706380Y-101798476D01*
X127658761Y-101893714D01*
X127611142Y-101941333D01*
X125579142Y-102274666D02*
X125626761Y-102322285D01*
X125674380Y-102465142D01*
X125674380Y-102560380D01*
X125626761Y-102703238D01*
X125531523Y-102798476D01*
X125436285Y-102846095D01*
X125245809Y-102893714D01*
X125102952Y-102893714D01*
X124912476Y-102846095D01*
X124817238Y-102798476D01*
X124722000Y-102703238D01*
X124674380Y-102560380D01*
X124674380Y-102465142D01*
X124722000Y-102322285D01*
X124769619Y-102274666D01*
X124674380Y-101369904D02*
X124674380Y-101846095D01*
X125150571Y-101893714D01*
X125102952Y-101846095D01*
X125055333Y-101750857D01*
X125055333Y-101512761D01*
X125102952Y-101417523D01*
X125150571Y-101369904D01*
X125245809Y-101322285D01*
X125483904Y-101322285D01*
X125579142Y-101369904D01*
X125626761Y-101417523D01*
X125674380Y-101512761D01*
X125674380Y-101750857D01*
X125626761Y-101846095D01*
X125579142Y-101893714D01*
X115101642Y-99099666D02*
X115149261Y-99147285D01*
X115196880Y-99290142D01*
X115196880Y-99385380D01*
X115149261Y-99528238D01*
X115054023Y-99623476D01*
X114958785Y-99671095D01*
X114768309Y-99718714D01*
X114625452Y-99718714D01*
X114434976Y-99671095D01*
X114339738Y-99623476D01*
X114244500Y-99528238D01*
X114196880Y-99385380D01*
X114196880Y-99290142D01*
X114244500Y-99147285D01*
X114292119Y-99099666D01*
X114625452Y-98528238D02*
X114577833Y-98623476D01*
X114530214Y-98671095D01*
X114434976Y-98718714D01*
X114387357Y-98718714D01*
X114292119Y-98671095D01*
X114244500Y-98623476D01*
X114196880Y-98528238D01*
X114196880Y-98337761D01*
X114244500Y-98242523D01*
X114292119Y-98194904D01*
X114387357Y-98147285D01*
X114434976Y-98147285D01*
X114530214Y-98194904D01*
X114577833Y-98242523D01*
X114625452Y-98337761D01*
X114625452Y-98528238D01*
X114673071Y-98623476D01*
X114720690Y-98671095D01*
X114815928Y-98718714D01*
X115006404Y-98718714D01*
X115101642Y-98671095D01*
X115149261Y-98623476D01*
X115196880Y-98528238D01*
X115196880Y-98337761D01*
X115149261Y-98242523D01*
X115101642Y-98194904D01*
X115006404Y-98147285D01*
X114815928Y-98147285D01*
X114720690Y-98194904D01*
X114673071Y-98242523D01*
X114625452Y-98337761D01*
X116625642Y-99099666D02*
X116673261Y-99147285D01*
X116720880Y-99290142D01*
X116720880Y-99385380D01*
X116673261Y-99528238D01*
X116578023Y-99623476D01*
X116482785Y-99671095D01*
X116292309Y-99718714D01*
X116149452Y-99718714D01*
X115958976Y-99671095D01*
X115863738Y-99623476D01*
X115768500Y-99528238D01*
X115720880Y-99385380D01*
X115720880Y-99290142D01*
X115768500Y-99147285D01*
X115816119Y-99099666D01*
X116720880Y-98623476D02*
X116720880Y-98433000D01*
X116673261Y-98337761D01*
X116625642Y-98290142D01*
X116482785Y-98194904D01*
X116292309Y-98147285D01*
X115911357Y-98147285D01*
X115816119Y-98194904D01*
X115768500Y-98242523D01*
X115720880Y-98337761D01*
X115720880Y-98528238D01*
X115768500Y-98623476D01*
X115816119Y-98671095D01*
X115911357Y-98718714D01*
X116149452Y-98718714D01*
X116244690Y-98671095D01*
X116292309Y-98623476D01*
X116339928Y-98528238D01*
X116339928Y-98337761D01*
X116292309Y-98242523D01*
X116244690Y-98194904D01*
X116149452Y-98147285D01*
X114149142Y-147835857D02*
X114196761Y-147883476D01*
X114244380Y-148026333D01*
X114244380Y-148121571D01*
X114196761Y-148264428D01*
X114101523Y-148359666D01*
X114006285Y-148407285D01*
X113815809Y-148454904D01*
X113672952Y-148454904D01*
X113482476Y-148407285D01*
X113387238Y-148359666D01*
X113292000Y-148264428D01*
X113244380Y-148121571D01*
X113244380Y-148026333D01*
X113292000Y-147883476D01*
X113339619Y-147835857D01*
X114244380Y-146883476D02*
X114244380Y-147454904D01*
X114244380Y-147169190D02*
X113244380Y-147169190D01*
X113387238Y-147264428D01*
X113482476Y-147359666D01*
X113530095Y-147454904D01*
X113244380Y-146264428D02*
X113244380Y-146169190D01*
X113292000Y-146073952D01*
X113339619Y-146026333D01*
X113434857Y-145978714D01*
X113625333Y-145931095D01*
X113863428Y-145931095D01*
X114053904Y-145978714D01*
X114149142Y-146026333D01*
X114196761Y-146073952D01*
X114244380Y-146169190D01*
X114244380Y-146264428D01*
X114196761Y-146359666D01*
X114149142Y-146407285D01*
X114053904Y-146454904D01*
X113863428Y-146502523D01*
X113625333Y-146502523D01*
X113434857Y-146454904D01*
X113339619Y-146407285D01*
X113292000Y-146359666D01*
X113244380Y-146264428D01*
X110402642Y-147835857D02*
X110450261Y-147883476D01*
X110497880Y-148026333D01*
X110497880Y-148121571D01*
X110450261Y-148264428D01*
X110355023Y-148359666D01*
X110259785Y-148407285D01*
X110069309Y-148454904D01*
X109926452Y-148454904D01*
X109735976Y-148407285D01*
X109640738Y-148359666D01*
X109545500Y-148264428D01*
X109497880Y-148121571D01*
X109497880Y-148026333D01*
X109545500Y-147883476D01*
X109593119Y-147835857D01*
X110497880Y-146883476D02*
X110497880Y-147454904D01*
X110497880Y-147169190D02*
X109497880Y-147169190D01*
X109640738Y-147264428D01*
X109735976Y-147359666D01*
X109783595Y-147454904D01*
X110497880Y-145931095D02*
X110497880Y-146502523D01*
X110497880Y-146216809D02*
X109497880Y-146216809D01*
X109640738Y-146312047D01*
X109735976Y-146407285D01*
X109783595Y-146502523D01*
X135196342Y-99315542D02*
X135148723Y-99363161D01*
X135005866Y-99410780D01*
X134910628Y-99410780D01*
X134767771Y-99363161D01*
X134672533Y-99267923D01*
X134624914Y-99172685D01*
X134577295Y-98982209D01*
X134577295Y-98839352D01*
X134624914Y-98648876D01*
X134672533Y-98553638D01*
X134767771Y-98458400D01*
X134910628Y-98410780D01*
X135005866Y-98410780D01*
X135148723Y-98458400D01*
X135196342Y-98506019D01*
X136148723Y-99410780D02*
X135577295Y-99410780D01*
X135863009Y-99410780D02*
X135863009Y-98410780D01*
X135767771Y-98553638D01*
X135672533Y-98648876D01*
X135577295Y-98696495D01*
X136529676Y-98506019D02*
X136577295Y-98458400D01*
X136672533Y-98410780D01*
X136910628Y-98410780D01*
X137005866Y-98458400D01*
X137053485Y-98506019D01*
X137101104Y-98601257D01*
X137101104Y-98696495D01*
X137053485Y-98839352D01*
X136482057Y-99410780D01*
X137101104Y-99410780D01*
X135196342Y-101347542D02*
X135148723Y-101395161D01*
X135005866Y-101442780D01*
X134910628Y-101442780D01*
X134767771Y-101395161D01*
X134672533Y-101299923D01*
X134624914Y-101204685D01*
X134577295Y-101014209D01*
X134577295Y-100871352D01*
X134624914Y-100680876D01*
X134672533Y-100585638D01*
X134767771Y-100490400D01*
X134910628Y-100442780D01*
X135005866Y-100442780D01*
X135148723Y-100490400D01*
X135196342Y-100538019D01*
X136148723Y-101442780D02*
X135577295Y-101442780D01*
X135863009Y-101442780D02*
X135863009Y-100442780D01*
X135767771Y-100585638D01*
X135672533Y-100680876D01*
X135577295Y-100728495D01*
X136482057Y-100442780D02*
X137101104Y-100442780D01*
X136767771Y-100823733D01*
X136910628Y-100823733D01*
X137005866Y-100871352D01*
X137053485Y-100918971D01*
X137101104Y-101014209D01*
X137101104Y-101252304D01*
X137053485Y-101347542D01*
X137005866Y-101395161D01*
X136910628Y-101442780D01*
X136624914Y-101442780D01*
X136529676Y-101395161D01*
X136482057Y-101347542D01*
X126420642Y-51474642D02*
X126373023Y-51522261D01*
X126230166Y-51569880D01*
X126134928Y-51569880D01*
X125992071Y-51522261D01*
X125896833Y-51427023D01*
X125849214Y-51331785D01*
X125801595Y-51141309D01*
X125801595Y-50998452D01*
X125849214Y-50807976D01*
X125896833Y-50712738D01*
X125992071Y-50617500D01*
X126134928Y-50569880D01*
X126230166Y-50569880D01*
X126373023Y-50617500D01*
X126420642Y-50665119D01*
X127373023Y-51569880D02*
X126801595Y-51569880D01*
X127087309Y-51569880D02*
X127087309Y-50569880D01*
X126992071Y-50712738D01*
X126896833Y-50807976D01*
X126801595Y-50855595D01*
X128230166Y-50903214D02*
X128230166Y-51569880D01*
X127992071Y-50522261D02*
X127753976Y-51236547D01*
X128373023Y-51236547D01*
X126420642Y-55729142D02*
X126373023Y-55776761D01*
X126230166Y-55824380D01*
X126134928Y-55824380D01*
X125992071Y-55776761D01*
X125896833Y-55681523D01*
X125849214Y-55586285D01*
X125801595Y-55395809D01*
X125801595Y-55252952D01*
X125849214Y-55062476D01*
X125896833Y-54967238D01*
X125992071Y-54872000D01*
X126134928Y-54824380D01*
X126230166Y-54824380D01*
X126373023Y-54872000D01*
X126420642Y-54919619D01*
X127373023Y-55824380D02*
X126801595Y-55824380D01*
X127087309Y-55824380D02*
X127087309Y-54824380D01*
X126992071Y-54967238D01*
X126896833Y-55062476D01*
X126801595Y-55110095D01*
X128277785Y-54824380D02*
X127801595Y-54824380D01*
X127753976Y-55300571D01*
X127801595Y-55252952D01*
X127896833Y-55205333D01*
X128134928Y-55205333D01*
X128230166Y-55252952D01*
X128277785Y-55300571D01*
X128325404Y-55395809D01*
X128325404Y-55633904D01*
X128277785Y-55729142D01*
X128230166Y-55776761D01*
X128134928Y-55824380D01*
X127896833Y-55824380D01*
X127801595Y-55776761D01*
X127753976Y-55729142D01*
X126420642Y-53633642D02*
X126373023Y-53681261D01*
X126230166Y-53728880D01*
X126134928Y-53728880D01*
X125992071Y-53681261D01*
X125896833Y-53586023D01*
X125849214Y-53490785D01*
X125801595Y-53300309D01*
X125801595Y-53157452D01*
X125849214Y-52966976D01*
X125896833Y-52871738D01*
X125992071Y-52776500D01*
X126134928Y-52728880D01*
X126230166Y-52728880D01*
X126373023Y-52776500D01*
X126420642Y-52824119D01*
X127373023Y-53728880D02*
X126801595Y-53728880D01*
X127087309Y-53728880D02*
X127087309Y-52728880D01*
X126992071Y-52871738D01*
X126896833Y-52966976D01*
X126801595Y-53014595D01*
X128230166Y-52728880D02*
X128039690Y-52728880D01*
X127944452Y-52776500D01*
X127896833Y-52824119D01*
X127801595Y-52966976D01*
X127753976Y-53157452D01*
X127753976Y-53538404D01*
X127801595Y-53633642D01*
X127849214Y-53681261D01*
X127944452Y-53728880D01*
X128134928Y-53728880D01*
X128230166Y-53681261D01*
X128277785Y-53633642D01*
X128325404Y-53538404D01*
X128325404Y-53300309D01*
X128277785Y-53205071D01*
X128230166Y-53157452D01*
X128134928Y-53109833D01*
X127944452Y-53109833D01*
X127849214Y-53157452D01*
X127801595Y-53205071D01*
X127753976Y-53300309D01*
X131250742Y-112073942D02*
X131203123Y-112121561D01*
X131060266Y-112169180D01*
X130965028Y-112169180D01*
X130822171Y-112121561D01*
X130726933Y-112026323D01*
X130679314Y-111931085D01*
X130631695Y-111740609D01*
X130631695Y-111597752D01*
X130679314Y-111407276D01*
X130726933Y-111312038D01*
X130822171Y-111216800D01*
X130965028Y-111169180D01*
X131060266Y-111169180D01*
X131203123Y-111216800D01*
X131250742Y-111264419D01*
X132203123Y-112169180D02*
X131631695Y-112169180D01*
X131917409Y-112169180D02*
X131917409Y-111169180D01*
X131822171Y-111312038D01*
X131726933Y-111407276D01*
X131631695Y-111454895D01*
X132536457Y-111169180D02*
X133203123Y-111169180D01*
X132774552Y-112169180D01*
X109974142Y-112625142D02*
X109926523Y-112672761D01*
X109783666Y-112720380D01*
X109688428Y-112720380D01*
X109545571Y-112672761D01*
X109450333Y-112577523D01*
X109402714Y-112482285D01*
X109355095Y-112291809D01*
X109355095Y-112148952D01*
X109402714Y-111958476D01*
X109450333Y-111863238D01*
X109545571Y-111768000D01*
X109688428Y-111720380D01*
X109783666Y-111720380D01*
X109926523Y-111768000D01*
X109974142Y-111815619D01*
X110926523Y-112720380D02*
X110355095Y-112720380D01*
X110640809Y-112720380D02*
X110640809Y-111720380D01*
X110545571Y-111863238D01*
X110450333Y-111958476D01*
X110355095Y-112006095D01*
X111497952Y-112148952D02*
X111402714Y-112101333D01*
X111355095Y-112053714D01*
X111307476Y-111958476D01*
X111307476Y-111910857D01*
X111355095Y-111815619D01*
X111402714Y-111768000D01*
X111497952Y-111720380D01*
X111688428Y-111720380D01*
X111783666Y-111768000D01*
X111831285Y-111815619D01*
X111878904Y-111910857D01*
X111878904Y-111958476D01*
X111831285Y-112053714D01*
X111783666Y-112101333D01*
X111688428Y-112148952D01*
X111497952Y-112148952D01*
X111402714Y-112196571D01*
X111355095Y-112244190D01*
X111307476Y-112339428D01*
X111307476Y-112529904D01*
X111355095Y-112625142D01*
X111402714Y-112672761D01*
X111497952Y-112720380D01*
X111688428Y-112720380D01*
X111783666Y-112672761D01*
X111831285Y-112625142D01*
X111878904Y-112529904D01*
X111878904Y-112339428D01*
X111831285Y-112244190D01*
X111783666Y-112196571D01*
X111688428Y-112148952D01*
X115625642Y-55856142D02*
X115578023Y-55903761D01*
X115435166Y-55951380D01*
X115339928Y-55951380D01*
X115197071Y-55903761D01*
X115101833Y-55808523D01*
X115054214Y-55713285D01*
X115006595Y-55522809D01*
X115006595Y-55379952D01*
X115054214Y-55189476D01*
X115101833Y-55094238D01*
X115197071Y-54999000D01*
X115339928Y-54951380D01*
X115435166Y-54951380D01*
X115578023Y-54999000D01*
X115625642Y-55046619D01*
X116578023Y-55951380D02*
X116006595Y-55951380D01*
X116292309Y-55951380D02*
X116292309Y-54951380D01*
X116197071Y-55094238D01*
X116101833Y-55189476D01*
X116006595Y-55237095D01*
X117054214Y-55951380D02*
X117244690Y-55951380D01*
X117339928Y-55903761D01*
X117387547Y-55856142D01*
X117482785Y-55713285D01*
X117530404Y-55522809D01*
X117530404Y-55141857D01*
X117482785Y-55046619D01*
X117435166Y-54999000D01*
X117339928Y-54951380D01*
X117149452Y-54951380D01*
X117054214Y-54999000D01*
X117006595Y-55046619D01*
X116958976Y-55141857D01*
X116958976Y-55379952D01*
X117006595Y-55475190D01*
X117054214Y-55522809D01*
X117149452Y-55570428D01*
X117339928Y-55570428D01*
X117435166Y-55522809D01*
X117482785Y-55475190D01*
X117530404Y-55379952D01*
X115625642Y-53697142D02*
X115578023Y-53744761D01*
X115435166Y-53792380D01*
X115339928Y-53792380D01*
X115197071Y-53744761D01*
X115101833Y-53649523D01*
X115054214Y-53554285D01*
X115006595Y-53363809D01*
X115006595Y-53220952D01*
X115054214Y-53030476D01*
X115101833Y-52935238D01*
X115197071Y-52840000D01*
X115339928Y-52792380D01*
X115435166Y-52792380D01*
X115578023Y-52840000D01*
X115625642Y-52887619D01*
X116006595Y-52887619D02*
X116054214Y-52840000D01*
X116149452Y-52792380D01*
X116387547Y-52792380D01*
X116482785Y-52840000D01*
X116530404Y-52887619D01*
X116578023Y-52982857D01*
X116578023Y-53078095D01*
X116530404Y-53220952D01*
X115958976Y-53792380D01*
X116578023Y-53792380D01*
X117197071Y-52792380D02*
X117292309Y-52792380D01*
X117387547Y-52840000D01*
X117435166Y-52887619D01*
X117482785Y-52982857D01*
X117530404Y-53173333D01*
X117530404Y-53411428D01*
X117482785Y-53601904D01*
X117435166Y-53697142D01*
X117387547Y-53744761D01*
X117292309Y-53792380D01*
X117197071Y-53792380D01*
X117101833Y-53744761D01*
X117054214Y-53697142D01*
X117006595Y-53601904D01*
X116958976Y-53411428D01*
X116958976Y-53173333D01*
X117006595Y-52982857D01*
X117054214Y-52887619D01*
X117101833Y-52840000D01*
X117197071Y-52792380D01*
X110202742Y-100110142D02*
X110155123Y-100157761D01*
X110012266Y-100205380D01*
X109917028Y-100205380D01*
X109774171Y-100157761D01*
X109678933Y-100062523D01*
X109631314Y-99967285D01*
X109583695Y-99776809D01*
X109583695Y-99633952D01*
X109631314Y-99443476D01*
X109678933Y-99348238D01*
X109774171Y-99253000D01*
X109917028Y-99205380D01*
X110012266Y-99205380D01*
X110155123Y-99253000D01*
X110202742Y-99300619D01*
X110583695Y-99300619D02*
X110631314Y-99253000D01*
X110726552Y-99205380D01*
X110964647Y-99205380D01*
X111059885Y-99253000D01*
X111107504Y-99300619D01*
X111155123Y-99395857D01*
X111155123Y-99491095D01*
X111107504Y-99633952D01*
X110536076Y-100205380D01*
X111155123Y-100205380D01*
X112107504Y-100205380D02*
X111536076Y-100205380D01*
X111821790Y-100205380D02*
X111821790Y-99205380D01*
X111726552Y-99348238D01*
X111631314Y-99443476D01*
X111536076Y-99491095D01*
X115625642Y-51474642D02*
X115578023Y-51522261D01*
X115435166Y-51569880D01*
X115339928Y-51569880D01*
X115197071Y-51522261D01*
X115101833Y-51427023D01*
X115054214Y-51331785D01*
X115006595Y-51141309D01*
X115006595Y-50998452D01*
X115054214Y-50807976D01*
X115101833Y-50712738D01*
X115197071Y-50617500D01*
X115339928Y-50569880D01*
X115435166Y-50569880D01*
X115578023Y-50617500D01*
X115625642Y-50665119D01*
X116006595Y-50665119D02*
X116054214Y-50617500D01*
X116149452Y-50569880D01*
X116387547Y-50569880D01*
X116482785Y-50617500D01*
X116530404Y-50665119D01*
X116578023Y-50760357D01*
X116578023Y-50855595D01*
X116530404Y-50998452D01*
X115958976Y-51569880D01*
X116578023Y-51569880D01*
X116958976Y-50665119D02*
X117006595Y-50617500D01*
X117101833Y-50569880D01*
X117339928Y-50569880D01*
X117435166Y-50617500D01*
X117482785Y-50665119D01*
X117530404Y-50760357D01*
X117530404Y-50855595D01*
X117482785Y-50998452D01*
X116911357Y-51569880D01*
X117530404Y-51569880D01*
X133024642Y-134596142D02*
X132977023Y-134643761D01*
X132834166Y-134691380D01*
X132738928Y-134691380D01*
X132596071Y-134643761D01*
X132500833Y-134548523D01*
X132453214Y-134453285D01*
X132405595Y-134262809D01*
X132405595Y-134119952D01*
X132453214Y-133929476D01*
X132500833Y-133834238D01*
X132596071Y-133739000D01*
X132738928Y-133691380D01*
X132834166Y-133691380D01*
X132977023Y-133739000D01*
X133024642Y-133786619D01*
X133405595Y-133786619D02*
X133453214Y-133739000D01*
X133548452Y-133691380D01*
X133786547Y-133691380D01*
X133881785Y-133739000D01*
X133929404Y-133786619D01*
X133977023Y-133881857D01*
X133977023Y-133977095D01*
X133929404Y-134119952D01*
X133357976Y-134691380D01*
X133977023Y-134691380D01*
X134310357Y-133691380D02*
X134929404Y-133691380D01*
X134596071Y-134072333D01*
X134738928Y-134072333D01*
X134834166Y-134119952D01*
X134881785Y-134167571D01*
X134929404Y-134262809D01*
X134929404Y-134500904D01*
X134881785Y-134596142D01*
X134834166Y-134643761D01*
X134738928Y-134691380D01*
X134453214Y-134691380D01*
X134357976Y-134643761D01*
X134310357Y-134596142D01*
X133389642Y-68651357D02*
X133437261Y-68698976D01*
X133484880Y-68841833D01*
X133484880Y-68937071D01*
X133437261Y-69079928D01*
X133342023Y-69175166D01*
X133246785Y-69222785D01*
X133056309Y-69270404D01*
X132913452Y-69270404D01*
X132722976Y-69222785D01*
X132627738Y-69175166D01*
X132532500Y-69079928D01*
X132484880Y-68937071D01*
X132484880Y-68841833D01*
X132532500Y-68698976D01*
X132580119Y-68651357D01*
X132580119Y-68270404D02*
X132532500Y-68222785D01*
X132484880Y-68127547D01*
X132484880Y-67889452D01*
X132532500Y-67794214D01*
X132580119Y-67746595D01*
X132675357Y-67698976D01*
X132770595Y-67698976D01*
X132913452Y-67746595D01*
X133484880Y-68318023D01*
X133484880Y-67698976D01*
X132484880Y-66794214D02*
X132484880Y-67270404D01*
X132961071Y-67318023D01*
X132913452Y-67270404D01*
X132865833Y-67175166D01*
X132865833Y-66937071D01*
X132913452Y-66841833D01*
X132961071Y-66794214D01*
X133056309Y-66746595D01*
X133294404Y-66746595D01*
X133389642Y-66794214D01*
X133437261Y-66841833D01*
X133484880Y-66937071D01*
X133484880Y-67175166D01*
X133437261Y-67270404D01*
X133389642Y-67318023D01*
X144486404Y-53982880D02*
X144486404Y-52982880D01*
X144724500Y-52982880D01*
X144867357Y-53030500D01*
X144962595Y-53125738D01*
X145010214Y-53220976D01*
X145057833Y-53411452D01*
X145057833Y-53554309D01*
X145010214Y-53744785D01*
X144962595Y-53840023D01*
X144867357Y-53935261D01*
X144724500Y-53982880D01*
X144486404Y-53982880D01*
X146010214Y-53982880D02*
X145438785Y-53982880D01*
X145724500Y-53982880D02*
X145724500Y-52982880D01*
X145629261Y-53125738D01*
X145534023Y-53220976D01*
X145438785Y-53268595D01*
X144549904Y-61031380D02*
X144549904Y-60031380D01*
X144788000Y-60031380D01*
X144930857Y-60079000D01*
X145026095Y-60174238D01*
X145073714Y-60269476D01*
X145121333Y-60459952D01*
X145121333Y-60602809D01*
X145073714Y-60793285D01*
X145026095Y-60888523D01*
X144930857Y-60983761D01*
X144788000Y-61031380D01*
X144549904Y-61031380D01*
X145502285Y-60126619D02*
X145549904Y-60079000D01*
X145645142Y-60031380D01*
X145883238Y-60031380D01*
X145978476Y-60079000D01*
X146026095Y-60126619D01*
X146073714Y-60221857D01*
X146073714Y-60317095D01*
X146026095Y-60459952D01*
X145454666Y-61031380D01*
X146073714Y-61031380D01*
X116847880Y-106148095D02*
X115847880Y-106148095D01*
X115847880Y-105910000D01*
X115895500Y-105767142D01*
X115990738Y-105671904D01*
X116085976Y-105624285D01*
X116276452Y-105576666D01*
X116419309Y-105576666D01*
X116609785Y-105624285D01*
X116705023Y-105671904D01*
X116800261Y-105767142D01*
X116847880Y-105910000D01*
X116847880Y-106148095D01*
X115847880Y-105243333D02*
X115847880Y-104624285D01*
X116228833Y-104957619D01*
X116228833Y-104814761D01*
X116276452Y-104719523D01*
X116324071Y-104671904D01*
X116419309Y-104624285D01*
X116657404Y-104624285D01*
X116752642Y-104671904D01*
X116800261Y-104719523D01*
X116847880Y-104814761D01*
X116847880Y-105100476D01*
X116800261Y-105195714D01*
X116752642Y-105243333D01*
X119387880Y-147835857D02*
X118911690Y-148169191D01*
X119387880Y-148407286D02*
X118387880Y-148407286D01*
X118387880Y-148026333D01*
X118435500Y-147931095D01*
X118483119Y-147883476D01*
X118578357Y-147835857D01*
X118721214Y-147835857D01*
X118816452Y-147883476D01*
X118864071Y-147931095D01*
X118911690Y-148026333D01*
X118911690Y-148407286D01*
X119387880Y-146883476D02*
X119387880Y-147454905D01*
X119387880Y-147169191D02*
X118387880Y-147169191D01*
X118530738Y-147264429D01*
X118625976Y-147359667D01*
X118673595Y-147454905D01*
X121356380Y-147835857D02*
X120880190Y-148169191D01*
X121356380Y-148407286D02*
X120356380Y-148407286D01*
X120356380Y-148026333D01*
X120404000Y-147931095D01*
X120451619Y-147883476D01*
X120546857Y-147835857D01*
X120689714Y-147835857D01*
X120784952Y-147883476D01*
X120832571Y-147931095D01*
X120880190Y-148026333D01*
X120880190Y-148407286D01*
X120451619Y-147454905D02*
X120404000Y-147407286D01*
X120356380Y-147312048D01*
X120356380Y-147073952D01*
X120404000Y-146978714D01*
X120451619Y-146931095D01*
X120546857Y-146883476D01*
X120642095Y-146883476D01*
X120784952Y-146931095D01*
X121356380Y-147502524D01*
X121356380Y-146883476D01*
X117753333Y-134422380D02*
X117420000Y-133946190D01*
X117181904Y-134422380D02*
X117181904Y-133422380D01*
X117562857Y-133422380D01*
X117658095Y-133470000D01*
X117705714Y-133517619D01*
X117753333Y-133612857D01*
X117753333Y-133755714D01*
X117705714Y-133850952D01*
X117658095Y-133898571D01*
X117562857Y-133946190D01*
X117181904Y-133946190D01*
X118086666Y-133422380D02*
X118705714Y-133422380D01*
X118372380Y-133803333D01*
X118515238Y-133803333D01*
X118610476Y-133850952D01*
X118658095Y-133898571D01*
X118705714Y-133993809D01*
X118705714Y-134231904D01*
X118658095Y-134327142D01*
X118610476Y-134374761D01*
X118515238Y-134422380D01*
X118229523Y-134422380D01*
X118134285Y-134374761D01*
X118086666Y-134327142D01*
X119713333Y-128822380D02*
X119380000Y-128346190D01*
X119141904Y-128822380D02*
X119141904Y-127822380D01*
X119522857Y-127822380D01*
X119618095Y-127870000D01*
X119665714Y-127917619D01*
X119713333Y-128012857D01*
X119713333Y-128155714D01*
X119665714Y-128250952D01*
X119618095Y-128298571D01*
X119522857Y-128346190D01*
X119141904Y-128346190D01*
X120570476Y-128155714D02*
X120570476Y-128822380D01*
X120332380Y-127774761D02*
X120094285Y-128489047D01*
X120713333Y-128489047D01*
X112974380Y-120816666D02*
X112498190Y-121150000D01*
X112974380Y-121388095D02*
X111974380Y-121388095D01*
X111974380Y-121007142D01*
X112022000Y-120911904D01*
X112069619Y-120864285D01*
X112164857Y-120816666D01*
X112307714Y-120816666D01*
X112402952Y-120864285D01*
X112450571Y-120911904D01*
X112498190Y-121007142D01*
X112498190Y-121388095D01*
X111974380Y-119959523D02*
X111974380Y-120150000D01*
X112022000Y-120245238D01*
X112069619Y-120292857D01*
X112212476Y-120388095D01*
X112402952Y-120435714D01*
X112783904Y-120435714D01*
X112879142Y-120388095D01*
X112926761Y-120340476D01*
X112974380Y-120245238D01*
X112974380Y-120054761D01*
X112926761Y-119959523D01*
X112879142Y-119911904D01*
X112783904Y-119864285D01*
X112545809Y-119864285D01*
X112450571Y-119911904D01*
X112402952Y-119959523D01*
X112355333Y-120054761D01*
X112355333Y-120245238D01*
X112402952Y-120340476D01*
X112450571Y-120388095D01*
X112545809Y-120435714D01*
X126884133Y-113559580D02*
X126550800Y-113083390D01*
X126312704Y-113559580D02*
X126312704Y-112559580D01*
X126693657Y-112559580D01*
X126788895Y-112607200D01*
X126836514Y-112654819D01*
X126884133Y-112750057D01*
X126884133Y-112892914D01*
X126836514Y-112988152D01*
X126788895Y-113035771D01*
X126693657Y-113083390D01*
X126312704Y-113083390D01*
X127217466Y-112559580D02*
X127884133Y-112559580D01*
X127455561Y-113559580D01*
X132532380Y-115419166D02*
X132056190Y-115752500D01*
X132532380Y-115990595D02*
X131532380Y-115990595D01*
X131532380Y-115609642D01*
X131580000Y-115514404D01*
X131627619Y-115466785D01*
X131722857Y-115419166D01*
X131865714Y-115419166D01*
X131960952Y-115466785D01*
X132008571Y-115514404D01*
X132056190Y-115609642D01*
X132056190Y-115990595D01*
X131960952Y-114847738D02*
X131913333Y-114942976D01*
X131865714Y-114990595D01*
X131770476Y-115038214D01*
X131722857Y-115038214D01*
X131627619Y-114990595D01*
X131580000Y-114942976D01*
X131532380Y-114847738D01*
X131532380Y-114657261D01*
X131580000Y-114562023D01*
X131627619Y-114514404D01*
X131722857Y-114466785D01*
X131770476Y-114466785D01*
X131865714Y-114514404D01*
X131913333Y-114562023D01*
X131960952Y-114657261D01*
X131960952Y-114847738D01*
X132008571Y-114942976D01*
X132056190Y-114990595D01*
X132151428Y-115038214D01*
X132341904Y-115038214D01*
X132437142Y-114990595D01*
X132484761Y-114942976D01*
X132532380Y-114847738D01*
X132532380Y-114657261D01*
X132484761Y-114562023D01*
X132437142Y-114514404D01*
X132341904Y-114466785D01*
X132151428Y-114466785D01*
X132056190Y-114514404D01*
X132008571Y-114562023D01*
X131960952Y-114657261D01*
X117863880Y-120816666D02*
X117387690Y-121150000D01*
X117863880Y-121388095D02*
X116863880Y-121388095D01*
X116863880Y-121007142D01*
X116911500Y-120911904D01*
X116959119Y-120864285D01*
X117054357Y-120816666D01*
X117197214Y-120816666D01*
X117292452Y-120864285D01*
X117340071Y-120911904D01*
X117387690Y-121007142D01*
X117387690Y-121388095D01*
X117863880Y-120340476D02*
X117863880Y-120150000D01*
X117816261Y-120054761D01*
X117768642Y-120007142D01*
X117625785Y-119911904D01*
X117435309Y-119864285D01*
X117054357Y-119864285D01*
X116959119Y-119911904D01*
X116911500Y-119959523D01*
X116863880Y-120054761D01*
X116863880Y-120245238D01*
X116911500Y-120340476D01*
X116959119Y-120388095D01*
X117054357Y-120435714D01*
X117292452Y-120435714D01*
X117387690Y-120388095D01*
X117435309Y-120340476D01*
X117482928Y-120245238D01*
X117482928Y-120054761D01*
X117435309Y-119959523D01*
X117387690Y-119911904D01*
X117292452Y-119864285D01*
X127515880Y-122689857D02*
X127039690Y-123023190D01*
X127515880Y-123261285D02*
X126515880Y-123261285D01*
X126515880Y-122880333D01*
X126563500Y-122785095D01*
X126611119Y-122737476D01*
X126706357Y-122689857D01*
X126849214Y-122689857D01*
X126944452Y-122737476D01*
X126992071Y-122785095D01*
X127039690Y-122880333D01*
X127039690Y-123261285D01*
X127515880Y-121737476D02*
X127515880Y-122308904D01*
X127515880Y-122023190D02*
X126515880Y-122023190D01*
X126658738Y-122118428D01*
X126753976Y-122213666D01*
X126801595Y-122308904D01*
X126515880Y-121118428D02*
X126515880Y-121023190D01*
X126563500Y-120927952D01*
X126611119Y-120880333D01*
X126706357Y-120832714D01*
X126896833Y-120785095D01*
X127134928Y-120785095D01*
X127325404Y-120832714D01*
X127420642Y-120880333D01*
X127468261Y-120927952D01*
X127515880Y-121023190D01*
X127515880Y-121118428D01*
X127468261Y-121213666D01*
X127420642Y-121261285D01*
X127325404Y-121308904D01*
X127134928Y-121356523D01*
X126896833Y-121356523D01*
X126706357Y-121308904D01*
X126611119Y-121261285D01*
X126563500Y-121213666D01*
X126515880Y-121118428D01*
X114863642Y-112593380D02*
X114530309Y-112117190D01*
X114292214Y-112593380D02*
X114292214Y-111593380D01*
X114673166Y-111593380D01*
X114768404Y-111641000D01*
X114816023Y-111688619D01*
X114863642Y-111783857D01*
X114863642Y-111926714D01*
X114816023Y-112021952D01*
X114768404Y-112069571D01*
X114673166Y-112117190D01*
X114292214Y-112117190D01*
X115816023Y-112593380D02*
X115244595Y-112593380D01*
X115530309Y-112593380D02*
X115530309Y-111593380D01*
X115435071Y-111736238D01*
X115339833Y-111831476D01*
X115244595Y-111879095D01*
X116768404Y-112593380D02*
X116196976Y-112593380D01*
X116482690Y-112593380D02*
X116482690Y-111593380D01*
X116387452Y-111736238D01*
X116292214Y-111831476D01*
X116196976Y-111879095D01*
X125591542Y-111410380D02*
X125258209Y-110934190D01*
X125020114Y-111410380D02*
X125020114Y-110410380D01*
X125401066Y-110410380D01*
X125496304Y-110458000D01*
X125543923Y-110505619D01*
X125591542Y-110600857D01*
X125591542Y-110743714D01*
X125543923Y-110838952D01*
X125496304Y-110886571D01*
X125401066Y-110934190D01*
X125020114Y-110934190D01*
X126543923Y-111410380D02*
X125972495Y-111410380D01*
X126258209Y-111410380D02*
X126258209Y-110410380D01*
X126162971Y-110553238D01*
X126067733Y-110648476D01*
X125972495Y-110696095D01*
X126924876Y-110505619D02*
X126972495Y-110458000D01*
X127067733Y-110410380D01*
X127305828Y-110410380D01*
X127401066Y-110458000D01*
X127448685Y-110505619D01*
X127496304Y-110600857D01*
X127496304Y-110696095D01*
X127448685Y-110838952D01*
X126877257Y-111410380D01*
X127496304Y-111410380D01*
X115196880Y-109926357D02*
X114720690Y-110259690D01*
X115196880Y-110497785D02*
X114196880Y-110497785D01*
X114196880Y-110116833D01*
X114244500Y-110021595D01*
X114292119Y-109973976D01*
X114387357Y-109926357D01*
X114530214Y-109926357D01*
X114625452Y-109973976D01*
X114673071Y-110021595D01*
X114720690Y-110116833D01*
X114720690Y-110497785D01*
X115196880Y-108973976D02*
X115196880Y-109545404D01*
X115196880Y-109259690D02*
X114196880Y-109259690D01*
X114339738Y-109354928D01*
X114434976Y-109450166D01*
X114482595Y-109545404D01*
X114196880Y-108640642D02*
X114196880Y-108021595D01*
X114577833Y-108354928D01*
X114577833Y-108212071D01*
X114625452Y-108116833D01*
X114673071Y-108069214D01*
X114768309Y-108021595D01*
X115006404Y-108021595D01*
X115101642Y-108069214D01*
X115149261Y-108116833D01*
X115196880Y-108212071D01*
X115196880Y-108497785D01*
X115149261Y-108593023D01*
X115101642Y-108640642D01*
X122293142Y-108465880D02*
X121959809Y-107989690D01*
X121721714Y-108465880D02*
X121721714Y-107465880D01*
X122102666Y-107465880D01*
X122197904Y-107513500D01*
X122245523Y-107561119D01*
X122293142Y-107656357D01*
X122293142Y-107799214D01*
X122245523Y-107894452D01*
X122197904Y-107942071D01*
X122102666Y-107989690D01*
X121721714Y-107989690D01*
X123245523Y-108465880D02*
X122674095Y-108465880D01*
X122959809Y-108465880D02*
X122959809Y-107465880D01*
X122864571Y-107608738D01*
X122769333Y-107703976D01*
X122674095Y-107751595D01*
X124102666Y-107799214D02*
X124102666Y-108465880D01*
X123864571Y-107418261D02*
X123626476Y-108132547D01*
X124245523Y-108132547D01*
X122547142Y-97861380D02*
X122213809Y-97385190D01*
X121975714Y-97861380D02*
X121975714Y-96861380D01*
X122356666Y-96861380D01*
X122451904Y-96909000D01*
X122499523Y-96956619D01*
X122547142Y-97051857D01*
X122547142Y-97194714D01*
X122499523Y-97289952D01*
X122451904Y-97337571D01*
X122356666Y-97385190D01*
X121975714Y-97385190D01*
X123499523Y-97861380D02*
X122928095Y-97861380D01*
X123213809Y-97861380D02*
X123213809Y-96861380D01*
X123118571Y-97004238D01*
X123023333Y-97099476D01*
X122928095Y-97147095D01*
X124404285Y-96861380D02*
X123928095Y-96861380D01*
X123880476Y-97337571D01*
X123928095Y-97289952D01*
X124023333Y-97242333D01*
X124261428Y-97242333D01*
X124356666Y-97289952D01*
X124404285Y-97337571D01*
X124451904Y-97432809D01*
X124451904Y-97670904D01*
X124404285Y-97766142D01*
X124356666Y-97813761D01*
X124261428Y-97861380D01*
X124023333Y-97861380D01*
X123928095Y-97813761D01*
X123880476Y-97766142D01*
X121038880Y-94876857D02*
X120562690Y-95210190D01*
X121038880Y-95448285D02*
X120038880Y-95448285D01*
X120038880Y-95067333D01*
X120086500Y-94972095D01*
X120134119Y-94924476D01*
X120229357Y-94876857D01*
X120372214Y-94876857D01*
X120467452Y-94924476D01*
X120515071Y-94972095D01*
X120562690Y-95067333D01*
X120562690Y-95448285D01*
X121038880Y-93924476D02*
X121038880Y-94495904D01*
X121038880Y-94210190D02*
X120038880Y-94210190D01*
X120181738Y-94305428D01*
X120276976Y-94400666D01*
X120324595Y-94495904D01*
X120038880Y-93067333D02*
X120038880Y-93257809D01*
X120086500Y-93353047D01*
X120134119Y-93400666D01*
X120276976Y-93495904D01*
X120467452Y-93543523D01*
X120848404Y-93543523D01*
X120943642Y-93495904D01*
X120991261Y-93448285D01*
X121038880Y-93353047D01*
X121038880Y-93162571D01*
X120991261Y-93067333D01*
X120943642Y-93019714D01*
X120848404Y-92972095D01*
X120610309Y-92972095D01*
X120515071Y-93019714D01*
X120467452Y-93067333D01*
X120419833Y-93162571D01*
X120419833Y-93353047D01*
X120467452Y-93448285D01*
X120515071Y-93495904D01*
X120610309Y-93543523D01*
X112339380Y-147835857D02*
X111863190Y-148169190D01*
X112339380Y-148407285D02*
X111339380Y-148407285D01*
X111339380Y-148026333D01*
X111387000Y-147931095D01*
X111434619Y-147883476D01*
X111529857Y-147835857D01*
X111672714Y-147835857D01*
X111767952Y-147883476D01*
X111815571Y-147931095D01*
X111863190Y-148026333D01*
X111863190Y-148407285D01*
X112339380Y-146883476D02*
X112339380Y-147454904D01*
X112339380Y-147169190D02*
X111339380Y-147169190D01*
X111482238Y-147264428D01*
X111577476Y-147359666D01*
X111625095Y-147454904D01*
X111339380Y-146550142D02*
X111339380Y-145883476D01*
X112339380Y-146312047D01*
X108783380Y-147835857D02*
X108307190Y-148169190D01*
X108783380Y-148407285D02*
X107783380Y-148407285D01*
X107783380Y-148026333D01*
X107831000Y-147931095D01*
X107878619Y-147883476D01*
X107973857Y-147835857D01*
X108116714Y-147835857D01*
X108211952Y-147883476D01*
X108259571Y-147931095D01*
X108307190Y-148026333D01*
X108307190Y-148407285D01*
X108783380Y-146883476D02*
X108783380Y-147454904D01*
X108783380Y-147169190D02*
X107783380Y-147169190D01*
X107926238Y-147264428D01*
X108021476Y-147359666D01*
X108069095Y-147454904D01*
X108211952Y-146312047D02*
X108164333Y-146407285D01*
X108116714Y-146454904D01*
X108021476Y-146502523D01*
X107973857Y-146502523D01*
X107878619Y-146454904D01*
X107831000Y-146407285D01*
X107783380Y-146312047D01*
X107783380Y-146121571D01*
X107831000Y-146026333D01*
X107878619Y-145978714D01*
X107973857Y-145931095D01*
X108021476Y-145931095D01*
X108116714Y-145978714D01*
X108164333Y-146026333D01*
X108211952Y-146121571D01*
X108211952Y-146312047D01*
X108259571Y-146407285D01*
X108307190Y-146454904D01*
X108402428Y-146502523D01*
X108592904Y-146502523D01*
X108688142Y-146454904D01*
X108735761Y-146407285D01*
X108783380Y-146312047D01*
X108783380Y-146121571D01*
X108735761Y-146026333D01*
X108688142Y-145978714D01*
X108592904Y-145931095D01*
X108402428Y-145931095D01*
X108307190Y-145978714D01*
X108259571Y-146026333D01*
X108211952Y-146121571D01*
X113228380Y-157589457D02*
X112752190Y-157922790D01*
X113228380Y-158160885D02*
X112228380Y-158160885D01*
X112228380Y-157779933D01*
X112276000Y-157684695D01*
X112323619Y-157637076D01*
X112418857Y-157589457D01*
X112561714Y-157589457D01*
X112656952Y-157637076D01*
X112704571Y-157684695D01*
X112752190Y-157779933D01*
X112752190Y-158160885D01*
X113228380Y-156637076D02*
X113228380Y-157208504D01*
X113228380Y-156922790D02*
X112228380Y-156922790D01*
X112371238Y-157018028D01*
X112466476Y-157113266D01*
X112514095Y-157208504D01*
X113228380Y-156160885D02*
X113228380Y-155970409D01*
X113180761Y-155875171D01*
X113133142Y-155827552D01*
X112990285Y-155732314D01*
X112799809Y-155684695D01*
X112418857Y-155684695D01*
X112323619Y-155732314D01*
X112276000Y-155779933D01*
X112228380Y-155875171D01*
X112228380Y-156065647D01*
X112276000Y-156160885D01*
X112323619Y-156208504D01*
X112418857Y-156256123D01*
X112656952Y-156256123D01*
X112752190Y-156208504D01*
X112799809Y-156160885D01*
X112847428Y-156065647D01*
X112847428Y-155875171D01*
X112799809Y-155779933D01*
X112752190Y-155732314D01*
X112656952Y-155684695D01*
X107767380Y-157614857D02*
X107291190Y-157948190D01*
X107767380Y-158186285D02*
X106767380Y-158186285D01*
X106767380Y-157805333D01*
X106815000Y-157710095D01*
X106862619Y-157662476D01*
X106957857Y-157614857D01*
X107100714Y-157614857D01*
X107195952Y-157662476D01*
X107243571Y-157710095D01*
X107291190Y-157805333D01*
X107291190Y-158186285D01*
X106862619Y-157233904D02*
X106815000Y-157186285D01*
X106767380Y-157091047D01*
X106767380Y-156852952D01*
X106815000Y-156757714D01*
X106862619Y-156710095D01*
X106957857Y-156662476D01*
X107053095Y-156662476D01*
X107195952Y-156710095D01*
X107767380Y-157281523D01*
X107767380Y-156662476D01*
X106862619Y-156281523D02*
X106815000Y-156233904D01*
X106767380Y-156138666D01*
X106767380Y-155900571D01*
X106815000Y-155805333D01*
X106862619Y-155757714D01*
X106957857Y-155710095D01*
X107053095Y-155710095D01*
X107195952Y-155757714D01*
X107767380Y-156329142D01*
X107767380Y-155710095D01*
X146502380Y-157614857D02*
X146026190Y-157948190D01*
X146502380Y-158186285D02*
X145502380Y-158186285D01*
X145502380Y-157805333D01*
X145550000Y-157710095D01*
X145597619Y-157662476D01*
X145692857Y-157614857D01*
X145835714Y-157614857D01*
X145930952Y-157662476D01*
X145978571Y-157710095D01*
X146026190Y-157805333D01*
X146026190Y-158186285D01*
X145597619Y-157233904D02*
X145550000Y-157186285D01*
X145502380Y-157091047D01*
X145502380Y-156852952D01*
X145550000Y-156757714D01*
X145597619Y-156710095D01*
X145692857Y-156662476D01*
X145788095Y-156662476D01*
X145930952Y-156710095D01*
X146502380Y-157281523D01*
X146502380Y-156662476D01*
X145502380Y-156329142D02*
X145502380Y-155710095D01*
X145883333Y-156043428D01*
X145883333Y-155900571D01*
X145930952Y-155805333D01*
X145978571Y-155757714D01*
X146073809Y-155710095D01*
X146311904Y-155710095D01*
X146407142Y-155757714D01*
X146454761Y-155805333D01*
X146502380Y-155900571D01*
X146502380Y-156186285D01*
X146454761Y-156281523D01*
X146407142Y-156329142D01*
X140977880Y-157551357D02*
X140501690Y-157884690D01*
X140977880Y-158122785D02*
X139977880Y-158122785D01*
X139977880Y-157741833D01*
X140025500Y-157646595D01*
X140073119Y-157598976D01*
X140168357Y-157551357D01*
X140311214Y-157551357D01*
X140406452Y-157598976D01*
X140454071Y-157646595D01*
X140501690Y-157741833D01*
X140501690Y-158122785D01*
X140073119Y-157170404D02*
X140025500Y-157122785D01*
X139977880Y-157027547D01*
X139977880Y-156789452D01*
X140025500Y-156694214D01*
X140073119Y-156646595D01*
X140168357Y-156598976D01*
X140263595Y-156598976D01*
X140406452Y-156646595D01*
X140977880Y-157218023D01*
X140977880Y-156598976D01*
X139977880Y-155741833D02*
X139977880Y-155932309D01*
X140025500Y-156027547D01*
X140073119Y-156075166D01*
X140215976Y-156170404D01*
X140406452Y-156218023D01*
X140787404Y-156218023D01*
X140882642Y-156170404D01*
X140930261Y-156122785D01*
X140977880Y-156027547D01*
X140977880Y-155837071D01*
X140930261Y-155741833D01*
X140882642Y-155694214D01*
X140787404Y-155646595D01*
X140549309Y-155646595D01*
X140454071Y-155694214D01*
X140406452Y-155741833D01*
X140358833Y-155837071D01*
X140358833Y-156027547D01*
X140406452Y-156122785D01*
X140454071Y-156170404D01*
X140549309Y-156218023D01*
X138231642Y-148280380D02*
X137898309Y-147804190D01*
X137660214Y-148280380D02*
X137660214Y-147280380D01*
X138041166Y-147280380D01*
X138136404Y-147328000D01*
X138184023Y-147375619D01*
X138231642Y-147470857D01*
X138231642Y-147613714D01*
X138184023Y-147708952D01*
X138136404Y-147756571D01*
X138041166Y-147804190D01*
X137660214Y-147804190D01*
X138612595Y-147375619D02*
X138660214Y-147328000D01*
X138755452Y-147280380D01*
X138993547Y-147280380D01*
X139088785Y-147328000D01*
X139136404Y-147375619D01*
X139184023Y-147470857D01*
X139184023Y-147566095D01*
X139136404Y-147708952D01*
X138564976Y-148280380D01*
X139184023Y-148280380D01*
X139517357Y-147280380D02*
X140184023Y-147280380D01*
X139755452Y-148280380D01*
X116212880Y-147835857D02*
X115736690Y-148169190D01*
X116212880Y-148407285D02*
X115212880Y-148407285D01*
X115212880Y-148026333D01*
X115260500Y-147931095D01*
X115308119Y-147883476D01*
X115403357Y-147835857D01*
X115546214Y-147835857D01*
X115641452Y-147883476D01*
X115689071Y-147931095D01*
X115736690Y-148026333D01*
X115736690Y-148407285D01*
X115308119Y-147454904D02*
X115260500Y-147407285D01*
X115212880Y-147312047D01*
X115212880Y-147073952D01*
X115260500Y-146978714D01*
X115308119Y-146931095D01*
X115403357Y-146883476D01*
X115498595Y-146883476D01*
X115641452Y-146931095D01*
X116212880Y-147502523D01*
X116212880Y-146883476D01*
X115641452Y-146312047D02*
X115593833Y-146407285D01*
X115546214Y-146454904D01*
X115450976Y-146502523D01*
X115403357Y-146502523D01*
X115308119Y-146454904D01*
X115260500Y-146407285D01*
X115212880Y-146312047D01*
X115212880Y-146121571D01*
X115260500Y-146026333D01*
X115308119Y-145978714D01*
X115403357Y-145931095D01*
X115450976Y-145931095D01*
X115546214Y-145978714D01*
X115593833Y-146026333D01*
X115641452Y-146121571D01*
X115641452Y-146312047D01*
X115689071Y-146407285D01*
X115736690Y-146454904D01*
X115831928Y-146502523D01*
X116022404Y-146502523D01*
X116117642Y-146454904D01*
X116165261Y-146407285D01*
X116212880Y-146312047D01*
X116212880Y-146121571D01*
X116165261Y-146026333D01*
X116117642Y-145978714D01*
X116022404Y-145931095D01*
X115831928Y-145931095D01*
X115736690Y-145978714D01*
X115689071Y-146026333D01*
X115641452Y-146121571D01*
X142565380Y-142792857D02*
X142089190Y-143126190D01*
X142565380Y-143364285D02*
X141565380Y-143364285D01*
X141565380Y-142983333D01*
X141613000Y-142888095D01*
X141660619Y-142840476D01*
X141755857Y-142792857D01*
X141898714Y-142792857D01*
X141993952Y-142840476D01*
X142041571Y-142888095D01*
X142089190Y-142983333D01*
X142089190Y-143364285D01*
X141660619Y-142411904D02*
X141613000Y-142364285D01*
X141565380Y-142269047D01*
X141565380Y-142030952D01*
X141613000Y-141935714D01*
X141660619Y-141888095D01*
X141755857Y-141840476D01*
X141851095Y-141840476D01*
X141993952Y-141888095D01*
X142565380Y-142459523D01*
X142565380Y-141840476D01*
X142565380Y-141364285D02*
X142565380Y-141173809D01*
X142517761Y-141078571D01*
X142470142Y-141030952D01*
X142327285Y-140935714D01*
X142136809Y-140888095D01*
X141755857Y-140888095D01*
X141660619Y-140935714D01*
X141613000Y-140983333D01*
X141565380Y-141078571D01*
X141565380Y-141269047D01*
X141613000Y-141364285D01*
X141660619Y-141411904D01*
X141755857Y-141459523D01*
X141993952Y-141459523D01*
X142089190Y-141411904D01*
X142136809Y-141364285D01*
X142184428Y-141269047D01*
X142184428Y-141078571D01*
X142136809Y-140983333D01*
X142089190Y-140935714D01*
X141993952Y-140888095D01*
X127388880Y-147835857D02*
X126912690Y-148169190D01*
X127388880Y-148407285D02*
X126388880Y-148407285D01*
X126388880Y-148026333D01*
X126436500Y-147931095D01*
X126484119Y-147883476D01*
X126579357Y-147835857D01*
X126722214Y-147835857D01*
X126817452Y-147883476D01*
X126865071Y-147931095D01*
X126912690Y-148026333D01*
X126912690Y-148407285D01*
X126388880Y-147502523D02*
X126388880Y-146883476D01*
X126769833Y-147216809D01*
X126769833Y-147073952D01*
X126817452Y-146978714D01*
X126865071Y-146931095D01*
X126960309Y-146883476D01*
X127198404Y-146883476D01*
X127293642Y-146931095D01*
X127341261Y-146978714D01*
X127388880Y-147073952D01*
X127388880Y-147359666D01*
X127341261Y-147454904D01*
X127293642Y-147502523D01*
X126388880Y-146264428D02*
X126388880Y-146169190D01*
X126436500Y-146073952D01*
X126484119Y-146026333D01*
X126579357Y-145978714D01*
X126769833Y-145931095D01*
X127007928Y-145931095D01*
X127198404Y-145978714D01*
X127293642Y-146026333D01*
X127341261Y-146073952D01*
X127388880Y-146169190D01*
X127388880Y-146264428D01*
X127341261Y-146359666D01*
X127293642Y-146407285D01*
X127198404Y-146454904D01*
X127007928Y-146502523D01*
X126769833Y-146502523D01*
X126579357Y-146454904D01*
X126484119Y-146407285D01*
X126436500Y-146359666D01*
X126388880Y-146264428D01*
X136913880Y-144914857D02*
X136437690Y-145248190D01*
X136913880Y-145486285D02*
X135913880Y-145486285D01*
X135913880Y-145105333D01*
X135961500Y-145010095D01*
X136009119Y-144962476D01*
X136104357Y-144914857D01*
X136247214Y-144914857D01*
X136342452Y-144962476D01*
X136390071Y-145010095D01*
X136437690Y-145105333D01*
X136437690Y-145486285D01*
X135913880Y-144581523D02*
X135913880Y-143962476D01*
X136294833Y-144295809D01*
X136294833Y-144152952D01*
X136342452Y-144057714D01*
X136390071Y-144010095D01*
X136485309Y-143962476D01*
X136723404Y-143962476D01*
X136818642Y-144010095D01*
X136866261Y-144057714D01*
X136913880Y-144152952D01*
X136913880Y-144438666D01*
X136866261Y-144533904D01*
X136818642Y-144581523D01*
X136913880Y-143010095D02*
X136913880Y-143581523D01*
X136913880Y-143295809D02*
X135913880Y-143295809D01*
X136056738Y-143391047D01*
X136151976Y-143486285D01*
X136199595Y-143581523D01*
X127325380Y-137294857D02*
X126849190Y-137628190D01*
X127325380Y-137866285D02*
X126325380Y-137866285D01*
X126325380Y-137485333D01*
X126373000Y-137390095D01*
X126420619Y-137342476D01*
X126515857Y-137294857D01*
X126658714Y-137294857D01*
X126753952Y-137342476D01*
X126801571Y-137390095D01*
X126849190Y-137485333D01*
X126849190Y-137866285D01*
X126325380Y-136961523D02*
X126325380Y-136342476D01*
X126706333Y-136675809D01*
X126706333Y-136532952D01*
X126753952Y-136437714D01*
X126801571Y-136390095D01*
X126896809Y-136342476D01*
X127134904Y-136342476D01*
X127230142Y-136390095D01*
X127277761Y-136437714D01*
X127325380Y-136532952D01*
X127325380Y-136818666D01*
X127277761Y-136913904D01*
X127230142Y-136961523D01*
X126420619Y-135961523D02*
X126373000Y-135913904D01*
X126325380Y-135818666D01*
X126325380Y-135580571D01*
X126373000Y-135485333D01*
X126420619Y-135437714D01*
X126515857Y-135390095D01*
X126611095Y-135390095D01*
X126753952Y-135437714D01*
X127325380Y-136009142D01*
X127325380Y-135390095D01*
X145089642Y-69667380D02*
X144756309Y-69191190D01*
X144518214Y-69667380D02*
X144518214Y-68667380D01*
X144899166Y-68667380D01*
X144994404Y-68715000D01*
X145042023Y-68762619D01*
X145089642Y-68857857D01*
X145089642Y-69000714D01*
X145042023Y-69095952D01*
X144994404Y-69143571D01*
X144899166Y-69191190D01*
X144518214Y-69191190D01*
X145422976Y-68667380D02*
X146042023Y-68667380D01*
X145708690Y-69048333D01*
X145851547Y-69048333D01*
X145946785Y-69095952D01*
X145994404Y-69143571D01*
X146042023Y-69238809D01*
X146042023Y-69476904D01*
X145994404Y-69572142D01*
X145946785Y-69619761D01*
X145851547Y-69667380D01*
X145565833Y-69667380D01*
X145470595Y-69619761D01*
X145422976Y-69572142D01*
X146375357Y-68667380D02*
X146994404Y-68667380D01*
X146661071Y-69048333D01*
X146803928Y-69048333D01*
X146899166Y-69095952D01*
X146946785Y-69143571D01*
X146994404Y-69238809D01*
X146994404Y-69476904D01*
X146946785Y-69572142D01*
X146899166Y-69619761D01*
X146803928Y-69667380D01*
X146518214Y-69667380D01*
X146422976Y-69619761D01*
X146375357Y-69572142D01*
X145089642Y-68143380D02*
X144756309Y-67667190D01*
X144518214Y-68143380D02*
X144518214Y-67143380D01*
X144899166Y-67143380D01*
X144994404Y-67191000D01*
X145042023Y-67238619D01*
X145089642Y-67333857D01*
X145089642Y-67476714D01*
X145042023Y-67571952D01*
X144994404Y-67619571D01*
X144899166Y-67667190D01*
X144518214Y-67667190D01*
X145422976Y-67143380D02*
X146042023Y-67143380D01*
X145708690Y-67524333D01*
X145851547Y-67524333D01*
X145946785Y-67571952D01*
X145994404Y-67619571D01*
X146042023Y-67714809D01*
X146042023Y-67952904D01*
X145994404Y-68048142D01*
X145946785Y-68095761D01*
X145851547Y-68143380D01*
X145565833Y-68143380D01*
X145470595Y-68095761D01*
X145422976Y-68048142D01*
X146899166Y-67476714D02*
X146899166Y-68143380D01*
X146661071Y-67095761D02*
X146422976Y-67810047D01*
X147042023Y-67810047D01*
X108712095Y-48122380D02*
X108712095Y-48931904D01*
X108759714Y-49027142D01*
X108807333Y-49074761D01*
X108902571Y-49122380D01*
X109093047Y-49122380D01*
X109188285Y-49074761D01*
X109235904Y-49027142D01*
X109283523Y-48931904D01*
X109283523Y-48122380D01*
X110283523Y-49122380D02*
X109712095Y-49122380D01*
X109997809Y-49122380D02*
X109997809Y-48122380D01*
X109902571Y-48265238D01*
X109807333Y-48360476D01*
X109712095Y-48408095D01*
X121412095Y-121689880D02*
X121412095Y-122499404D01*
X121459714Y-122594642D01*
X121507333Y-122642261D01*
X121602571Y-122689880D01*
X121793047Y-122689880D01*
X121888285Y-122642261D01*
X121935904Y-122594642D01*
X121983523Y-122499404D01*
X121983523Y-121689880D01*
X122412095Y-121785119D02*
X122459714Y-121737500D01*
X122554952Y-121689880D01*
X122793047Y-121689880D01*
X122888285Y-121737500D01*
X122935904Y-121785119D01*
X122983523Y-121880357D01*
X122983523Y-121975595D01*
X122935904Y-122118452D01*
X122364476Y-122689880D01*
X122983523Y-122689880D01*
X117284595Y-98448880D02*
X117284595Y-99258404D01*
X117332214Y-99353642D01*
X117379833Y-99401261D01*
X117475071Y-99448880D01*
X117665547Y-99448880D01*
X117760785Y-99401261D01*
X117808404Y-99353642D01*
X117856023Y-99258404D01*
X117856023Y-98448880D01*
X118236976Y-98448880D02*
X118856023Y-98448880D01*
X118522690Y-98829833D01*
X118665547Y-98829833D01*
X118760785Y-98877452D01*
X118808404Y-98925071D01*
X118856023Y-99020309D01*
X118856023Y-99258404D01*
X118808404Y-99353642D01*
X118760785Y-99401261D01*
X118665547Y-99448880D01*
X118379833Y-99448880D01*
X118284595Y-99401261D01*
X118236976Y-99353642D01*
X128995980Y-106503305D02*
X129805504Y-106503305D01*
X129900742Y-106455686D01*
X129948361Y-106408067D01*
X129995980Y-106312829D01*
X129995980Y-106122353D01*
X129948361Y-106027115D01*
X129900742Y-105979496D01*
X129805504Y-105931877D01*
X128995980Y-105931877D01*
X129329314Y-105027115D02*
X129995980Y-105027115D01*
X128948361Y-105265210D02*
X129662647Y-105503305D01*
X129662647Y-104884258D01*
X112647980Y-106503305D02*
X113457504Y-106503305D01*
X113552742Y-106455686D01*
X113600361Y-106408067D01*
X113647980Y-106312829D01*
X113647980Y-106122353D01*
X113600361Y-106027115D01*
X113552742Y-105979496D01*
X113457504Y-105931877D01*
X112647980Y-105931877D01*
X112647980Y-105027115D02*
X112647980Y-105217591D01*
X112695600Y-105312829D01*
X112743219Y-105360448D01*
X112886076Y-105455686D01*
X113076552Y-105503305D01*
X113457504Y-105503305D01*
X113552742Y-105455686D01*
X113600361Y-105408067D01*
X113647980Y-105312829D01*
X113647980Y-105122353D01*
X113600361Y-105027115D01*
X113552742Y-104979496D01*
X113457504Y-104931877D01*
X113219409Y-104931877D01*
X113124171Y-104979496D01*
X113076552Y-105027115D01*
X113028933Y-105122353D01*
X113028933Y-105312829D01*
X113076552Y-105408067D01*
X113124171Y-105455686D01*
X113219409Y-105503305D01*
X134135880Y-71945404D02*
X134945404Y-71945404D01*
X135040642Y-71897785D01*
X135088261Y-71850166D01*
X135135880Y-71754928D01*
X135135880Y-71564452D01*
X135088261Y-71469214D01*
X135040642Y-71421595D01*
X134945404Y-71373976D01*
X134135880Y-71373976D01*
X134564452Y-70754928D02*
X134516833Y-70850166D01*
X134469214Y-70897785D01*
X134373976Y-70945404D01*
X134326357Y-70945404D01*
X134231119Y-70897785D01*
X134183500Y-70850166D01*
X134135880Y-70754928D01*
X134135880Y-70564452D01*
X134183500Y-70469214D01*
X134231119Y-70421595D01*
X134326357Y-70373976D01*
X134373976Y-70373976D01*
X134469214Y-70421595D01*
X134516833Y-70469214D01*
X134564452Y-70564452D01*
X134564452Y-70754928D01*
X134612071Y-70850166D01*
X134659690Y-70897785D01*
X134754928Y-70945404D01*
X134945404Y-70945404D01*
X135040642Y-70897785D01*
X135088261Y-70850166D01*
X135135880Y-70754928D01*
X135135880Y-70564452D01*
X135088261Y-70469214D01*
X135040642Y-70421595D01*
X134945404Y-70373976D01*
X134754928Y-70373976D01*
X134659690Y-70421595D01*
X134612071Y-70469214D01*
X134564452Y-70564452D01*
X128524095Y-138961880D02*
X128524095Y-139771404D01*
X128571714Y-139866642D01*
X128619333Y-139914261D01*
X128714571Y-139961880D01*
X128905047Y-139961880D01*
X129000285Y-139914261D01*
X129047904Y-139866642D01*
X129095523Y-139771404D01*
X129095523Y-138961880D01*
X129476476Y-138961880D02*
X130143142Y-138961880D01*
X129714571Y-139961880D01*
X104330595Y-159345380D02*
X104330595Y-160154904D01*
X104378214Y-160250142D01*
X104425833Y-160297761D01*
X104521071Y-160345380D01*
X104711547Y-160345380D01*
X104806785Y-160297761D01*
X104854404Y-160250142D01*
X104902023Y-160154904D01*
X104902023Y-159345380D01*
X105425833Y-160345380D02*
X105616309Y-160345380D01*
X105711547Y-160297761D01*
X105759166Y-160250142D01*
X105854404Y-160107285D01*
X105902023Y-159916809D01*
X105902023Y-159535857D01*
X105854404Y-159440619D01*
X105806785Y-159393000D01*
X105711547Y-159345380D01*
X105521071Y-159345380D01*
X105425833Y-159393000D01*
X105378214Y-159440619D01*
X105330595Y-159535857D01*
X105330595Y-159773952D01*
X105378214Y-159869190D01*
X105425833Y-159916809D01*
X105521071Y-159964428D01*
X105711547Y-159964428D01*
X105806785Y-159916809D01*
X105854404Y-159869190D01*
X105902023Y-159773952D01*
%LPC*%
G36*
G01*
X133373200Y-138972500D02*
X133373200Y-139447500D01*
G75*
G02*
X133135700Y-139685000I-237500J0D01*
G01*
X132535700Y-139685000D01*
G75*
G02*
X132298200Y-139447500I0J237500D01*
G01*
X132298200Y-138972500D01*
G75*
G02*
X132535700Y-138735000I237500J0D01*
G01*
X133135700Y-138735000D01*
G75*
G02*
X133373200Y-138972500I0J-237500D01*
G01*
G37*
G36*
G01*
X135098200Y-138972500D02*
X135098200Y-139447500D01*
G75*
G02*
X134860700Y-139685000I-237500J0D01*
G01*
X134260700Y-139685000D01*
G75*
G02*
X134023200Y-139447500I0J237500D01*
G01*
X134023200Y-138972500D01*
G75*
G02*
X134260700Y-138735000I237500J0D01*
G01*
X134860700Y-138735000D01*
G75*
G02*
X135098200Y-138972500I0J-237500D01*
G01*
G37*
G36*
G01*
X122868700Y-113732200D02*
X122393700Y-113732200D01*
G75*
G02*
X122156200Y-113494700I0J237500D01*
G01*
X122156200Y-112894700D01*
G75*
G02*
X122393700Y-112657200I237500J0D01*
G01*
X122868700Y-112657200D01*
G75*
G02*
X123106200Y-112894700I0J-237500D01*
G01*
X123106200Y-113494700D01*
G75*
G02*
X122868700Y-113732200I-237500J0D01*
G01*
G37*
G36*
G01*
X122868700Y-115457200D02*
X122393700Y-115457200D01*
G75*
G02*
X122156200Y-115219700I0J237500D01*
G01*
X122156200Y-114619700D01*
G75*
G02*
X122393700Y-114382200I237500J0D01*
G01*
X122868700Y-114382200D01*
G75*
G02*
X123106200Y-114619700I0J-237500D01*
G01*
X123106200Y-115219700D01*
G75*
G02*
X122868700Y-115457200I-237500J0D01*
G01*
G37*
D12*
X98000000Y-161500000D03*
D13*
X98000000Y-161500000D03*
D12*
X155000000Y-161500000D03*
D13*
X155000000Y-161500000D03*
D12*
X98000000Y-46000000D03*
D13*
X98000000Y-46000000D03*
D12*
X155000000Y-46000000D03*
D13*
X155000000Y-46000000D03*
G36*
G01*
X119335600Y-114307199D02*
X119335600Y-115207201D01*
G75*
G02*
X119085601Y-115457200I-249999J0D01*
G01*
X118385599Y-115457200D01*
G75*
G02*
X118135600Y-115207201I0J249999D01*
G01*
X118135600Y-114307199D01*
G75*
G02*
X118385599Y-114057200I249999J0D01*
G01*
X119085601Y-114057200D01*
G75*
G02*
X119335600Y-114307199I0J-249999D01*
G01*
G37*
G36*
G01*
X121335600Y-114307199D02*
X121335600Y-115207201D01*
G75*
G02*
X121085601Y-115457200I-249999J0D01*
G01*
X120385599Y-115457200D01*
G75*
G02*
X120135600Y-115207201I0J249999D01*
G01*
X120135600Y-114307199D01*
G75*
G02*
X120385599Y-114057200I249999J0D01*
G01*
X121085601Y-114057200D01*
G75*
G02*
X121335600Y-114307199I0J-249999D01*
G01*
G37*
D14*
X153340000Y-153960000D03*
X150800000Y-153960000D03*
X153340000Y-151420000D03*
X150800000Y-151420000D03*
X153340000Y-148880000D03*
X150800000Y-148880000D03*
X153340000Y-146340000D03*
X150800000Y-146340000D03*
X153340000Y-143800000D03*
X150800000Y-143800000D03*
X153340000Y-141260000D03*
X150800000Y-141260000D03*
X153340000Y-138720000D03*
X150800000Y-138720000D03*
X153340000Y-136180000D03*
X150800000Y-136180000D03*
X153340000Y-133640000D03*
X150800000Y-133640000D03*
X153340000Y-131100000D03*
X150800000Y-131100000D03*
X153340000Y-128560000D03*
X150800000Y-128560000D03*
X153340000Y-126020000D03*
X150800000Y-126020000D03*
X153340000Y-123480000D03*
X150800000Y-123480000D03*
X153340000Y-120940000D03*
X150800000Y-120940000D03*
X153340000Y-118400000D03*
X150800000Y-118400000D03*
X153340000Y-115860000D03*
X150800000Y-115860000D03*
X153340000Y-113320000D03*
X150800000Y-113320000D03*
X153340000Y-110780000D03*
X150800000Y-110780000D03*
X153340000Y-108240000D03*
X150800000Y-108240000D03*
X153340000Y-105700000D03*
X150800000Y-105700000D03*
X153340000Y-103160000D03*
X150800000Y-103160000D03*
X153340000Y-100620000D03*
X150800000Y-100620000D03*
X153340000Y-98080000D03*
X150800000Y-98080000D03*
X153340000Y-95540000D03*
X150800000Y-95540000D03*
X153340000Y-93000000D03*
X150800000Y-93000000D03*
X153340000Y-90460000D03*
X150800000Y-90460000D03*
X153340000Y-87920000D03*
X150800000Y-87920000D03*
X153340000Y-85380000D03*
X150800000Y-85380000D03*
X153340000Y-82840000D03*
X150800000Y-82840000D03*
X153340000Y-80300000D03*
X150800000Y-80300000D03*
X153340000Y-77760000D03*
X150800000Y-77760000D03*
X153340000Y-75220000D03*
D15*
X150800000Y-75220000D03*
D14*
X102530000Y-153960000D03*
X99990000Y-153960000D03*
X102530000Y-151420000D03*
X99990000Y-151420000D03*
X102530000Y-148880000D03*
X99990000Y-148880000D03*
X102530000Y-146340000D03*
X99990000Y-146340000D03*
X102530000Y-143800000D03*
X99990000Y-143800000D03*
X102530000Y-141260000D03*
X99990000Y-141260000D03*
X102530000Y-138720000D03*
X99990000Y-138720000D03*
X102530000Y-136180000D03*
X99990000Y-136180000D03*
X102530000Y-133640000D03*
X99990000Y-133640000D03*
X102530000Y-131100000D03*
X99990000Y-131100000D03*
X102530000Y-128560000D03*
X99990000Y-128560000D03*
X102530000Y-126020000D03*
X99990000Y-126020000D03*
X102530000Y-123480000D03*
X99990000Y-123480000D03*
X102530000Y-120940000D03*
X99990000Y-120940000D03*
X102530000Y-118400000D03*
X99990000Y-118400000D03*
X102530000Y-115860000D03*
X99990000Y-115860000D03*
X102530000Y-113320000D03*
X99990000Y-113320000D03*
X102530000Y-110780000D03*
X99990000Y-110780000D03*
X102530000Y-108240000D03*
X99990000Y-108240000D03*
X102530000Y-105700000D03*
X99990000Y-105700000D03*
X102530000Y-103160000D03*
X99990000Y-103160000D03*
X102530000Y-100620000D03*
X99990000Y-100620000D03*
X102530000Y-98080000D03*
X99990000Y-98080000D03*
X102530000Y-95540000D03*
X99990000Y-95540000D03*
X102530000Y-93000000D03*
X99990000Y-93000000D03*
X102530000Y-90460000D03*
X99990000Y-90460000D03*
X102530000Y-87920000D03*
X99990000Y-87920000D03*
X102530000Y-85380000D03*
X99990000Y-85380000D03*
X102530000Y-82840000D03*
X99990000Y-82840000D03*
X102530000Y-80300000D03*
X99990000Y-80300000D03*
X102530000Y-77760000D03*
X99990000Y-77760000D03*
X102530000Y-75220000D03*
D15*
X99990000Y-75220000D03*
D14*
X147066000Y-153987500D03*
X144526000Y-153987500D03*
X141986000Y-153987500D03*
D15*
X139446000Y-153987500D03*
D14*
X113842798Y-153974800D03*
X111302798Y-153974800D03*
X108762798Y-153974800D03*
D15*
X106222798Y-153974800D03*
G36*
G01*
X113910100Y-49627500D02*
X114385100Y-49627500D01*
G75*
G02*
X114622600Y-49865000I0J-237500D01*
G01*
X114622600Y-50465000D01*
G75*
G02*
X114385100Y-50702500I-237500J0D01*
G01*
X113910100Y-50702500D01*
G75*
G02*
X113672600Y-50465000I0J237500D01*
G01*
X113672600Y-49865000D01*
G75*
G02*
X113910100Y-49627500I237500J0D01*
G01*
G37*
G36*
G01*
X113910100Y-51352500D02*
X114385100Y-51352500D01*
G75*
G02*
X114622600Y-51590000I0J-237500D01*
G01*
X114622600Y-52190000D01*
G75*
G02*
X114385100Y-52427500I-237500J0D01*
G01*
X113910100Y-52427500D01*
G75*
G02*
X113672600Y-52190000I0J237500D01*
G01*
X113672600Y-51590000D01*
G75*
G02*
X113910100Y-51352500I237500J0D01*
G01*
G37*
G36*
G01*
X119434400Y-110783000D02*
X119434400Y-109833000D01*
G75*
G02*
X119684400Y-109583000I250000J0D01*
G01*
X120359400Y-109583000D01*
G75*
G02*
X120609400Y-109833000I0J-250000D01*
G01*
X120609400Y-110783000D01*
G75*
G02*
X120359400Y-111033000I-250000J0D01*
G01*
X119684400Y-111033000D01*
G75*
G02*
X119434400Y-110783000I0J250000D01*
G01*
G37*
G36*
G01*
X117359400Y-110783000D02*
X117359400Y-109833000D01*
G75*
G02*
X117609400Y-109583000I250000J0D01*
G01*
X118284400Y-109583000D01*
G75*
G02*
X118534400Y-109833000I0J-250000D01*
G01*
X118534400Y-110783000D01*
G75*
G02*
X118284400Y-111033000I-250000J0D01*
G01*
X117609400Y-111033000D01*
G75*
G02*
X117359400Y-110783000I0J250000D01*
G01*
G37*
G36*
G01*
X127729400Y-106863000D02*
X126779400Y-106863000D01*
G75*
G02*
X126529400Y-106613000I0J250000D01*
G01*
X126529400Y-105938000D01*
G75*
G02*
X126779400Y-105688000I250000J0D01*
G01*
X127729400Y-105688000D01*
G75*
G02*
X127979400Y-105938000I0J-250000D01*
G01*
X127979400Y-106613000D01*
G75*
G02*
X127729400Y-106863000I-250000J0D01*
G01*
G37*
G36*
G01*
X127729400Y-104788000D02*
X126779400Y-104788000D01*
G75*
G02*
X126529400Y-104538000I0J250000D01*
G01*
X126529400Y-103863000D01*
G75*
G02*
X126779400Y-103613000I250000J0D01*
G01*
X127729400Y-103613000D01*
G75*
G02*
X127979400Y-103863000I0J-250000D01*
G01*
X127979400Y-104538000D01*
G75*
G02*
X127729400Y-104788000I-250000J0D01*
G01*
G37*
G36*
G01*
X117359400Y-108703000D02*
X117359400Y-107753000D01*
G75*
G02*
X117609400Y-107503000I250000J0D01*
G01*
X118284400Y-107503000D01*
G75*
G02*
X118534400Y-107753000I0J-250000D01*
G01*
X118534400Y-108703000D01*
G75*
G02*
X118284400Y-108953000I-250000J0D01*
G01*
X117609400Y-108953000D01*
G75*
G02*
X117359400Y-108703000I0J250000D01*
G01*
G37*
G36*
G01*
X119434400Y-108703000D02*
X119434400Y-107753000D01*
G75*
G02*
X119684400Y-107503000I250000J0D01*
G01*
X120359400Y-107503000D01*
G75*
G02*
X120609400Y-107753000I0J-250000D01*
G01*
X120609400Y-108703000D01*
G75*
G02*
X120359400Y-108953000I-250000J0D01*
G01*
X119684400Y-108953000D01*
G75*
G02*
X119434400Y-108703000I0J250000D01*
G01*
G37*
G36*
G01*
X125689400Y-104788000D02*
X124739400Y-104788000D01*
G75*
G02*
X124489400Y-104538000I0J250000D01*
G01*
X124489400Y-103863000D01*
G75*
G02*
X124739400Y-103613000I250000J0D01*
G01*
X125689400Y-103613000D01*
G75*
G02*
X125939400Y-103863000I0J-250000D01*
G01*
X125939400Y-104538000D01*
G75*
G02*
X125689400Y-104788000I-250000J0D01*
G01*
G37*
G36*
G01*
X125689400Y-106863000D02*
X124739400Y-106863000D01*
G75*
G02*
X124489400Y-106613000I0J250000D01*
G01*
X124489400Y-105938000D01*
G75*
G02*
X124739400Y-105688000I250000J0D01*
G01*
X125689400Y-105688000D01*
G75*
G02*
X125939400Y-105938000I0J-250000D01*
G01*
X125939400Y-106613000D01*
G75*
G02*
X125689400Y-106863000I-250000J0D01*
G01*
G37*
G36*
G01*
X124171700Y-112657200D02*
X124646700Y-112657200D01*
G75*
G02*
X124884200Y-112894700I0J-237500D01*
G01*
X124884200Y-113494700D01*
G75*
G02*
X124646700Y-113732200I-237500J0D01*
G01*
X124171700Y-113732200D01*
G75*
G02*
X123934200Y-113494700I0J237500D01*
G01*
X123934200Y-112894700D01*
G75*
G02*
X124171700Y-112657200I237500J0D01*
G01*
G37*
G36*
G01*
X124171700Y-114382200D02*
X124646700Y-114382200D01*
G75*
G02*
X124884200Y-114619700I0J-237500D01*
G01*
X124884200Y-115219700D01*
G75*
G02*
X124646700Y-115457200I-237500J0D01*
G01*
X124171700Y-115457200D01*
G75*
G02*
X123934200Y-115219700I0J237500D01*
G01*
X123934200Y-114619700D01*
G75*
G02*
X124171700Y-114382200I237500J0D01*
G01*
G37*
G36*
G01*
X114461400Y-100645500D02*
X114936400Y-100645500D01*
G75*
G02*
X115173900Y-100883000I0J-237500D01*
G01*
X115173900Y-101483000D01*
G75*
G02*
X114936400Y-101720500I-237500J0D01*
G01*
X114461400Y-101720500D01*
G75*
G02*
X114223900Y-101483000I0J237500D01*
G01*
X114223900Y-100883000D01*
G75*
G02*
X114461400Y-100645500I237500J0D01*
G01*
G37*
G36*
G01*
X114461400Y-102370500D02*
X114936400Y-102370500D01*
G75*
G02*
X115173900Y-102608000I0J-237500D01*
G01*
X115173900Y-103208000D01*
G75*
G02*
X114936400Y-103445500I-237500J0D01*
G01*
X114461400Y-103445500D01*
G75*
G02*
X114223900Y-103208000I0J237500D01*
G01*
X114223900Y-102608000D01*
G75*
G02*
X114461400Y-102370500I237500J0D01*
G01*
G37*
G36*
G01*
X116001400Y-102370500D02*
X116476400Y-102370500D01*
G75*
G02*
X116713900Y-102608000I0J-237500D01*
G01*
X116713900Y-103208000D01*
G75*
G02*
X116476400Y-103445500I-237500J0D01*
G01*
X116001400Y-103445500D01*
G75*
G02*
X115763900Y-103208000I0J237500D01*
G01*
X115763900Y-102608000D01*
G75*
G02*
X116001400Y-102370500I237500J0D01*
G01*
G37*
G36*
G01*
X116001400Y-100645500D02*
X116476400Y-100645500D01*
G75*
G02*
X116713900Y-100883000I0J-237500D01*
G01*
X116713900Y-101483000D01*
G75*
G02*
X116476400Y-101720500I-237500J0D01*
G01*
X116001400Y-101720500D01*
G75*
G02*
X115763900Y-101483000I0J237500D01*
G01*
X115763900Y-100883000D01*
G75*
G02*
X116001400Y-100645500I237500J0D01*
G01*
G37*
G36*
G01*
X114195000Y-145287500D02*
X113245000Y-145287500D01*
G75*
G02*
X112995000Y-145037500I0J250000D01*
G01*
X112995000Y-144362500D01*
G75*
G02*
X113245000Y-144112500I250000J0D01*
G01*
X114195000Y-144112500D01*
G75*
G02*
X114445000Y-144362500I0J-250000D01*
G01*
X114445000Y-145037500D01*
G75*
G02*
X114195000Y-145287500I-250000J0D01*
G01*
G37*
G36*
G01*
X114195000Y-143212500D02*
X113245000Y-143212500D01*
G75*
G02*
X112995000Y-142962500I0J250000D01*
G01*
X112995000Y-142287500D01*
G75*
G02*
X113245000Y-142037500I250000J0D01*
G01*
X114195000Y-142037500D01*
G75*
G02*
X114445000Y-142287500I0J-250000D01*
G01*
X114445000Y-142962500D01*
G75*
G02*
X114195000Y-143212500I-250000J0D01*
G01*
G37*
G36*
G01*
X110505000Y-143212500D02*
X109555000Y-143212500D01*
G75*
G02*
X109305000Y-142962500I0J250000D01*
G01*
X109305000Y-142287500D01*
G75*
G02*
X109555000Y-142037500I250000J0D01*
G01*
X110505000Y-142037500D01*
G75*
G02*
X110755000Y-142287500I0J-250000D01*
G01*
X110755000Y-142962500D01*
G75*
G02*
X110505000Y-143212500I-250000J0D01*
G01*
G37*
G36*
G01*
X110505000Y-145287500D02*
X109555000Y-145287500D01*
G75*
G02*
X109305000Y-145037500I0J250000D01*
G01*
X109305000Y-144362500D01*
G75*
G02*
X109555000Y-144112500I250000J0D01*
G01*
X110505000Y-144112500D01*
G75*
G02*
X110755000Y-144362500I0J-250000D01*
G01*
X110755000Y-145037500D01*
G75*
G02*
X110505000Y-145287500I-250000J0D01*
G01*
G37*
G36*
G01*
X133748600Y-98432600D02*
X133748600Y-99382600D01*
G75*
G02*
X133498600Y-99632600I-250000J0D01*
G01*
X132823600Y-99632600D01*
G75*
G02*
X132573600Y-99382600I0J250000D01*
G01*
X132573600Y-98432600D01*
G75*
G02*
X132823600Y-98182600I250000J0D01*
G01*
X133498600Y-98182600D01*
G75*
G02*
X133748600Y-98432600I0J-250000D01*
G01*
G37*
G36*
G01*
X131673600Y-98432600D02*
X131673600Y-99382600D01*
G75*
G02*
X131423600Y-99632600I-250000J0D01*
G01*
X130748600Y-99632600D01*
G75*
G02*
X130498600Y-99382600I0J250000D01*
G01*
X130498600Y-98432600D01*
G75*
G02*
X130748600Y-98182600I250000J0D01*
G01*
X131423600Y-98182600D01*
G75*
G02*
X131673600Y-98432600I0J-250000D01*
G01*
G37*
G36*
G01*
X131673600Y-100490000D02*
X131673600Y-101440000D01*
G75*
G02*
X131423600Y-101690000I-250000J0D01*
G01*
X130748600Y-101690000D01*
G75*
G02*
X130498600Y-101440000I0J250000D01*
G01*
X130498600Y-100490000D01*
G75*
G02*
X130748600Y-100240000I250000J0D01*
G01*
X131423600Y-100240000D01*
G75*
G02*
X131673600Y-100490000I0J-250000D01*
G01*
G37*
G36*
G01*
X133748600Y-100490000D02*
X133748600Y-101440000D01*
G75*
G02*
X133498600Y-101690000I-250000J0D01*
G01*
X132823600Y-101690000D01*
G75*
G02*
X132573600Y-101440000I0J250000D01*
G01*
X132573600Y-100490000D01*
G75*
G02*
X132823600Y-100240000I250000J0D01*
G01*
X133498600Y-100240000D01*
G75*
G02*
X133748600Y-100490000I0J-250000D01*
G01*
G37*
G36*
G01*
X121845500Y-51602601D02*
X121845500Y-50652601D01*
G75*
G02*
X122095500Y-50402601I250000J0D01*
G01*
X122770500Y-50402601D01*
G75*
G02*
X123020500Y-50652601I0J-250000D01*
G01*
X123020500Y-51602601D01*
G75*
G02*
X122770500Y-51852601I-250000J0D01*
G01*
X122095500Y-51852601D01*
G75*
G02*
X121845500Y-51602601I0J250000D01*
G01*
G37*
G36*
G01*
X123920500Y-51602601D02*
X123920500Y-50652601D01*
G75*
G02*
X124170500Y-50402601I250000J0D01*
G01*
X124845500Y-50402601D01*
G75*
G02*
X125095500Y-50652601I0J-250000D01*
G01*
X125095500Y-51602601D01*
G75*
G02*
X124845500Y-51852601I-250000J0D01*
G01*
X124170500Y-51852601D01*
G75*
G02*
X123920500Y-51602601I0J250000D01*
G01*
G37*
G36*
G01*
X123920500Y-55897800D02*
X123920500Y-54947800D01*
G75*
G02*
X124170500Y-54697800I250000J0D01*
G01*
X124845500Y-54697800D01*
G75*
G02*
X125095500Y-54947800I0J-250000D01*
G01*
X125095500Y-55897800D01*
G75*
G02*
X124845500Y-56147800I-250000J0D01*
G01*
X124170500Y-56147800D01*
G75*
G02*
X123920500Y-55897800I0J250000D01*
G01*
G37*
G36*
G01*
X121845500Y-55897800D02*
X121845500Y-54947800D01*
G75*
G02*
X122095500Y-54697800I250000J0D01*
G01*
X122770500Y-54697800D01*
G75*
G02*
X123020500Y-54947800I0J-250000D01*
G01*
X123020500Y-55897800D01*
G75*
G02*
X122770500Y-56147800I-250000J0D01*
G01*
X122095500Y-56147800D01*
G75*
G02*
X121845500Y-55897800I0J250000D01*
G01*
G37*
G36*
G01*
X121845500Y-53764200D02*
X121845500Y-52814200D01*
G75*
G02*
X122095500Y-52564200I250000J0D01*
G01*
X122770500Y-52564200D01*
G75*
G02*
X123020500Y-52814200I0J-250000D01*
G01*
X123020500Y-53764200D01*
G75*
G02*
X122770500Y-54014200I-250000J0D01*
G01*
X122095500Y-54014200D01*
G75*
G02*
X121845500Y-53764200I0J250000D01*
G01*
G37*
G36*
G01*
X123920500Y-53764200D02*
X123920500Y-52814200D01*
G75*
G02*
X124170500Y-52564200I250000J0D01*
G01*
X124845500Y-52564200D01*
G75*
G02*
X125095500Y-52814200I0J-250000D01*
G01*
X125095500Y-53764200D01*
G75*
G02*
X124845500Y-54014200I-250000J0D01*
G01*
X124170500Y-54014200D01*
G75*
G02*
X123920500Y-53764200I0J250000D01*
G01*
G37*
G36*
G01*
X131568600Y-110049300D02*
X131568600Y-110524300D01*
G75*
G02*
X131331100Y-110761800I-237500J0D01*
G01*
X130731100Y-110761800D01*
G75*
G02*
X130493600Y-110524300I0J237500D01*
G01*
X130493600Y-110049300D01*
G75*
G02*
X130731100Y-109811800I237500J0D01*
G01*
X131331100Y-109811800D01*
G75*
G02*
X131568600Y-110049300I0J-237500D01*
G01*
G37*
G36*
G01*
X133293600Y-110049300D02*
X133293600Y-110524300D01*
G75*
G02*
X133056100Y-110761800I-237500J0D01*
G01*
X132456100Y-110761800D01*
G75*
G02*
X132218600Y-110524300I0J237500D01*
G01*
X132218600Y-110049300D01*
G75*
G02*
X132456100Y-109811800I237500J0D01*
G01*
X133056100Y-109811800D01*
G75*
G02*
X133293600Y-110049300I0J-237500D01*
G01*
G37*
G36*
G01*
X111070900Y-110965000D02*
X111070900Y-110015000D01*
G75*
G02*
X111320900Y-109765000I250000J0D01*
G01*
X111995900Y-109765000D01*
G75*
G02*
X112245900Y-110015000I0J-250000D01*
G01*
X112245900Y-110965000D01*
G75*
G02*
X111995900Y-111215000I-250000J0D01*
G01*
X111320900Y-111215000D01*
G75*
G02*
X111070900Y-110965000I0J250000D01*
G01*
G37*
G36*
G01*
X108995900Y-110965000D02*
X108995900Y-110015000D01*
G75*
G02*
X109245900Y-109765000I250000J0D01*
G01*
X109920900Y-109765000D01*
G75*
G02*
X110170900Y-110015000I0J-250000D01*
G01*
X110170900Y-110965000D01*
G75*
G02*
X109920900Y-111215000I-250000J0D01*
G01*
X109245900Y-111215000D01*
G75*
G02*
X108995900Y-110965000I0J250000D01*
G01*
G37*
G36*
G01*
X121053000Y-54947800D02*
X121053000Y-55897800D01*
G75*
G02*
X120803000Y-56147800I-250000J0D01*
G01*
X120128000Y-56147800D01*
G75*
G02*
X119878000Y-55897800I0J250000D01*
G01*
X119878000Y-54947800D01*
G75*
G02*
X120128000Y-54697800I250000J0D01*
G01*
X120803000Y-54697800D01*
G75*
G02*
X121053000Y-54947800I0J-250000D01*
G01*
G37*
G36*
G01*
X118978000Y-54947800D02*
X118978000Y-55897800D01*
G75*
G02*
X118728000Y-56147800I-250000J0D01*
G01*
X118053000Y-56147800D01*
G75*
G02*
X117803000Y-55897800I0J250000D01*
G01*
X117803000Y-54947800D01*
G75*
G02*
X118053000Y-54697800I250000J0D01*
G01*
X118728000Y-54697800D01*
G75*
G02*
X118978000Y-54947800I0J-250000D01*
G01*
G37*
G36*
G01*
X121053000Y-52814200D02*
X121053000Y-53764200D01*
G75*
G02*
X120803000Y-54014200I-250000J0D01*
G01*
X120128000Y-54014200D01*
G75*
G02*
X119878000Y-53764200I0J250000D01*
G01*
X119878000Y-52814200D01*
G75*
G02*
X120128000Y-52564200I250000J0D01*
G01*
X120803000Y-52564200D01*
G75*
G02*
X121053000Y-52814200I0J-250000D01*
G01*
G37*
G36*
G01*
X118978000Y-52814200D02*
X118978000Y-53764200D01*
G75*
G02*
X118728000Y-54014200I-250000J0D01*
G01*
X118053000Y-54014200D01*
G75*
G02*
X117803000Y-53764200I0J250000D01*
G01*
X117803000Y-52814200D01*
G75*
G02*
X118053000Y-52564200I250000J0D01*
G01*
X118728000Y-52564200D01*
G75*
G02*
X118978000Y-52814200I0J-250000D01*
G01*
G37*
G36*
G01*
X109445600Y-101420500D02*
X109445600Y-100945500D01*
G75*
G02*
X109683100Y-100708000I237500J0D01*
G01*
X110283100Y-100708000D01*
G75*
G02*
X110520600Y-100945500I0J-237500D01*
G01*
X110520600Y-101420500D01*
G75*
G02*
X110283100Y-101658000I-237500J0D01*
G01*
X109683100Y-101658000D01*
G75*
G02*
X109445600Y-101420500I0J237500D01*
G01*
G37*
G36*
G01*
X111170600Y-101420500D02*
X111170600Y-100945500D01*
G75*
G02*
X111408100Y-100708000I237500J0D01*
G01*
X112008100Y-100708000D01*
G75*
G02*
X112245600Y-100945500I0J-237500D01*
G01*
X112245600Y-101420500D01*
G75*
G02*
X112008100Y-101658000I-237500J0D01*
G01*
X111408100Y-101658000D01*
G75*
G02*
X111170600Y-101420500I0J237500D01*
G01*
G37*
G36*
G01*
X118978000Y-50652601D02*
X118978000Y-51602601D01*
G75*
G02*
X118728000Y-51852601I-250000J0D01*
G01*
X118053000Y-51852601D01*
G75*
G02*
X117803000Y-51602601I0J250000D01*
G01*
X117803000Y-50652601D01*
G75*
G02*
X118053000Y-50402601I250000J0D01*
G01*
X118728000Y-50402601D01*
G75*
G02*
X118978000Y-50652601I0J-250000D01*
G01*
G37*
G36*
G01*
X121053000Y-50652601D02*
X121053000Y-51602601D01*
G75*
G02*
X120803000Y-51852601I-250000J0D01*
G01*
X120128000Y-51852601D01*
G75*
G02*
X119878000Y-51602601I0J250000D01*
G01*
X119878000Y-50652601D01*
G75*
G02*
X120128000Y-50402601I250000J0D01*
G01*
X120803000Y-50402601D01*
G75*
G02*
X121053000Y-50652601I0J-250000D01*
G01*
G37*
G36*
G01*
X134023200Y-137657500D02*
X134023200Y-137182500D01*
G75*
G02*
X134260700Y-136945000I237500J0D01*
G01*
X134860700Y-136945000D01*
G75*
G02*
X135098200Y-137182500I0J-237500D01*
G01*
X135098200Y-137657500D01*
G75*
G02*
X134860700Y-137895000I-237500J0D01*
G01*
X134260700Y-137895000D01*
G75*
G02*
X134023200Y-137657500I0J237500D01*
G01*
G37*
G36*
G01*
X132298200Y-137657500D02*
X132298200Y-137182500D01*
G75*
G02*
X132535700Y-136945000I237500J0D01*
G01*
X133135700Y-136945000D01*
G75*
G02*
X133373200Y-137182500I0J-237500D01*
G01*
X133373200Y-137657500D01*
G75*
G02*
X133135700Y-137895000I-237500J0D01*
G01*
X132535700Y-137895000D01*
G75*
G02*
X132298200Y-137657500I0J237500D01*
G01*
G37*
G36*
G01*
X134331700Y-68351800D02*
X134806700Y-68351800D01*
G75*
G02*
X135044200Y-68589300I0J-237500D01*
G01*
X135044200Y-69189300D01*
G75*
G02*
X134806700Y-69426800I-237500J0D01*
G01*
X134331700Y-69426800D01*
G75*
G02*
X134094200Y-69189300I0J237500D01*
G01*
X134094200Y-68589300D01*
G75*
G02*
X134331700Y-68351800I237500J0D01*
G01*
G37*
G36*
G01*
X134331700Y-66626800D02*
X134806700Y-66626800D01*
G75*
G02*
X135044200Y-66864300I0J-237500D01*
G01*
X135044200Y-67464300D01*
G75*
G02*
X134806700Y-67701800I-237500J0D01*
G01*
X134331700Y-67701800D01*
G75*
G02*
X134094200Y-67464300I0J237500D01*
G01*
X134094200Y-66864300D01*
G75*
G02*
X134331700Y-66626800I237500J0D01*
G01*
G37*
D16*
X140740000Y-53644800D03*
X131940000Y-53644800D03*
X131940000Y-60604400D03*
X140740000Y-60604400D03*
D17*
X117814400Y-105368000D03*
X119814400Y-104418000D03*
X119814400Y-106318000D03*
D18*
X121424400Y-106418000D03*
X123324400Y-106418000D03*
X122374400Y-104418000D03*
D19*
X134188200Y-154838400D03*
X129108200Y-154838400D03*
X124028200Y-154838400D03*
D20*
X118948200Y-154838400D03*
X111823500Y-47200000D03*
D19*
X106743500Y-47200000D03*
D20*
X146500000Y-47200000D03*
D19*
X141420000Y-47200000D03*
X136340000Y-47200000D03*
X131260000Y-47200000D03*
G36*
G01*
X119368201Y-144280000D02*
X118468199Y-144280000D01*
G75*
G02*
X118218200Y-144030001I0J249999D01*
G01*
X118218200Y-143329999D01*
G75*
G02*
X118468199Y-143080000I249999J0D01*
G01*
X119368201Y-143080000D01*
G75*
G02*
X119618200Y-143329999I0J-249999D01*
G01*
X119618200Y-144030001D01*
G75*
G02*
X119368201Y-144280000I-249999J0D01*
G01*
G37*
G36*
G01*
X119368201Y-146280000D02*
X118468199Y-146280000D01*
G75*
G02*
X118218200Y-146030001I0J249999D01*
G01*
X118218200Y-145329999D01*
G75*
G02*
X118468199Y-145080000I249999J0D01*
G01*
X119368201Y-145080000D01*
G75*
G02*
X119618200Y-145329999I0J-249999D01*
G01*
X119618200Y-146030001D01*
G75*
G02*
X119368201Y-146280000I-249999J0D01*
G01*
G37*
G36*
G01*
X121330001Y-144280000D02*
X120429999Y-144280000D01*
G75*
G02*
X120180000Y-144030001I0J249999D01*
G01*
X120180000Y-143329999D01*
G75*
G02*
X120429999Y-143080000I249999J0D01*
G01*
X121330001Y-143080000D01*
G75*
G02*
X121580000Y-143329999I0J-249999D01*
G01*
X121580000Y-144030001D01*
G75*
G02*
X121330001Y-144280000I-249999J0D01*
G01*
G37*
G36*
G01*
X121330001Y-146280000D02*
X120429999Y-146280000D01*
G75*
G02*
X120180000Y-146030001I0J249999D01*
G01*
X120180000Y-145329999D01*
G75*
G02*
X120429999Y-145080000I249999J0D01*
G01*
X121330001Y-145080000D01*
G75*
G02*
X121580000Y-145329999I0J-249999D01*
G01*
X121580000Y-146030001D01*
G75*
G02*
X121330001Y-146280000I-249999J0D01*
G01*
G37*
G36*
G01*
X116320000Y-136070001D02*
X116320000Y-135169999D01*
G75*
G02*
X116569999Y-134920000I249999J0D01*
G01*
X117270001Y-134920000D01*
G75*
G02*
X117520000Y-135169999I0J-249999D01*
G01*
X117520000Y-136070001D01*
G75*
G02*
X117270001Y-136320000I-249999J0D01*
G01*
X116569999Y-136320000D01*
G75*
G02*
X116320000Y-136070001I0J249999D01*
G01*
G37*
G36*
G01*
X118320000Y-136070001D02*
X118320000Y-135169999D01*
G75*
G02*
X118569999Y-134920000I249999J0D01*
G01*
X119270001Y-134920000D01*
G75*
G02*
X119520000Y-135169999I0J-249999D01*
G01*
X119520000Y-136070001D01*
G75*
G02*
X119270001Y-136320000I-249999J0D01*
G01*
X118569999Y-136320000D01*
G75*
G02*
X118320000Y-136070001I0J249999D01*
G01*
G37*
G36*
G01*
X118280000Y-130470001D02*
X118280000Y-129569999D01*
G75*
G02*
X118529999Y-129320000I249999J0D01*
G01*
X119230001Y-129320000D01*
G75*
G02*
X119480000Y-129569999I0J-249999D01*
G01*
X119480000Y-130470001D01*
G75*
G02*
X119230001Y-130720000I-249999J0D01*
G01*
X118529999Y-130720000D01*
G75*
G02*
X118280000Y-130470001I0J249999D01*
G01*
G37*
G36*
G01*
X120280000Y-130470001D02*
X120280000Y-129569999D01*
G75*
G02*
X120529999Y-129320000I249999J0D01*
G01*
X121230001Y-129320000D01*
G75*
G02*
X121480000Y-129569999I0J-249999D01*
G01*
X121480000Y-130470001D01*
G75*
G02*
X121230001Y-130720000I-249999J0D01*
G01*
X120529999Y-130720000D01*
G75*
G02*
X120280000Y-130470001I0J249999D01*
G01*
G37*
G36*
G01*
X113003751Y-116805000D02*
X112103749Y-116805000D01*
G75*
G02*
X111853750Y-116555001I0J249999D01*
G01*
X111853750Y-115854999D01*
G75*
G02*
X112103749Y-115605000I249999J0D01*
G01*
X113003751Y-115605000D01*
G75*
G02*
X113253750Y-115854999I0J-249999D01*
G01*
X113253750Y-116555001D01*
G75*
G02*
X113003751Y-116805000I-249999J0D01*
G01*
G37*
G36*
G01*
X113003751Y-118805000D02*
X112103749Y-118805000D01*
G75*
G02*
X111853750Y-118555001I0J249999D01*
G01*
X111853750Y-117854999D01*
G75*
G02*
X112103749Y-117605000I249999J0D01*
G01*
X113003751Y-117605000D01*
G75*
G02*
X113253750Y-117854999I0J-249999D01*
G01*
X113253750Y-118555001D01*
G75*
G02*
X113003751Y-118805000I-249999J0D01*
G01*
G37*
G36*
G01*
X127450800Y-115207201D02*
X127450800Y-114307199D01*
G75*
G02*
X127700799Y-114057200I249999J0D01*
G01*
X128400801Y-114057200D01*
G75*
G02*
X128650800Y-114307199I0J-249999D01*
G01*
X128650800Y-115207201D01*
G75*
G02*
X128400801Y-115457200I-249999J0D01*
G01*
X127700799Y-115457200D01*
G75*
G02*
X127450800Y-115207201I0J249999D01*
G01*
G37*
G36*
G01*
X125450800Y-115207201D02*
X125450800Y-114307199D01*
G75*
G02*
X125700799Y-114057200I249999J0D01*
G01*
X126400801Y-114057200D01*
G75*
G02*
X126650800Y-114307199I0J-249999D01*
G01*
X126650800Y-115207201D01*
G75*
G02*
X126400801Y-115457200I-249999J0D01*
G01*
X125700799Y-115457200D01*
G75*
G02*
X125450800Y-115207201I0J249999D01*
G01*
G37*
G36*
G01*
X132530001Y-117760800D02*
X131629999Y-117760800D01*
G75*
G02*
X131380000Y-117510801I0J249999D01*
G01*
X131380000Y-116810799D01*
G75*
G02*
X131629999Y-116560800I249999J0D01*
G01*
X132530001Y-116560800D01*
G75*
G02*
X132780000Y-116810799I0J-249999D01*
G01*
X132780000Y-117510801D01*
G75*
G02*
X132530001Y-117760800I-249999J0D01*
G01*
G37*
G36*
G01*
X132530001Y-119760800D02*
X131629999Y-119760800D01*
G75*
G02*
X131380000Y-119510801I0J249999D01*
G01*
X131380000Y-118810799D01*
G75*
G02*
X131629999Y-118560800I249999J0D01*
G01*
X132530001Y-118560800D01*
G75*
G02*
X132780000Y-118810799I0J-249999D01*
G01*
X132780000Y-119510801D01*
G75*
G02*
X132530001Y-119760800I-249999J0D01*
G01*
G37*
G36*
G01*
X116961749Y-116104500D02*
X117861751Y-116104500D01*
G75*
G02*
X118111750Y-116354499I0J-249999D01*
G01*
X118111750Y-117054501D01*
G75*
G02*
X117861751Y-117304500I-249999J0D01*
G01*
X116961749Y-117304500D01*
G75*
G02*
X116711750Y-117054501I0J249999D01*
G01*
X116711750Y-116354499D01*
G75*
G02*
X116961749Y-116104500I249999J0D01*
G01*
G37*
G36*
G01*
X116961749Y-118104500D02*
X117861751Y-118104500D01*
G75*
G02*
X118111750Y-118354499I0J-249999D01*
G01*
X118111750Y-119054501D01*
G75*
G02*
X117861751Y-119304500I-249999J0D01*
G01*
X116961749Y-119304500D01*
G75*
G02*
X116711750Y-119054501I0J249999D01*
G01*
X116711750Y-118354499D01*
G75*
G02*
X116961749Y-118104500I249999J0D01*
G01*
G37*
G36*
G01*
X126575149Y-116589500D02*
X127475151Y-116589500D01*
G75*
G02*
X127725150Y-116839499I0J-249999D01*
G01*
X127725150Y-117539501D01*
G75*
G02*
X127475151Y-117789500I-249999J0D01*
G01*
X126575149Y-117789500D01*
G75*
G02*
X126325150Y-117539501I0J249999D01*
G01*
X126325150Y-116839499D01*
G75*
G02*
X126575149Y-116589500I249999J0D01*
G01*
G37*
G36*
G01*
X126575149Y-118589500D02*
X127475151Y-118589500D01*
G75*
G02*
X127725150Y-118839499I0J-249999D01*
G01*
X127725150Y-119539501D01*
G75*
G02*
X127475151Y-119789500I-249999J0D01*
G01*
X126575149Y-119789500D01*
G75*
G02*
X126325150Y-119539501I0J249999D01*
G01*
X126325150Y-118839499D01*
G75*
G02*
X126575149Y-118589500I249999J0D01*
G01*
G37*
G36*
G01*
X117464400Y-112375500D02*
X117464400Y-111900500D01*
G75*
G02*
X117701900Y-111663000I237500J0D01*
G01*
X118201900Y-111663000D01*
G75*
G02*
X118439400Y-111900500I0J-237500D01*
G01*
X118439400Y-112375500D01*
G75*
G02*
X118201900Y-112613000I-237500J0D01*
G01*
X117701900Y-112613000D01*
G75*
G02*
X117464400Y-112375500I0J237500D01*
G01*
G37*
G36*
G01*
X119289400Y-112375500D02*
X119289400Y-111900500D01*
G75*
G02*
X119526900Y-111663000I237500J0D01*
G01*
X120026900Y-111663000D01*
G75*
G02*
X120264400Y-111900500I0J-237500D01*
G01*
X120264400Y-112375500D01*
G75*
G02*
X120026900Y-112613000I-237500J0D01*
G01*
X119526900Y-112613000D01*
G75*
G02*
X119289400Y-112375500I0J237500D01*
G01*
G37*
G36*
G01*
X125809400Y-109290500D02*
X125809400Y-109765500D01*
G75*
G02*
X125571900Y-110003000I-237500J0D01*
G01*
X125071900Y-110003000D01*
G75*
G02*
X124834400Y-109765500I0J237500D01*
G01*
X124834400Y-109290500D01*
G75*
G02*
X125071900Y-109053000I237500J0D01*
G01*
X125571900Y-109053000D01*
G75*
G02*
X125809400Y-109290500I0J-237500D01*
G01*
G37*
G36*
G01*
X127634400Y-109290500D02*
X127634400Y-109765500D01*
G75*
G02*
X127396900Y-110003000I-237500J0D01*
G01*
X126896900Y-110003000D01*
G75*
G02*
X126659400Y-109765500I0J237500D01*
G01*
X126659400Y-109290500D01*
G75*
G02*
X126896900Y-109053000I237500J0D01*
G01*
X127396900Y-109053000D01*
G75*
G02*
X127634400Y-109290500I0J-237500D01*
G01*
G37*
G36*
G01*
X116026900Y-109693000D02*
X116501900Y-109693000D01*
G75*
G02*
X116739400Y-109930500I0J-237500D01*
G01*
X116739400Y-110430500D01*
G75*
G02*
X116501900Y-110668000I-237500J0D01*
G01*
X116026900Y-110668000D01*
G75*
G02*
X115789400Y-110430500I0J237500D01*
G01*
X115789400Y-109930500D01*
G75*
G02*
X116026900Y-109693000I237500J0D01*
G01*
G37*
G36*
G01*
X116026900Y-107868000D02*
X116501900Y-107868000D01*
G75*
G02*
X116739400Y-108105500I0J-237500D01*
G01*
X116739400Y-108605500D01*
G75*
G02*
X116501900Y-108843000I-237500J0D01*
G01*
X116026900Y-108843000D01*
G75*
G02*
X115789400Y-108605500I0J237500D01*
G01*
X115789400Y-108105500D01*
G75*
G02*
X116026900Y-107868000I237500J0D01*
G01*
G37*
G36*
G01*
X124834400Y-108225500D02*
X124834400Y-107750500D01*
G75*
G02*
X125071900Y-107513000I237500J0D01*
G01*
X125571900Y-107513000D01*
G75*
G02*
X125809400Y-107750500I0J-237500D01*
G01*
X125809400Y-108225500D01*
G75*
G02*
X125571900Y-108463000I-237500J0D01*
G01*
X125071900Y-108463000D01*
G75*
G02*
X124834400Y-108225500I0J237500D01*
G01*
G37*
G36*
G01*
X126659400Y-108225500D02*
X126659400Y-107750500D01*
G75*
G02*
X126896900Y-107513000I237500J0D01*
G01*
X127396900Y-107513000D01*
G75*
G02*
X127634400Y-107750500I0J-237500D01*
G01*
X127634400Y-108225500D01*
G75*
G02*
X127396900Y-108463000I-237500J0D01*
G01*
X126896900Y-108463000D01*
G75*
G02*
X126659400Y-108225500I0J237500D01*
G01*
G37*
G36*
G01*
X122765000Y-98720900D02*
X122765000Y-99195900D01*
G75*
G02*
X122527500Y-99433400I-237500J0D01*
G01*
X122027500Y-99433400D01*
G75*
G02*
X121790000Y-99195900I0J237500D01*
G01*
X121790000Y-98720900D01*
G75*
G02*
X122027500Y-98483400I237500J0D01*
G01*
X122527500Y-98483400D01*
G75*
G02*
X122765000Y-98720900I0J-237500D01*
G01*
G37*
G36*
G01*
X124590000Y-98720900D02*
X124590000Y-99195900D01*
G75*
G02*
X124352500Y-99433400I-237500J0D01*
G01*
X123852500Y-99433400D01*
G75*
G02*
X123615000Y-99195900I0J237500D01*
G01*
X123615000Y-98720900D01*
G75*
G02*
X123852500Y-98483400I237500J0D01*
G01*
X124352500Y-98483400D01*
G75*
G02*
X124590000Y-98720900I0J-237500D01*
G01*
G37*
G36*
G01*
X120998401Y-99440800D02*
X120098399Y-99440800D01*
G75*
G02*
X119848400Y-99190801I0J249999D01*
G01*
X119848400Y-98490799D01*
G75*
G02*
X120098399Y-98240800I249999J0D01*
G01*
X120998401Y-98240800D01*
G75*
G02*
X121248400Y-98490799I0J-249999D01*
G01*
X121248400Y-99190801D01*
G75*
G02*
X120998401Y-99440800I-249999J0D01*
G01*
G37*
G36*
G01*
X120998401Y-97440800D02*
X120098399Y-97440800D01*
G75*
G02*
X119848400Y-97190801I0J249999D01*
G01*
X119848400Y-96490799D01*
G75*
G02*
X120098399Y-96240800I249999J0D01*
G01*
X120998401Y-96240800D01*
G75*
G02*
X121248400Y-96490799I0J-249999D01*
G01*
X121248400Y-97190801D01*
G75*
G02*
X120998401Y-97440800I-249999J0D01*
G01*
G37*
G36*
G01*
X112097500Y-145292500D02*
X111622500Y-145292500D01*
G75*
G02*
X111385000Y-145055000I0J237500D01*
G01*
X111385000Y-144555000D01*
G75*
G02*
X111622500Y-144317500I237500J0D01*
G01*
X112097500Y-144317500D01*
G75*
G02*
X112335000Y-144555000I0J-237500D01*
G01*
X112335000Y-145055000D01*
G75*
G02*
X112097500Y-145292500I-237500J0D01*
G01*
G37*
G36*
G01*
X112097500Y-143467500D02*
X111622500Y-143467500D01*
G75*
G02*
X111385000Y-143230000I0J237500D01*
G01*
X111385000Y-142730000D01*
G75*
G02*
X111622500Y-142492500I237500J0D01*
G01*
X112097500Y-142492500D01*
G75*
G02*
X112335000Y-142730000I0J-237500D01*
G01*
X112335000Y-143230000D01*
G75*
G02*
X112097500Y-143467500I-237500J0D01*
G01*
G37*
G36*
G01*
X107962500Y-144317500D02*
X108437500Y-144317500D01*
G75*
G02*
X108675000Y-144555000I0J-237500D01*
G01*
X108675000Y-145055000D01*
G75*
G02*
X108437500Y-145292500I-237500J0D01*
G01*
X107962500Y-145292500D01*
G75*
G02*
X107725000Y-145055000I0J237500D01*
G01*
X107725000Y-144555000D01*
G75*
G02*
X107962500Y-144317500I237500J0D01*
G01*
G37*
G36*
G01*
X107962500Y-142492500D02*
X108437500Y-142492500D01*
G75*
G02*
X108675000Y-142730000I0J-237500D01*
G01*
X108675000Y-143230000D01*
G75*
G02*
X108437500Y-143467500I-237500J0D01*
G01*
X107962500Y-143467500D01*
G75*
G02*
X107725000Y-143230000I0J237500D01*
G01*
X107725000Y-142730000D01*
G75*
G02*
X107962500Y-142492500I237500J0D01*
G01*
G37*
G36*
G01*
X111065300Y-155546600D02*
X111540300Y-155546600D01*
G75*
G02*
X111777800Y-155784100I0J-237500D01*
G01*
X111777800Y-156284100D01*
G75*
G02*
X111540300Y-156521600I-237500J0D01*
G01*
X111065300Y-156521600D01*
G75*
G02*
X110827800Y-156284100I0J237500D01*
G01*
X110827800Y-155784100D01*
G75*
G02*
X111065300Y-155546600I237500J0D01*
G01*
G37*
G36*
G01*
X111065300Y-157371600D02*
X111540300Y-157371600D01*
G75*
G02*
X111777800Y-157609100I0J-237500D01*
G01*
X111777800Y-158109100D01*
G75*
G02*
X111540300Y-158346600I-237500J0D01*
G01*
X111065300Y-158346600D01*
G75*
G02*
X110827800Y-158109100I0J237500D01*
G01*
X110827800Y-157609100D01*
G75*
G02*
X111065300Y-157371600I237500J0D01*
G01*
G37*
G36*
G01*
X108525300Y-157371600D02*
X109000300Y-157371600D01*
G75*
G02*
X109237800Y-157609100I0J-237500D01*
G01*
X109237800Y-158109100D01*
G75*
G02*
X109000300Y-158346600I-237500J0D01*
G01*
X108525300Y-158346600D01*
G75*
G02*
X108287800Y-158109100I0J237500D01*
G01*
X108287800Y-157609100D01*
G75*
G02*
X108525300Y-157371600I237500J0D01*
G01*
G37*
G36*
G01*
X108525300Y-155546600D02*
X109000300Y-155546600D01*
G75*
G02*
X109237800Y-155784100I0J-237500D01*
G01*
X109237800Y-156284100D01*
G75*
G02*
X109000300Y-156521600I-237500J0D01*
G01*
X108525300Y-156521600D01*
G75*
G02*
X108287800Y-156284100I0J237500D01*
G01*
X108287800Y-155784100D01*
G75*
G02*
X108525300Y-155546600I237500J0D01*
G01*
G37*
G36*
G01*
X144288500Y-155546600D02*
X144763500Y-155546600D01*
G75*
G02*
X145001000Y-155784100I0J-237500D01*
G01*
X145001000Y-156284100D01*
G75*
G02*
X144763500Y-156521600I-237500J0D01*
G01*
X144288500Y-156521600D01*
G75*
G02*
X144051000Y-156284100I0J237500D01*
G01*
X144051000Y-155784100D01*
G75*
G02*
X144288500Y-155546600I237500J0D01*
G01*
G37*
G36*
G01*
X144288500Y-157371600D02*
X144763500Y-157371600D01*
G75*
G02*
X145001000Y-157609100I0J-237500D01*
G01*
X145001000Y-158109100D01*
G75*
G02*
X144763500Y-158346600I-237500J0D01*
G01*
X144288500Y-158346600D01*
G75*
G02*
X144051000Y-158109100I0J237500D01*
G01*
X144051000Y-157609100D01*
G75*
G02*
X144288500Y-157371600I237500J0D01*
G01*
G37*
G36*
G01*
X141748500Y-157371600D02*
X142223500Y-157371600D01*
G75*
G02*
X142461000Y-157609100I0J-237500D01*
G01*
X142461000Y-158109100D01*
G75*
G02*
X142223500Y-158346600I-237500J0D01*
G01*
X141748500Y-158346600D01*
G75*
G02*
X141511000Y-158109100I0J237500D01*
G01*
X141511000Y-157609100D01*
G75*
G02*
X141748500Y-157371600I237500J0D01*
G01*
G37*
G36*
G01*
X141748500Y-155546600D02*
X142223500Y-155546600D01*
G75*
G02*
X142461000Y-155784100I0J-237500D01*
G01*
X142461000Y-156284100D01*
G75*
G02*
X142223500Y-156521600I-237500J0D01*
G01*
X141748500Y-156521600D01*
G75*
G02*
X141511000Y-156284100I0J237500D01*
G01*
X141511000Y-155784100D01*
G75*
G02*
X141748500Y-155546600I237500J0D01*
G01*
G37*
G36*
G01*
X135810000Y-148250001D02*
X135810000Y-147349999D01*
G75*
G02*
X136059999Y-147100000I249999J0D01*
G01*
X136760001Y-147100000D01*
G75*
G02*
X137010000Y-147349999I0J-249999D01*
G01*
X137010000Y-148250001D01*
G75*
G02*
X136760001Y-148500000I-249999J0D01*
G01*
X136059999Y-148500000D01*
G75*
G02*
X135810000Y-148250001I0J249999D01*
G01*
G37*
G36*
G01*
X133810000Y-148250001D02*
X133810000Y-147349999D01*
G75*
G02*
X134059999Y-147100000I249999J0D01*
G01*
X134760001Y-147100000D01*
G75*
G02*
X135010000Y-147349999I0J-249999D01*
G01*
X135010000Y-148250001D01*
G75*
G02*
X134760001Y-148500000I-249999J0D01*
G01*
X134059999Y-148500000D01*
G75*
G02*
X133810000Y-148250001I0J249999D01*
G01*
G37*
G36*
G01*
X116200001Y-145300000D02*
X115299999Y-145300000D01*
G75*
G02*
X115050000Y-145050001I0J249999D01*
G01*
X115050000Y-144349999D01*
G75*
G02*
X115299999Y-144100000I249999J0D01*
G01*
X116200001Y-144100000D01*
G75*
G02*
X116450000Y-144349999I0J-249999D01*
G01*
X116450000Y-145050001D01*
G75*
G02*
X116200001Y-145300000I-249999J0D01*
G01*
G37*
G36*
G01*
X116200001Y-143300000D02*
X115299999Y-143300000D01*
G75*
G02*
X115050000Y-143050001I0J249999D01*
G01*
X115050000Y-142349999D01*
G75*
G02*
X115299999Y-142100000I249999J0D01*
G01*
X116200001Y-142100000D01*
G75*
G02*
X116450000Y-142349999I0J-249999D01*
G01*
X116450000Y-143050001D01*
G75*
G02*
X116200001Y-143300000I-249999J0D01*
G01*
G37*
G36*
G01*
X140840001Y-143750000D02*
X139939999Y-143750000D01*
G75*
G02*
X139690000Y-143500001I0J249999D01*
G01*
X139690000Y-142799999D01*
G75*
G02*
X139939999Y-142550000I249999J0D01*
G01*
X140840001Y-142550000D01*
G75*
G02*
X141090000Y-142799999I0J-249999D01*
G01*
X141090000Y-143500001D01*
G75*
G02*
X140840001Y-143750000I-249999J0D01*
G01*
G37*
G36*
G01*
X140840001Y-141750000D02*
X139939999Y-141750000D01*
G75*
G02*
X139690000Y-141500001I0J249999D01*
G01*
X139690000Y-140799999D01*
G75*
G02*
X139939999Y-140550000I249999J0D01*
G01*
X140840001Y-140550000D01*
G75*
G02*
X141090000Y-140799999I0J-249999D01*
G01*
X141090000Y-141500001D01*
G75*
G02*
X140840001Y-141750000I-249999J0D01*
G01*
G37*
G36*
G01*
X126449999Y-142240000D02*
X127350001Y-142240000D01*
G75*
G02*
X127600000Y-142489999I0J-249999D01*
G01*
X127600000Y-143190001D01*
G75*
G02*
X127350001Y-143440000I-249999J0D01*
G01*
X126449999Y-143440000D01*
G75*
G02*
X126200000Y-143190001I0J249999D01*
G01*
X126200000Y-142489999D01*
G75*
G02*
X126449999Y-142240000I249999J0D01*
G01*
G37*
G36*
G01*
X126449999Y-144240000D02*
X127350001Y-144240000D01*
G75*
G02*
X127600000Y-144489999I0J-249999D01*
G01*
X127600000Y-145190001D01*
G75*
G02*
X127350001Y-145440000I-249999J0D01*
G01*
X126449999Y-145440000D01*
G75*
G02*
X126200000Y-145190001I0J249999D01*
G01*
X126200000Y-144489999D01*
G75*
G02*
X126449999Y-144240000I249999J0D01*
G01*
G37*
G36*
G01*
X136850001Y-142680000D02*
X135949999Y-142680000D01*
G75*
G02*
X135700000Y-142430001I0J249999D01*
G01*
X135700000Y-141729999D01*
G75*
G02*
X135949999Y-141480000I249999J0D01*
G01*
X136850001Y-141480000D01*
G75*
G02*
X137100000Y-141729999I0J-249999D01*
G01*
X137100000Y-142430001D01*
G75*
G02*
X136850001Y-142680000I-249999J0D01*
G01*
G37*
G36*
G01*
X136850001Y-140680000D02*
X135949999Y-140680000D01*
G75*
G02*
X135700000Y-140430001I0J249999D01*
G01*
X135700000Y-139729999D01*
G75*
G02*
X135949999Y-139480000I249999J0D01*
G01*
X136850001Y-139480000D01*
G75*
G02*
X137100000Y-139729999I0J-249999D01*
G01*
X137100000Y-140430001D01*
G75*
G02*
X136850001Y-140680000I-249999J0D01*
G01*
G37*
G36*
G01*
X127350001Y-139645000D02*
X126449999Y-139645000D01*
G75*
G02*
X126200000Y-139395001I0J249999D01*
G01*
X126200000Y-138694999D01*
G75*
G02*
X126449999Y-138445000I249999J0D01*
G01*
X127350001Y-138445000D01*
G75*
G02*
X127600000Y-138694999I0J-249999D01*
G01*
X127600000Y-139395001D01*
G75*
G02*
X127350001Y-139645000I-249999J0D01*
G01*
G37*
G36*
G01*
X127350001Y-141645000D02*
X126449999Y-141645000D01*
G75*
G02*
X126200000Y-141395001I0J249999D01*
G01*
X126200000Y-140694999D01*
G75*
G02*
X126449999Y-140445000I249999J0D01*
G01*
X127350001Y-140445000D01*
G75*
G02*
X127600000Y-140694999I0J-249999D01*
G01*
X127600000Y-141395001D01*
G75*
G02*
X127350001Y-141645000I-249999J0D01*
G01*
G37*
G36*
G01*
X142147100Y-68952100D02*
X142147100Y-69427100D01*
G75*
G02*
X141909600Y-69664600I-237500J0D01*
G01*
X141409600Y-69664600D01*
G75*
G02*
X141172100Y-69427100I0J237500D01*
G01*
X141172100Y-68952100D01*
G75*
G02*
X141409600Y-68714600I237500J0D01*
G01*
X141909600Y-68714600D01*
G75*
G02*
X142147100Y-68952100I0J-237500D01*
G01*
G37*
G36*
G01*
X143972100Y-68952100D02*
X143972100Y-69427100D01*
G75*
G02*
X143734600Y-69664600I-237500J0D01*
G01*
X143234600Y-69664600D01*
G75*
G02*
X142997100Y-69427100I0J237500D01*
G01*
X142997100Y-68952100D01*
G75*
G02*
X143234600Y-68714600I237500J0D01*
G01*
X143734600Y-68714600D01*
G75*
G02*
X143972100Y-68952100I0J-237500D01*
G01*
G37*
G36*
G01*
X143972100Y-67377300D02*
X143972100Y-67852300D01*
G75*
G02*
X143734600Y-68089800I-237500J0D01*
G01*
X143234600Y-68089800D01*
G75*
G02*
X142997100Y-67852300I0J237500D01*
G01*
X142997100Y-67377300D01*
G75*
G02*
X143234600Y-67139800I237500J0D01*
G01*
X143734600Y-67139800D01*
G75*
G02*
X143972100Y-67377300I0J-237500D01*
G01*
G37*
G36*
G01*
X142147100Y-67377300D02*
X142147100Y-67852300D01*
G75*
G02*
X141909600Y-68089800I-237500J0D01*
G01*
X141409600Y-68089800D01*
G75*
G02*
X141172100Y-67852300I0J237500D01*
G01*
X141172100Y-67377300D01*
G75*
G02*
X141409600Y-67139800I237500J0D01*
G01*
X141909600Y-67139800D01*
G75*
G02*
X142147100Y-67377300I0J-237500D01*
G01*
G37*
D21*
X114560000Y-135620000D03*
X112020000Y-135620000D03*
X109480000Y-135620000D03*
X109480000Y-130030000D03*
X112020000Y-130030000D03*
X114560000Y-130030000D03*
X115316000Y-121285000D03*
X115316000Y-118745000D03*
X115316000Y-116205000D03*
X109791500Y-116205000D03*
X109791500Y-118745000D03*
X109791500Y-121285000D03*
X129336800Y-121716800D03*
X129336800Y-119176800D03*
X129336800Y-116636800D03*
X134823200Y-116636800D03*
X134823200Y-119176800D03*
X134823200Y-121716800D03*
X138360000Y-143150000D03*
X138360000Y-140610000D03*
X138360000Y-138070000D03*
X124870000Y-138070000D03*
X124870000Y-140610000D03*
X124870000Y-143150000D03*
G36*
G01*
X106024000Y-50315000D02*
X106024000Y-50015000D01*
G75*
G02*
X106174000Y-49865000I150000J0D01*
G01*
X107824000Y-49865000D01*
G75*
G02*
X107974000Y-50015000I0J-150000D01*
G01*
X107974000Y-50315000D01*
G75*
G02*
X107824000Y-50465000I-150000J0D01*
G01*
X106174000Y-50465000D01*
G75*
G02*
X106024000Y-50315000I0J150000D01*
G01*
G37*
G36*
G01*
X106024000Y-51585000D02*
X106024000Y-51285000D01*
G75*
G02*
X106174000Y-51135000I150000J0D01*
G01*
X107824000Y-51135000D01*
G75*
G02*
X107974000Y-51285000I0J-150000D01*
G01*
X107974000Y-51585000D01*
G75*
G02*
X107824000Y-51735000I-150000J0D01*
G01*
X106174000Y-51735000D01*
G75*
G02*
X106024000Y-51585000I0J150000D01*
G01*
G37*
G36*
G01*
X106024000Y-52855000D02*
X106024000Y-52555000D01*
G75*
G02*
X106174000Y-52405000I150000J0D01*
G01*
X107824000Y-52405000D01*
G75*
G02*
X107974000Y-52555000I0J-150000D01*
G01*
X107974000Y-52855000D01*
G75*
G02*
X107824000Y-53005000I-150000J0D01*
G01*
X106174000Y-53005000D01*
G75*
G02*
X106024000Y-52855000I0J150000D01*
G01*
G37*
G36*
G01*
X106024000Y-54125000D02*
X106024000Y-53825000D01*
G75*
G02*
X106174000Y-53675000I150000J0D01*
G01*
X107824000Y-53675000D01*
G75*
G02*
X107974000Y-53825000I0J-150000D01*
G01*
X107974000Y-54125000D01*
G75*
G02*
X107824000Y-54275000I-150000J0D01*
G01*
X106174000Y-54275000D01*
G75*
G02*
X106024000Y-54125000I0J150000D01*
G01*
G37*
G36*
G01*
X110974000Y-54125000D02*
X110974000Y-53825000D01*
G75*
G02*
X111124000Y-53675000I150000J0D01*
G01*
X112774000Y-53675000D01*
G75*
G02*
X112924000Y-53825000I0J-150000D01*
G01*
X112924000Y-54125000D01*
G75*
G02*
X112774000Y-54275000I-150000J0D01*
G01*
X111124000Y-54275000D01*
G75*
G02*
X110974000Y-54125000I0J150000D01*
G01*
G37*
G36*
G01*
X110974000Y-52855000D02*
X110974000Y-52555000D01*
G75*
G02*
X111124000Y-52405000I150000J0D01*
G01*
X112774000Y-52405000D01*
G75*
G02*
X112924000Y-52555000I0J-150000D01*
G01*
X112924000Y-52855000D01*
G75*
G02*
X112774000Y-53005000I-150000J0D01*
G01*
X111124000Y-53005000D01*
G75*
G02*
X110974000Y-52855000I0J150000D01*
G01*
G37*
G36*
G01*
X110974000Y-51585000D02*
X110974000Y-51285000D01*
G75*
G02*
X111124000Y-51135000I150000J0D01*
G01*
X112774000Y-51135000D01*
G75*
G02*
X112924000Y-51285000I0J-150000D01*
G01*
X112924000Y-51585000D01*
G75*
G02*
X112774000Y-51735000I-150000J0D01*
G01*
X111124000Y-51735000D01*
G75*
G02*
X110974000Y-51585000I0J150000D01*
G01*
G37*
G36*
G01*
X110974000Y-50315000D02*
X110974000Y-50015000D01*
G75*
G02*
X111124000Y-49865000I150000J0D01*
G01*
X112774000Y-49865000D01*
G75*
G02*
X112924000Y-50015000I0J-150000D01*
G01*
X112924000Y-50315000D01*
G75*
G02*
X112774000Y-50465000I-150000J0D01*
G01*
X111124000Y-50465000D01*
G75*
G02*
X110974000Y-50315000I0J150000D01*
G01*
G37*
G36*
G01*
X123737500Y-116799500D02*
X123737500Y-116499500D01*
G75*
G02*
X123887500Y-116349500I150000J0D01*
G01*
X125537500Y-116349500D01*
G75*
G02*
X125687500Y-116499500I0J-150000D01*
G01*
X125687500Y-116799500D01*
G75*
G02*
X125537500Y-116949500I-150000J0D01*
G01*
X123887500Y-116949500D01*
G75*
G02*
X123737500Y-116799500I0J150000D01*
G01*
G37*
G36*
G01*
X123737500Y-118069500D02*
X123737500Y-117769500D01*
G75*
G02*
X123887500Y-117619500I150000J0D01*
G01*
X125537500Y-117619500D01*
G75*
G02*
X125687500Y-117769500I0J-150000D01*
G01*
X125687500Y-118069500D01*
G75*
G02*
X125537500Y-118219500I-150000J0D01*
G01*
X123887500Y-118219500D01*
G75*
G02*
X123737500Y-118069500I0J150000D01*
G01*
G37*
G36*
G01*
X123737500Y-119339500D02*
X123737500Y-119039500D01*
G75*
G02*
X123887500Y-118889500I150000J0D01*
G01*
X125537500Y-118889500D01*
G75*
G02*
X125687500Y-119039500I0J-150000D01*
G01*
X125687500Y-119339500D01*
G75*
G02*
X125537500Y-119489500I-150000J0D01*
G01*
X123887500Y-119489500D01*
G75*
G02*
X123737500Y-119339500I0J150000D01*
G01*
G37*
G36*
G01*
X123737500Y-120609500D02*
X123737500Y-120309500D01*
G75*
G02*
X123887500Y-120159500I150000J0D01*
G01*
X125537500Y-120159500D01*
G75*
G02*
X125687500Y-120309500I0J-150000D01*
G01*
X125687500Y-120609500D01*
G75*
G02*
X125537500Y-120759500I-150000J0D01*
G01*
X123887500Y-120759500D01*
G75*
G02*
X123737500Y-120609500I0J150000D01*
G01*
G37*
G36*
G01*
X118787500Y-120609500D02*
X118787500Y-120309500D01*
G75*
G02*
X118937500Y-120159500I150000J0D01*
G01*
X120587500Y-120159500D01*
G75*
G02*
X120737500Y-120309500I0J-150000D01*
G01*
X120737500Y-120609500D01*
G75*
G02*
X120587500Y-120759500I-150000J0D01*
G01*
X118937500Y-120759500D01*
G75*
G02*
X118787500Y-120609500I0J150000D01*
G01*
G37*
G36*
G01*
X118787500Y-119339500D02*
X118787500Y-119039500D01*
G75*
G02*
X118937500Y-118889500I150000J0D01*
G01*
X120587500Y-118889500D01*
G75*
G02*
X120737500Y-119039500I0J-150000D01*
G01*
X120737500Y-119339500D01*
G75*
G02*
X120587500Y-119489500I-150000J0D01*
G01*
X118937500Y-119489500D01*
G75*
G02*
X118787500Y-119339500I0J150000D01*
G01*
G37*
G36*
G01*
X118787500Y-118069500D02*
X118787500Y-117769500D01*
G75*
G02*
X118937500Y-117619500I150000J0D01*
G01*
X120587500Y-117619500D01*
G75*
G02*
X120737500Y-117769500I0J-150000D01*
G01*
X120737500Y-118069500D01*
G75*
G02*
X120587500Y-118219500I-150000J0D01*
G01*
X118937500Y-118219500D01*
G75*
G02*
X118787500Y-118069500I0J150000D01*
G01*
G37*
G36*
G01*
X118787500Y-116799500D02*
X118787500Y-116499500D01*
G75*
G02*
X118937500Y-116349500I150000J0D01*
G01*
X120587500Y-116349500D01*
G75*
G02*
X120737500Y-116499500I0J-150000D01*
G01*
X120737500Y-116799500D01*
G75*
G02*
X120587500Y-116949500I-150000J0D01*
G01*
X118937500Y-116949500D01*
G75*
G02*
X118787500Y-116799500I0J150000D01*
G01*
G37*
D22*
X118394400Y-100533000D03*
X118394400Y-101183000D03*
X118394400Y-101833000D03*
X118394400Y-102483000D03*
X122794400Y-102483000D03*
X122794400Y-101833000D03*
X122794400Y-101183000D03*
X122794400Y-100533000D03*
G36*
G01*
X131188600Y-109191401D02*
X130888600Y-109191401D01*
G75*
G02*
X130738600Y-109041401I0J150000D01*
G01*
X130738600Y-107391401D01*
G75*
G02*
X130888600Y-107241401I150000J0D01*
G01*
X131188600Y-107241401D01*
G75*
G02*
X131338600Y-107391401I0J-150000D01*
G01*
X131338600Y-109041401D01*
G75*
G02*
X131188600Y-109191401I-150000J0D01*
G01*
G37*
G36*
G01*
X132458600Y-109191401D02*
X132158600Y-109191401D01*
G75*
G02*
X132008600Y-109041401I0J150000D01*
G01*
X132008600Y-107391401D01*
G75*
G02*
X132158600Y-107241401I150000J0D01*
G01*
X132458600Y-107241401D01*
G75*
G02*
X132608600Y-107391401I0J-150000D01*
G01*
X132608600Y-109041401D01*
G75*
G02*
X132458600Y-109191401I-150000J0D01*
G01*
G37*
G36*
G01*
X133728600Y-109191401D02*
X133428600Y-109191401D01*
G75*
G02*
X133278600Y-109041401I0J150000D01*
G01*
X133278600Y-107391401D01*
G75*
G02*
X133428600Y-107241401I150000J0D01*
G01*
X133728600Y-107241401D01*
G75*
G02*
X133878600Y-107391401I0J-150000D01*
G01*
X133878600Y-109041401D01*
G75*
G02*
X133728600Y-109191401I-150000J0D01*
G01*
G37*
G36*
G01*
X134998600Y-109191401D02*
X134698600Y-109191401D01*
G75*
G02*
X134548600Y-109041401I0J150000D01*
G01*
X134548600Y-107391401D01*
G75*
G02*
X134698600Y-107241401I150000J0D01*
G01*
X134998600Y-107241401D01*
G75*
G02*
X135148600Y-107391401I0J-150000D01*
G01*
X135148600Y-109041401D01*
G75*
G02*
X134998600Y-109191401I-150000J0D01*
G01*
G37*
G36*
G01*
X134998600Y-104241401D02*
X134698600Y-104241401D01*
G75*
G02*
X134548600Y-104091401I0J150000D01*
G01*
X134548600Y-102441401D01*
G75*
G02*
X134698600Y-102291401I150000J0D01*
G01*
X134998600Y-102291401D01*
G75*
G02*
X135148600Y-102441401I0J-150000D01*
G01*
X135148600Y-104091401D01*
G75*
G02*
X134998600Y-104241401I-150000J0D01*
G01*
G37*
G36*
G01*
X133728600Y-104241401D02*
X133428600Y-104241401D01*
G75*
G02*
X133278600Y-104091401I0J150000D01*
G01*
X133278600Y-102441401D01*
G75*
G02*
X133428600Y-102291401I150000J0D01*
G01*
X133728600Y-102291401D01*
G75*
G02*
X133878600Y-102441401I0J-150000D01*
G01*
X133878600Y-104091401D01*
G75*
G02*
X133728600Y-104241401I-150000J0D01*
G01*
G37*
G36*
G01*
X132458600Y-104241401D02*
X132158600Y-104241401D01*
G75*
G02*
X132008600Y-104091401I0J150000D01*
G01*
X132008600Y-102441401D01*
G75*
G02*
X132158600Y-102291401I150000J0D01*
G01*
X132458600Y-102291401D01*
G75*
G02*
X132608600Y-102441401I0J-150000D01*
G01*
X132608600Y-104091401D01*
G75*
G02*
X132458600Y-104241401I-150000J0D01*
G01*
G37*
G36*
G01*
X131188600Y-104241401D02*
X130888600Y-104241401D01*
G75*
G02*
X130738600Y-104091401I0J150000D01*
G01*
X130738600Y-102441401D01*
G75*
G02*
X130888600Y-102291401I150000J0D01*
G01*
X131188600Y-102291401D01*
G75*
G02*
X131338600Y-102441401I0J-150000D01*
G01*
X131338600Y-104091401D01*
G75*
G02*
X131188600Y-104241401I-150000J0D01*
G01*
G37*
D23*
X124000000Y-47800000D03*
D24*
X121460000Y-47800000D03*
X118920000Y-47800000D03*
G36*
G01*
X111550600Y-107241401D02*
X111850600Y-107241401D01*
G75*
G02*
X112000600Y-107391401I0J-150000D01*
G01*
X112000600Y-109041401D01*
G75*
G02*
X111850600Y-109191401I-150000J0D01*
G01*
X111550600Y-109191401D01*
G75*
G02*
X111400600Y-109041401I0J150000D01*
G01*
X111400600Y-107391401D01*
G75*
G02*
X111550600Y-107241401I150000J0D01*
G01*
G37*
G36*
G01*
X110280600Y-107241401D02*
X110580600Y-107241401D01*
G75*
G02*
X110730600Y-107391401I0J-150000D01*
G01*
X110730600Y-109041401D01*
G75*
G02*
X110580600Y-109191401I-150000J0D01*
G01*
X110280600Y-109191401D01*
G75*
G02*
X110130600Y-109041401I0J150000D01*
G01*
X110130600Y-107391401D01*
G75*
G02*
X110280600Y-107241401I150000J0D01*
G01*
G37*
G36*
G01*
X109010600Y-107241401D02*
X109310600Y-107241401D01*
G75*
G02*
X109460600Y-107391401I0J-150000D01*
G01*
X109460600Y-109041401D01*
G75*
G02*
X109310600Y-109191401I-150000J0D01*
G01*
X109010600Y-109191401D01*
G75*
G02*
X108860600Y-109041401I0J150000D01*
G01*
X108860600Y-107391401D01*
G75*
G02*
X109010600Y-107241401I150000J0D01*
G01*
G37*
G36*
G01*
X107740600Y-107241401D02*
X108040600Y-107241401D01*
G75*
G02*
X108190600Y-107391401I0J-150000D01*
G01*
X108190600Y-109041401D01*
G75*
G02*
X108040600Y-109191401I-150000J0D01*
G01*
X107740600Y-109191401D01*
G75*
G02*
X107590600Y-109041401I0J150000D01*
G01*
X107590600Y-107391401D01*
G75*
G02*
X107740600Y-107241401I150000J0D01*
G01*
G37*
G36*
G01*
X107740600Y-102291401D02*
X108040600Y-102291401D01*
G75*
G02*
X108190600Y-102441401I0J-150000D01*
G01*
X108190600Y-104091401D01*
G75*
G02*
X108040600Y-104241401I-150000J0D01*
G01*
X107740600Y-104241401D01*
G75*
G02*
X107590600Y-104091401I0J150000D01*
G01*
X107590600Y-102441401D01*
G75*
G02*
X107740600Y-102291401I150000J0D01*
G01*
G37*
G36*
G01*
X109010600Y-102291401D02*
X109310600Y-102291401D01*
G75*
G02*
X109460600Y-102441401I0J-150000D01*
G01*
X109460600Y-104091401D01*
G75*
G02*
X109310600Y-104241401I-150000J0D01*
G01*
X109010600Y-104241401D01*
G75*
G02*
X108860600Y-104091401I0J150000D01*
G01*
X108860600Y-102441401D01*
G75*
G02*
X109010600Y-102291401I150000J0D01*
G01*
G37*
G36*
G01*
X110280600Y-102291401D02*
X110580600Y-102291401D01*
G75*
G02*
X110730600Y-102441401I0J-150000D01*
G01*
X110730600Y-104091401D01*
G75*
G02*
X110580600Y-104241401I-150000J0D01*
G01*
X110280600Y-104241401D01*
G75*
G02*
X110130600Y-104091401I0J150000D01*
G01*
X110130600Y-102441401D01*
G75*
G02*
X110280600Y-102291401I150000J0D01*
G01*
G37*
G36*
G01*
X111550600Y-102291401D02*
X111850600Y-102291401D01*
G75*
G02*
X112000600Y-102441401I0J-150000D01*
G01*
X112000600Y-104091401D01*
G75*
G02*
X111850600Y-104241401I-150000J0D01*
G01*
X111550600Y-104241401D01*
G75*
G02*
X111400600Y-104091401I0J150000D01*
G01*
X111400600Y-102441401D01*
G75*
G02*
X111550600Y-102291401I150000J0D01*
G01*
G37*
G36*
G01*
X136344800Y-73526800D02*
X136044800Y-73526800D01*
G75*
G02*
X135894800Y-73376800I0J150000D01*
G01*
X135894800Y-71726800D01*
G75*
G02*
X136044800Y-71576800I150000J0D01*
G01*
X136344800Y-71576800D01*
G75*
G02*
X136494800Y-71726800I0J-150000D01*
G01*
X136494800Y-73376800D01*
G75*
G02*
X136344800Y-73526800I-150000J0D01*
G01*
G37*
G36*
G01*
X137614800Y-73526800D02*
X137314800Y-73526800D01*
G75*
G02*
X137164800Y-73376800I0J150000D01*
G01*
X137164800Y-71726800D01*
G75*
G02*
X137314800Y-71576800I150000J0D01*
G01*
X137614800Y-71576800D01*
G75*
G02*
X137764800Y-71726800I0J-150000D01*
G01*
X137764800Y-73376800D01*
G75*
G02*
X137614800Y-73526800I-150000J0D01*
G01*
G37*
G36*
G01*
X138884800Y-73526800D02*
X138584800Y-73526800D01*
G75*
G02*
X138434800Y-73376800I0J150000D01*
G01*
X138434800Y-71726800D01*
G75*
G02*
X138584800Y-71576800I150000J0D01*
G01*
X138884800Y-71576800D01*
G75*
G02*
X139034800Y-71726800I0J-150000D01*
G01*
X139034800Y-73376800D01*
G75*
G02*
X138884800Y-73526800I-150000J0D01*
G01*
G37*
G36*
G01*
X140154800Y-73526800D02*
X139854800Y-73526800D01*
G75*
G02*
X139704800Y-73376800I0J150000D01*
G01*
X139704800Y-71726800D01*
G75*
G02*
X139854800Y-71576800I150000J0D01*
G01*
X140154800Y-71576800D01*
G75*
G02*
X140304800Y-71726800I0J-150000D01*
G01*
X140304800Y-73376800D01*
G75*
G02*
X140154800Y-73526800I-150000J0D01*
G01*
G37*
G36*
G01*
X140154800Y-68576800D02*
X139854800Y-68576800D01*
G75*
G02*
X139704800Y-68426800I0J150000D01*
G01*
X139704800Y-66776800D01*
G75*
G02*
X139854800Y-66626800I150000J0D01*
G01*
X140154800Y-66626800D01*
G75*
G02*
X140304800Y-66776800I0J-150000D01*
G01*
X140304800Y-68426800D01*
G75*
G02*
X140154800Y-68576800I-150000J0D01*
G01*
G37*
G36*
G01*
X138884800Y-68576800D02*
X138584800Y-68576800D01*
G75*
G02*
X138434800Y-68426800I0J150000D01*
G01*
X138434800Y-66776800D01*
G75*
G02*
X138584800Y-66626800I150000J0D01*
G01*
X138884800Y-66626800D01*
G75*
G02*
X139034800Y-66776800I0J-150000D01*
G01*
X139034800Y-68426800D01*
G75*
G02*
X138884800Y-68576800I-150000J0D01*
G01*
G37*
G36*
G01*
X137614800Y-68576800D02*
X137314800Y-68576800D01*
G75*
G02*
X137164800Y-68426800I0J150000D01*
G01*
X137164800Y-66776800D01*
G75*
G02*
X137314800Y-66626800I150000J0D01*
G01*
X137614800Y-66626800D01*
G75*
G02*
X137764800Y-66776800I0J-150000D01*
G01*
X137764800Y-68426800D01*
G75*
G02*
X137614800Y-68576800I-150000J0D01*
G01*
G37*
G36*
G01*
X136344800Y-68576800D02*
X136044800Y-68576800D01*
G75*
G02*
X135894800Y-68426800I0J150000D01*
G01*
X135894800Y-66776800D01*
G75*
G02*
X136044800Y-66626800I150000J0D01*
G01*
X136344800Y-66626800D01*
G75*
G02*
X136494800Y-66776800I0J-150000D01*
G01*
X136494800Y-68426800D01*
G75*
G02*
X136344800Y-68576800I-150000J0D01*
G01*
G37*
G36*
G01*
X128198200Y-141195000D02*
X128198200Y-140895000D01*
G75*
G02*
X128348200Y-140745000I150000J0D01*
G01*
X129998200Y-140745000D01*
G75*
G02*
X130148200Y-140895000I0J-150000D01*
G01*
X130148200Y-141195000D01*
G75*
G02*
X129998200Y-141345000I-150000J0D01*
G01*
X128348200Y-141345000D01*
G75*
G02*
X128198200Y-141195000I0J150000D01*
G01*
G37*
G36*
G01*
X128198200Y-142465000D02*
X128198200Y-142165000D01*
G75*
G02*
X128348200Y-142015000I150000J0D01*
G01*
X129998200Y-142015000D01*
G75*
G02*
X130148200Y-142165000I0J-150000D01*
G01*
X130148200Y-142465000D01*
G75*
G02*
X129998200Y-142615000I-150000J0D01*
G01*
X128348200Y-142615000D01*
G75*
G02*
X128198200Y-142465000I0J150000D01*
G01*
G37*
G36*
G01*
X128198200Y-143735000D02*
X128198200Y-143435000D01*
G75*
G02*
X128348200Y-143285000I150000J0D01*
G01*
X129998200Y-143285000D01*
G75*
G02*
X130148200Y-143435000I0J-150000D01*
G01*
X130148200Y-143735000D01*
G75*
G02*
X129998200Y-143885000I-150000J0D01*
G01*
X128348200Y-143885000D01*
G75*
G02*
X128198200Y-143735000I0J150000D01*
G01*
G37*
G36*
G01*
X128198200Y-145005000D02*
X128198200Y-144705000D01*
G75*
G02*
X128348200Y-144555000I150000J0D01*
G01*
X129998200Y-144555000D01*
G75*
G02*
X130148200Y-144705000I0J-150000D01*
G01*
X130148200Y-145005000D01*
G75*
G02*
X129998200Y-145155000I-150000J0D01*
G01*
X128348200Y-145155000D01*
G75*
G02*
X128198200Y-145005000I0J150000D01*
G01*
G37*
G36*
G01*
X133148200Y-145005000D02*
X133148200Y-144705000D01*
G75*
G02*
X133298200Y-144555000I150000J0D01*
G01*
X134948200Y-144555000D01*
G75*
G02*
X135098200Y-144705000I0J-150000D01*
G01*
X135098200Y-145005000D01*
G75*
G02*
X134948200Y-145155000I-150000J0D01*
G01*
X133298200Y-145155000D01*
G75*
G02*
X133148200Y-145005000I0J150000D01*
G01*
G37*
G36*
G01*
X133148200Y-143735000D02*
X133148200Y-143435000D01*
G75*
G02*
X133298200Y-143285000I150000J0D01*
G01*
X134948200Y-143285000D01*
G75*
G02*
X135098200Y-143435000I0J-150000D01*
G01*
X135098200Y-143735000D01*
G75*
G02*
X134948200Y-143885000I-150000J0D01*
G01*
X133298200Y-143885000D01*
G75*
G02*
X133148200Y-143735000I0J150000D01*
G01*
G37*
G36*
G01*
X133148200Y-142465000D02*
X133148200Y-142165000D01*
G75*
G02*
X133298200Y-142015000I150000J0D01*
G01*
X134948200Y-142015000D01*
G75*
G02*
X135098200Y-142165000I0J-150000D01*
G01*
X135098200Y-142465000D01*
G75*
G02*
X134948200Y-142615000I-150000J0D01*
G01*
X133298200Y-142615000D01*
G75*
G02*
X133148200Y-142465000I0J150000D01*
G01*
G37*
G36*
G01*
X133148200Y-141195000D02*
X133148200Y-140895000D01*
G75*
G02*
X133298200Y-140745000I150000J0D01*
G01*
X134948200Y-140745000D01*
G75*
G02*
X135098200Y-140895000I0J-150000D01*
G01*
X135098200Y-141195000D01*
G75*
G02*
X134948200Y-141345000I-150000J0D01*
G01*
X133298200Y-141345000D01*
G75*
G02*
X133148200Y-141195000I0J150000D01*
G01*
G37*
G36*
G01*
X106582800Y-160093800D02*
X106582800Y-159793800D01*
G75*
G02*
X106732800Y-159643800I150000J0D01*
G01*
X108382800Y-159643800D01*
G75*
G02*
X108532800Y-159793800I0J-150000D01*
G01*
X108532800Y-160093800D01*
G75*
G02*
X108382800Y-160243800I-150000J0D01*
G01*
X106732800Y-160243800D01*
G75*
G02*
X106582800Y-160093800I0J150000D01*
G01*
G37*
G36*
G01*
X106582800Y-161363800D02*
X106582800Y-161063800D01*
G75*
G02*
X106732800Y-160913800I150000J0D01*
G01*
X108382800Y-160913800D01*
G75*
G02*
X108532800Y-161063800I0J-150000D01*
G01*
X108532800Y-161363800D01*
G75*
G02*
X108382800Y-161513800I-150000J0D01*
G01*
X106732800Y-161513800D01*
G75*
G02*
X106582800Y-161363800I0J150000D01*
G01*
G37*
G36*
G01*
X106582800Y-162633800D02*
X106582800Y-162333800D01*
G75*
G02*
X106732800Y-162183800I150000J0D01*
G01*
X108382800Y-162183800D01*
G75*
G02*
X108532800Y-162333800I0J-150000D01*
G01*
X108532800Y-162633800D01*
G75*
G02*
X108382800Y-162783800I-150000J0D01*
G01*
X106732800Y-162783800D01*
G75*
G02*
X106582800Y-162633800I0J150000D01*
G01*
G37*
G36*
G01*
X106582800Y-163903800D02*
X106582800Y-163603800D01*
G75*
G02*
X106732800Y-163453800I150000J0D01*
G01*
X108382800Y-163453800D01*
G75*
G02*
X108532800Y-163603800I0J-150000D01*
G01*
X108532800Y-163903800D01*
G75*
G02*
X108382800Y-164053800I-150000J0D01*
G01*
X106732800Y-164053800D01*
G75*
G02*
X106582800Y-163903800I0J150000D01*
G01*
G37*
G36*
G01*
X111532800Y-163903800D02*
X111532800Y-163603800D01*
G75*
G02*
X111682800Y-163453800I150000J0D01*
G01*
X113332800Y-163453800D01*
G75*
G02*
X113482800Y-163603800I0J-150000D01*
G01*
X113482800Y-163903800D01*
G75*
G02*
X113332800Y-164053800I-150000J0D01*
G01*
X111682800Y-164053800D01*
G75*
G02*
X111532800Y-163903800I0J150000D01*
G01*
G37*
G36*
G01*
X111532800Y-162633800D02*
X111532800Y-162333800D01*
G75*
G02*
X111682800Y-162183800I150000J0D01*
G01*
X113332800Y-162183800D01*
G75*
G02*
X113482800Y-162333800I0J-150000D01*
G01*
X113482800Y-162633800D01*
G75*
G02*
X113332800Y-162783800I-150000J0D01*
G01*
X111682800Y-162783800D01*
G75*
G02*
X111532800Y-162633800I0J150000D01*
G01*
G37*
G36*
G01*
X111532800Y-161363800D02*
X111532800Y-161063800D01*
G75*
G02*
X111682800Y-160913800I150000J0D01*
G01*
X113332800Y-160913800D01*
G75*
G02*
X113482800Y-161063800I0J-150000D01*
G01*
X113482800Y-161363800D01*
G75*
G02*
X113332800Y-161513800I-150000J0D01*
G01*
X111682800Y-161513800D01*
G75*
G02*
X111532800Y-161363800I0J150000D01*
G01*
G37*
G36*
G01*
X111532800Y-160093800D02*
X111532800Y-159793800D01*
G75*
G02*
X111682800Y-159643800I150000J0D01*
G01*
X113332800Y-159643800D01*
G75*
G02*
X113482800Y-159793800I0J-150000D01*
G01*
X113482800Y-160093800D01*
G75*
G02*
X113332800Y-160243800I-150000J0D01*
G01*
X111682800Y-160243800D01*
G75*
G02*
X111532800Y-160093800I0J150000D01*
G01*
G37*
M02*
