G04 #@! TF.GenerationSoftware,KiCad,Pcbnew,(6.0.5)*
G04 #@! TF.CreationDate,2022-05-13T08:12:08+02:00*
G04 #@! TF.ProjectId,MEV_board,4d45565f-626f-4617-9264-2e6b69636164,rev?*
G04 #@! TF.SameCoordinates,Original*
G04 #@! TF.FileFunction,Soldermask,Top*
G04 #@! TF.FilePolarity,Negative*
%FSLAX46Y46*%
G04 Gerber Fmt 4.6, Leading zero omitted, Abs format (unit mm)*
G04 Created by KiCad (PCBNEW (6.0.5)) date 2022-05-13 08:12:08*
%MOMM*%
%LPD*%
G01*
G04 APERTURE LIST*
G04 Aperture macros list*
%AMRoundRect*
0 Rectangle with rounded corners*
0 $1 Rounding radius*
0 $2 $3 $4 $5 $6 $7 $8 $9 X,Y pos of 4 corners*
0 Add a 4 corners polygon primitive as box body*
4,1,4,$2,$3,$4,$5,$6,$7,$8,$9,$2,$3,0*
0 Add four circle primitives for the rounded corners*
1,1,$1+$1,$2,$3*
1,1,$1+$1,$4,$5*
1,1,$1+$1,$6,$7*
1,1,$1+$1,$8,$9*
0 Add four rect primitives between the rounded corners*
20,1,$1+$1,$2,$3,$4,$5,0*
20,1,$1+$1,$4,$5,$6,$7,0*
20,1,$1+$1,$6,$7,$8,$9,0*
20,1,$1+$1,$8,$9,$2,$3,0*%
G04 Aperture macros list end*
%ADD10RoundRect,0.237500X-0.237500X0.300000X-0.237500X-0.300000X0.237500X-0.300000X0.237500X0.300000X0*%
%ADD11RoundRect,0.250000X0.475000X-0.337500X0.475000X0.337500X-0.475000X0.337500X-0.475000X-0.337500X0*%
%ADD12RoundRect,0.237500X0.237500X-0.300000X0.237500X0.300000X-0.237500X0.300000X-0.237500X-0.300000X0*%
%ADD13RoundRect,0.250000X0.337500X0.475000X-0.337500X0.475000X-0.337500X-0.475000X0.337500X-0.475000X0*%
%ADD14RoundRect,0.250000X-0.337500X-0.475000X0.337500X-0.475000X0.337500X0.475000X-0.337500X0.475000X0*%
%ADD15RoundRect,0.237500X0.300000X0.237500X-0.300000X0.237500X-0.300000X-0.237500X0.300000X-0.237500X0*%
%ADD16RoundRect,0.237500X-0.300000X-0.237500X0.300000X-0.237500X0.300000X0.237500X-0.300000X0.237500X0*%
%ADD17RoundRect,0.249999X0.450001X-0.350001X0.450001X0.350001X-0.450001X0.350001X-0.450001X-0.350001X0*%
%ADD18RoundRect,0.237500X-0.237500X0.250000X-0.237500X-0.250000X0.237500X-0.250000X0.237500X0.250000X0*%
%ADD19RoundRect,0.237500X0.250000X0.237500X-0.250000X0.237500X-0.250000X-0.237500X0.250000X-0.237500X0*%
%ADD20RoundRect,0.150000X-0.825000X-0.150000X0.825000X-0.150000X0.825000X0.150000X-0.825000X0.150000X0*%
%ADD21RoundRect,0.150000X0.150000X-0.825000X0.150000X0.825000X-0.150000X0.825000X-0.150000X-0.825000X0*%
%ADD22RoundRect,0.150000X-0.150000X0.825000X-0.150000X-0.825000X0.150000X-0.825000X0.150000X0.825000X0*%
%ADD23R,1.700000X1.700000*%
%ADD24O,1.700000X1.700000*%
%ADD25R,4.500000X3.300000*%
%ADD26R,0.800000X0.900000*%
%ADD27R,1.450000X0.450000*%
%ADD28RoundRect,0.237500X-0.250000X-0.237500X0.250000X-0.237500X0.250000X0.237500X-0.250000X0.237500X0*%
%ADD29C,3.600000*%
%ADD30C,6.400000*%
%ADD31RoundRect,0.250000X0.350000X0.450000X-0.350000X0.450000X-0.350000X-0.450000X0.350000X-0.450000X0*%
%ADD32RoundRect,0.250000X0.450000X-0.350000X0.450000X0.350000X-0.450000X0.350000X-0.450000X-0.350000X0*%
%ADD33RoundRect,0.150000X-0.587500X-0.150000X0.587500X-0.150000X0.587500X0.150000X-0.587500X0.150000X0*%
%ADD34R,0.250000X1.100000*%
%ADD35R,2.600000X2.600000*%
%ADD36C,2.600000*%
%ADD37R,1.500000X2.500000*%
%ADD38O,1.500000X2.500000*%
%ADD39RoundRect,0.250000X-0.620000X-0.845000X0.620000X-0.845000X0.620000X0.845000X-0.620000X0.845000X0*%
%ADD40O,1.740000X2.190000*%
G04 APERTURE END LIST*
D10*
X114147600Y-50165000D03*
X114147600Y-51890000D03*
D11*
X126228500Y-106275500D03*
X126228500Y-104200500D03*
D12*
X128005500Y-114004000D03*
X128005500Y-112279000D03*
D10*
X129656500Y-112313000D03*
X129656500Y-114038000D03*
D13*
X131853000Y-99147699D03*
X129778000Y-99147699D03*
X131853000Y-101205099D03*
X129778000Y-101205099D03*
D14*
X122433000Y-51127601D03*
X124508000Y-51127601D03*
X122433000Y-53289200D03*
X124508000Y-53289200D03*
D15*
X131448000Y-110553500D03*
X129723000Y-110553500D03*
D14*
X109764500Y-110476099D03*
X111839500Y-110476099D03*
D13*
X120465500Y-55422800D03*
X118390500Y-55422800D03*
X120465500Y-53289200D03*
X118390500Y-53289200D03*
D16*
X110169500Y-101169099D03*
X111894500Y-101169099D03*
D13*
X120465500Y-51127601D03*
X118390500Y-51127601D03*
D10*
X134569200Y-67164300D03*
X134569200Y-68889300D03*
D17*
X143789000Y-124609500D03*
X143789000Y-122609500D03*
D18*
X111302800Y-156034100D03*
X111302800Y-157859100D03*
X108762800Y-156034100D03*
X108762800Y-157859100D03*
D19*
X143484600Y-69189600D03*
X141659600Y-69189600D03*
X143484600Y-67614800D03*
X141659600Y-67614800D03*
D20*
X106999000Y-50165000D03*
X106999000Y-51435000D03*
X106999000Y-52705000D03*
X106999000Y-53975000D03*
X111949000Y-53975000D03*
X111949000Y-52705000D03*
X111949000Y-51435000D03*
X111949000Y-50165000D03*
X120831500Y-112286500D03*
X120831500Y-113556500D03*
X120831500Y-114826500D03*
X120831500Y-116096500D03*
X125781500Y-116096500D03*
X125781500Y-114826500D03*
X125781500Y-113556500D03*
X125781500Y-112286500D03*
D21*
X129730500Y-108456500D03*
X131000500Y-108456500D03*
X132270500Y-108456500D03*
X133540500Y-108456500D03*
X133540500Y-103506500D03*
X132270500Y-103506500D03*
X131000500Y-103506500D03*
X129730500Y-103506500D03*
D22*
X111887000Y-103252500D03*
X110617000Y-103252500D03*
X109347000Y-103252500D03*
X108077000Y-103252500D03*
X108077000Y-108202500D03*
X109347000Y-108202500D03*
X110617000Y-108202500D03*
X111887000Y-108202500D03*
D21*
X136194800Y-72551800D03*
X137464800Y-72551800D03*
X138734800Y-72551800D03*
X140004800Y-72551800D03*
X140004800Y-67601800D03*
X138734800Y-67601800D03*
X137464800Y-67601800D03*
X136194800Y-67601800D03*
D23*
X99990000Y-75220000D03*
D24*
X102530000Y-75220000D03*
X99990000Y-77760000D03*
X102530000Y-77760000D03*
X99990000Y-80300000D03*
X102530000Y-80300000D03*
X99990000Y-82840000D03*
X102530000Y-82840000D03*
X99990000Y-85380000D03*
X102530000Y-85380000D03*
X99990000Y-87920000D03*
X102530000Y-87920000D03*
X99990000Y-90460000D03*
X102530000Y-90460000D03*
X99990000Y-93000000D03*
X102530000Y-93000000D03*
X99990000Y-95540000D03*
X102530000Y-95540000D03*
X99990000Y-98080000D03*
X102530000Y-98080000D03*
X99990000Y-100620000D03*
X102530000Y-100620000D03*
X99990000Y-103160000D03*
X102530000Y-103160000D03*
X99990000Y-105700000D03*
X102530000Y-105700000D03*
X99990000Y-108240000D03*
X102530000Y-108240000D03*
X99990000Y-110780000D03*
X102530000Y-110780000D03*
X99990000Y-113320000D03*
X102530000Y-113320000D03*
X99990000Y-115860000D03*
X102530000Y-115860000D03*
X99990000Y-118400000D03*
X102530000Y-118400000D03*
X99990000Y-120940000D03*
X102530000Y-120940000D03*
X99990000Y-123480000D03*
X102530000Y-123480000D03*
X99990000Y-126020000D03*
X102530000Y-126020000D03*
X99990000Y-128560000D03*
X102530000Y-128560000D03*
X99990000Y-131100000D03*
X102530000Y-131100000D03*
X99990000Y-133640000D03*
X102530000Y-133640000D03*
X99990000Y-136180000D03*
X102530000Y-136180000D03*
X99990000Y-138720000D03*
X102530000Y-138720000D03*
X99990000Y-141260000D03*
X102530000Y-141260000D03*
X99990000Y-143800000D03*
X102530000Y-143800000D03*
X99990000Y-146340000D03*
X102530000Y-146340000D03*
X99990000Y-148880000D03*
X102530000Y-148880000D03*
X99990000Y-151420000D03*
X102530000Y-151420000D03*
X99990000Y-153960000D03*
X102530000Y-153960000D03*
D23*
X150800000Y-75220000D03*
D24*
X153340000Y-75220000D03*
X150800000Y-77760000D03*
X153340000Y-77760000D03*
X150800000Y-80300000D03*
X153340000Y-80300000D03*
X150800000Y-82840000D03*
X153340000Y-82840000D03*
X150800000Y-85380000D03*
X153340000Y-85380000D03*
X150800000Y-87920000D03*
X153340000Y-87920000D03*
X150800000Y-90460000D03*
X153340000Y-90460000D03*
X150800000Y-93000000D03*
X153340000Y-93000000D03*
X150800000Y-95540000D03*
X153340000Y-95540000D03*
X150800000Y-98080000D03*
X153340000Y-98080000D03*
X150800000Y-100620000D03*
X153340000Y-100620000D03*
X150800000Y-103160000D03*
X153340000Y-103160000D03*
X150800000Y-105700000D03*
X153340000Y-105700000D03*
X150800000Y-108240000D03*
X153340000Y-108240000D03*
X150800000Y-110780000D03*
X153340000Y-110780000D03*
X150800000Y-113320000D03*
X153340000Y-113320000D03*
X150800000Y-115860000D03*
X153340000Y-115860000D03*
X150800000Y-118400000D03*
X153340000Y-118400000D03*
X150800000Y-120940000D03*
X153340000Y-120940000D03*
X150800000Y-123480000D03*
X153340000Y-123480000D03*
X150800000Y-126020000D03*
X153340000Y-126020000D03*
X150800000Y-128560000D03*
X153340000Y-128560000D03*
X150800000Y-131100000D03*
X153340000Y-131100000D03*
X150800000Y-133640000D03*
X153340000Y-133640000D03*
X150800000Y-136180000D03*
X153340000Y-136180000D03*
X150800000Y-138720000D03*
X153340000Y-138720000D03*
X150800000Y-141260000D03*
X153340000Y-141260000D03*
X150800000Y-143800000D03*
X153340000Y-143800000D03*
X150800000Y-146340000D03*
X153340000Y-146340000D03*
X150800000Y-148880000D03*
X153340000Y-148880000D03*
X150800000Y-151420000D03*
X153340000Y-151420000D03*
X150800000Y-153960000D03*
X153340000Y-153960000D03*
D25*
X131940000Y-60604400D03*
X140740000Y-60604400D03*
X131940000Y-53644800D03*
X140740000Y-53644800D03*
D10*
X115213000Y-101183000D03*
X115213000Y-102908000D03*
D26*
X122298500Y-104418000D03*
X120398500Y-104418000D03*
X121348500Y-106418000D03*
D10*
X113673000Y-101183000D03*
X113673000Y-102908000D03*
D15*
X118469500Y-108238000D03*
X116744500Y-108238000D03*
D12*
X124188500Y-106100500D03*
X124188500Y-104375500D03*
D27*
X117368500Y-100533000D03*
X117368500Y-101183000D03*
X117368500Y-101833000D03*
X117368500Y-102483000D03*
X121768500Y-102483000D03*
X121768500Y-101833000D03*
X121768500Y-101183000D03*
X121768500Y-100533000D03*
D17*
X119522500Y-98840800D03*
X119522500Y-96840800D03*
D19*
X123076600Y-98958400D03*
X121251600Y-98958400D03*
D28*
X124296000Y-107988000D03*
X126121000Y-107988000D03*
D18*
X120340500Y-108434500D03*
X120340500Y-110259500D03*
D19*
X126121000Y-109528000D03*
X124296000Y-109528000D03*
D18*
X118644500Y-112244500D03*
X118644500Y-114069500D03*
D26*
X116787000Y-106418000D03*
X118687000Y-106418000D03*
X117737000Y-104418000D03*
D13*
X118644500Y-110426500D03*
X116569500Y-110426500D03*
D14*
X122433000Y-55422800D03*
X124508000Y-55422800D03*
D29*
X155000000Y-46000000D03*
D30*
X155000000Y-46000000D03*
D29*
X98000000Y-46000000D03*
D30*
X98000000Y-46000000D03*
X155000000Y-161500000D03*
D29*
X155000000Y-161500000D03*
X98000000Y-161500000D03*
D30*
X98000000Y-161500000D03*
D20*
X107557800Y-159943800D03*
X107557800Y-161213800D03*
X107557800Y-162483800D03*
X107557800Y-163753800D03*
X112507800Y-163753800D03*
X112507800Y-162483800D03*
X112507800Y-161213800D03*
X112507800Y-159943800D03*
D12*
X120650000Y-122513500D03*
X120650000Y-120788500D03*
D28*
X139994000Y-120652500D03*
X141819000Y-120652500D03*
D12*
X114452000Y-127291000D03*
X114452000Y-125566000D03*
D31*
X122856500Y-151447500D03*
X120856500Y-151447500D03*
D32*
X126238000Y-122451000D03*
X126238000Y-120451000D03*
D33*
X128348500Y-120652500D03*
X128348500Y-122552500D03*
X130223500Y-121602500D03*
D12*
X136740500Y-127291000D03*
X136740500Y-125566000D03*
D31*
X134794500Y-151447500D03*
X132794500Y-151447500D03*
D10*
X138304000Y-125566000D03*
X138304000Y-127291000D03*
D34*
X122306500Y-122501000D03*
X122806500Y-122501000D03*
X123306500Y-122501000D03*
X123806500Y-122501000D03*
X124306500Y-122501000D03*
X124306500Y-118201000D03*
X123806500Y-118201000D03*
X123306500Y-118201000D03*
X122806500Y-118201000D03*
X122306500Y-118201000D03*
D32*
X109372000Y-124618500D03*
X109372000Y-122618500D03*
D10*
X116039500Y-125566000D03*
X116039500Y-127291000D03*
D35*
X111823500Y-47200000D03*
D36*
X106743500Y-47200000D03*
D37*
X124000000Y-47800000D03*
D38*
X121460000Y-47800000D03*
X118920000Y-47800000D03*
D23*
X106222798Y-153974800D03*
D24*
X108762798Y-153974800D03*
X111302798Y-153974800D03*
X113842798Y-153974800D03*
D35*
X146500000Y-47200000D03*
D36*
X141420000Y-47200000D03*
X136340000Y-47200000D03*
X131260000Y-47200000D03*
D23*
X140906500Y-122618500D03*
D24*
X140906500Y-125158500D03*
X140906500Y-127698500D03*
X140906500Y-130238500D03*
X140906500Y-132778500D03*
X140906500Y-135318500D03*
D39*
X118046500Y-153974800D03*
D40*
X120586500Y-153974800D03*
X123126500Y-153974800D03*
D23*
X112204500Y-122618500D03*
D24*
X112204500Y-125158500D03*
X112204500Y-127698500D03*
X112204500Y-130238500D03*
X112204500Y-132778500D03*
X112204500Y-135318500D03*
D39*
X129984500Y-153974800D03*
D40*
X132524500Y-153974800D03*
X135064500Y-153974800D03*
M02*
